<?xml version="1.0" encoding="UTF-8"?>
<svg id="_レイヤー_2" data-name="レイヤー 2" xmlns="http://www.w3.org/2000/svg" viewBox="0 0 660.6135057 365.334387">
  <defs>
    <style>
      .cls-1, .cls-2, .cls-3, .cls-4 {
        stroke-width: 0px;
      }

      .cls-2 {
        fill: #fff;
      }

      .cls-3 {
        fill: #f4b0b7;
      }

      .cls-4 {
        fill: #030b0b;
      }
    </style>
  </defs>
  <g id="_レイヤー_1-2" data-name="レイヤー 1">
    <g>
      <g>
        <rect class="cls-4" width="341.3067529" height="91.2832615"/>
        <g>
          <path class="cls-2" d="m50.0547997,64.9093381c0,2.8586426.7568359,3.1948242,6.5585938,3.1948242,7.0615234,0,12.1064453-.2521973,20.09375-1.0930176l.0839844,8.6599121c-7.3144531.7565918-11.9394531,1.0087891-22.2802734,1.0087891-11.2666016,0-13.2841797-1.5974121-13.2841797-10.5095215v-14.2087402l-15.0488281.3364258c-3.6152344.0839844-8.3242188.3361816-11.7714844.5043945l-.0839844-8.7438965q1.3457031.0839844,2.4384766.0839844c2.1015625,0,7.3984375,0,9.3320312-.0839844l15.1337891-.3364258v-7.0622559c0-2.6904297,0-3.4470215-.0839844-5.4650879l8.9121094.588623c1.0087891.0842285,1.5976562.3364258,1.5976562.8408203s-.4199219,1.0087891-1.5976562,1.6813965v9.2485352l22.0273438-.5046387c3.4472656-.0839844,8.4921875-.3361816,11.7714844-.5883789l.0839844,8.7438965h-11.6875l-22.1953125.5883789v13.1159668Zm21.9433594-35.7321777c-.8398438-.0842285-1.3447266-.0842285-1.5126953-.0842285-.8408203,0-3.7841797,0-8.5761719.0842285l-27.4931641.5883789c-2.5214844.0839844-6.8095703.2521973-10.0878906.4204102l-.0849609-8.6599121c2.9423828.0842285,8.2392578.0842285,10.0048828,0l27.5771484-.6726074c4.3720703-.0839844,7.2304688-.1679688,10.0048828-.4204102l.1679688,8.7441406Z"/>
          <path class="cls-2" d="m132.7862451,44.3107053c-1.2607422,8.9960938-2.0185547,11.8547363-4.7080078,17.2355957-3.2792969,6.6420898-8.3242188,12.4431152-14.6289062,17.1513672-2.1865234,1.5976562-3.9521484,2.6904297-7.8203125,4.9604492-1.4287109-3.0266113-3.2783203-5.4648438-5.5488281-7.2304688,10.8457031-6.1374512,16.0585938-11.013916,19.8417969-18.4125977,2.0185547-4.0356445,3.1113281-8.0712891,3.6992188-13.7043457h-18.328125c-3.6152344,0-8.3232422.0839844-11.7705078.1682129v-9.0803223c3.1943359.0842285,7.9873047.1682129,11.7705078.1682129h43.2988281c3.3632812,0,8.828125-.0839844,11.6875-.1682129v9.0803223c-3.0273438-.0842285-8.4921875-.1682129-11.6875-.1682129h-15.8056641Zm13.1162109-19.5895996c-2.4384766-.0842285-5.9697266-.1682129-8.4082031-.1682129h-23.0371094c-2.4375,0-5.96875.0839844-8.4072266.1682129v-9.0803223c2.4384766.0842285,5.9697266.1682129,8.4072266.1682129h23.0371094c2.4384766,0,5.9697266-.0839844,8.4082031-.1682129v9.0803223Zm5.8847656-12.1069336c3.9511719,2.4379883,6.5585938,4.4560547,10.6777344,8.4074707l-4.2041016,4.6242676c-3.9511719-4.2038574-5.8007812-5.7172852-10.2568359-8.7438965l3.7832031-4.2878418Zm6.5585938-7.5668945c3.9511719,2.4382324,6.5566406,4.4560547,10.5927734,8.4074707l-4.2041016,4.5402832c-3.8671875-4.119873-5.7167969-5.7172852-10.0888672-8.6599121l3.7001953-4.2878418Z"/>
          <path class="cls-2" d="m192.2286279,29.0089475c.5039062.0839844,1.0087891.5043945,1.0087891.9248047,0,.5043945-.4208984.9248047-1.5126953,1.5134277-1.5136719,14.6291504-2.9433594,20.0939941-6.8945312,26.3996582-4.2880859,6.8942871-8.828125,11.013916-19.1699219,17.3198242-1.0927734-2.942627-2.8583984-5.4650879-5.5488281-8.0712891,8.2402344-4.7924805,11.6865234-7.5668945,15.3017578-12.2751465,4.7919922-6.3898926,6.8945312-14.6291504,6.8945312-26.3999023v-.4204102l9.9208984,1.0090332Zm5.8007812,36.572998c.7578125-2.6904297.9257812-6.0534668.9257812-15.6381836v-14.7133789c0-6.4736328-.0839844-10.0888672-.2529297-12.6113281l9.6689453.588623c1.0087891.0839844,1.5136719.3361816,1.5136719.9248047,0,.4204102-.4208984.8408203-1.5976562,1.5974121q-.0839844,1.3452148-.1679688,9.5004883v23.7937012c11.9384766-5.8012695,18.4960938-10.59375,28.3339844-20.6828613,1.5126953,4.3720703,2.1015625,5.8012695,3.4462891,8.9960938-11.2666016,10.4255371-18.5810547,15.302002-32.5371094,22.0280762-.4208984,1.0930176-.8408203,1.5974121-1.3447266,1.5974121-.3369141,0-.8417969-.1682129-1.2617188-.5043945l-6.7265625-4.8764648Z"/>
          <path class="cls-2" d="m259.2374169,40.3590452c4.1201172,2.6904297,7.4833984,5.4650879,10.9306641,8.9963379l-4.7929688,7.3984375c-1.6816406-2.2700195-3.9511719-4.7922363-6.1376953-6.894043v11.4343262c0,11.013916.0849609,19.1691895.3369141,24.5500488h-8.6601562c.2519531-5.4648438.3359375-13.7043457.3359375-24.5500488v-7.2307129c-2.2695312,6.8942871-4.3710938,11.0981445-8.1552734,17.1516113-2.2705078-5.1286621-3.0263672-6.473877-4.5400391-8.6599121,5.296875-8.2392578,8.9960938-17.6557617,11.5185547-29.5947266h-2.5224609c-2.1855469,0-4.8759766.0842285-6.6416016.1682129v-7.9870605c1.8496094.0839844,4.8759766.1679688,6.6416016.1679688h3.6992188c-.0839844-9.3322754-.2519531-15.1335449-.5039062-17.2355957l8.828125.6726074c.7558594,0,1.2607422.3364258,1.2607422.8408203,0,.4204102-.4208984.9248047-1.5126953,1.5974121-.0849609,2.4382324-.0849609,2.8586426-.0849609,14.1247559h2.6904297c1.765625,0,4.7929688-.0839844,6.6425781-.1679688v7.9870605c-1.765625-.0839844-4.3720703-.1682129-6.6425781-.1682129h-2.6904297v7.3986816Zm29.0908203,45.4851074c.2519531-4.5400391.4199219-11.013916.4199219-19.253418-6.2216797,6.9785156-12.0234375,10.7617188-23.7929688,16.1425781-1.5976562-3.3630371-2.0175781-4.2878418-4.0361328-7.3144531,12.0224609-4.708252,18.5810547-8.9960938,25.3076172-16.4790039h-6.6425781v3.1948242h-7.9033203c.1689453-1.9335938.2529297-4.7922363.2529297-8.9118652v-16.8994141c0-2.6904297-.1689453-5.9692383-.2529297-7.482666,2.9423828.0839844,5.4648438.1682129,9.2490234.1682129h7.8183594v-5.8012695h-9.8369141c-3.53125,0-8.2392578.0839844-11.6865234.1682129v-7.9033203c3.1953125.1682129,7.9873047.2524414,11.6865234.2524414h9.6689453c-.0839844-3.8676758-.1679688-6.473877-.3359375-7.7351074l8.6591797.588623c.7568359,0,1.1767578.4204102,1.1767578.8405762,0,.5046387-.4199219.9250488-1.5126953,1.5974121v4.7084961h10.6777344c3.3623047,0,8.8271484-.0842285,11.6865234-.2524414v7.9033203c-3.1113281-.0842285-8.4921875-.1682129-11.6865234-.1682129h-10.7617188v5.8012695h8.4912109c3.6992188,0,6.3056641-.0842285,9.2480469-.1682129-.0839844,1.5134277-.2519531,4.7922363-.2519531,7.482666v15.9746094c0,3.951416.0839844,6.8100586.2519531,8.7438965h-7.9023438v-2.1020508h-7.1464844c3.1953125,3.9516602,4.4550781,5.2128906,8.0712891,7.8190918,4.5400391,3.3630371,6.8095703,4.708252,13.7880859,7.9873047-1.3457031,1.5134277-1.9335938,2.2700195-2.6904297,3.5310059q-1.3447266,2.2702637-2.1015625,3.3632812c-6.2216797-3.0268555-9.8369141-5.3808594-14.3769531-9.5847168-2.1865234-2.0178223-3.8681641-3.7834473-5.3808594-5.8012695.0839844,8.5756836.1679688,15.0495605.4199219,19.5895996h-8.5751953Zm.4199219-50.0251465h-9.1640625v4.9604492h9.1640625v-4.9604492Zm-9.1640625,11.5183105v4.7084961h9.1640625v-4.7084961h-9.1640625Zm26.7363281-6.5578613v-4.9604492h-9.8369141v4.9604492h9.8369141Zm-9.8369141,11.2663574h9.8369141v-4.7084961h-9.8369141v4.7084961Z"/>
        </g>
        <rect class="cls-4" y="203.3855125" width="660.6135057" height="91.2832615"/>
        <g>
          <path class="cls-2" d="m59.3028466,233.8234006c-5.0449219,2.1018066-9.8359375,3.4470215-15.6376953,4.5400391.0839844,6.1376953.1679688,10.59375.1679688,13.4521484,8.4912109-2.942627,13.5361328-3.951416,19.1689453-3.951416,4.7929688,0,9.6689453,1.6813965,13.2001953,4.6240234,3.4472656,2.8586426,5.0449219,6.5581055,5.0449219,11.6025391,0,10.4255371-7.8193359,17.2355957-19.8427734,17.2355957-3.53125,0-5.96875-.5043945-9.8359375-1.765625.7558594-4.708252.8398438-5.1286621,1.0087891-8.4074707,3.6992188,1.4291992,6.2216797,1.9335938,9.2480469,1.9335938,6.4736328,0,10.6777344-3.3630371,10.6777344-8.4916992,0-3.1108398-1.3447266-5.5488281-3.9521484-7.0622559-1.9335938-1.0930176-4.6230469-1.8496094-6.8095703-1.8496094-4.8759766,0-11.0986328,1.5974121-17.6552734,4.3718262-.0849609,8.3234863-.1689453,11.5185547-.3369141,13.8725586-.3369141,7.5668945-2.8583984,11.013916-7.9033203,11.013916-2.1855469,0-4.7080078-1.0087891-8.828125-3.2790527-6.0527344-3.4470215-9.4160156-7.1462402-9.4160156-10.425293,0-4.2038574,5.5488281-9.1643066,17.8242188-15.8061523q-.0839844-4.119873-.0839844-6.3059082c0-.1679688-.0839844-3.4470215-.1679688-9.8366699-3.1953125.1679688-7.9042969.2521973-13.9570312.3361816l-.0839844-8.4074707c2.8583984.1679688,4.1191406.1679688,5.5488281.1679688,2.3535156,0,5.7167969-.1679688,8.4082031-.3361816q-.0849609-1.765625-.0849609-7.9030762c-.0839844-3.6154785-.1679688-5.9694824-.4208984-7.5668945l8.6601562.4204102c1.0097656,0,1.6816406.5043945,1.6816406,1.177002,0,.588623-.4199219,1.177002-1.4296875,1.9338379v11.013916c3.4472656-.5046387,8.5761719-2.0178223,12.5273438-3.7834473l3.2792969,7.482666Zm-23.625,29.5947266c-.7568359.4204102-1.3457031.7565918-1.765625,1.0090332-5.2128906,3.0266113-8.2392578,5.3808594-8.2392578,6.6418457,0,1.0090332,1.4287109,2.2700195,4.2041016,4.0356445,1.9335938,1.0930176,3.0263672,1.5974121,3.9511719,1.5974121,1.6816406,0,1.8496094-.7565918,1.8496094-9.7526855v-3.53125Zm48.1757812-13.7043457c-3.9521484-6.5578613-7.7353516-8.9121094-14.4609375-8.9121094-.8417969,0-1.5976562,0-2.9433594.0842285l-.2519531-8.0712891q1.0087891,0,3.8671875.0839844c8.9121094.0839844,14.6289062,3.1948242,20.1787109,11.013916l-6.3896484,5.8012695Z"/>
          <path class="cls-2" d="m116.980581,233.8234006c-1.765625-.0839844-4.3730469-.1682129-6.6425781-.1682129h-12.359375c-2.2695312,0-4.9599609.0842285-6.7255859.1682129v-7.9870605c1.8496094.0839844,4.8759766.1679688,6.7255859.1679688h12.359375c1.765625,0,4.7929688-.0839844,6.6425781-.1679688v7.9870605Zm-15.21875,54.060791h-7.9863281c.1679688-1.9335938.2519531-4.7922363.2519531-8.9121094v-10.9296875c0-2.6064453-.0839844-5.8852539-.2519531-7.3986816,1.9335938.0839844,3.6992188.1682129,6.1367188.1682129h8.6601562c2.4384766,0,4.2041016-.0842285,6.0537109-.1682129-.0839844,1.5134277-.2529297,4.7922363-.2529297,7.3986816v10.425293c0,3.9516602.0839844,6.8103027.2529297,8.7438965h-7.9033203v-2.6904297h-4.9609375v3.3630371Zm6.5585938-65.7473145h-8.4082031l-5.0439453.0839844v-7.8190918c1.2607422.0842285,3.4462891.1682129,5.0439453.1682129h8.4082031c1.6816406,0,3.7832031-.0839844,5.0449219-.1682129v7.8190918l-5.0449219-.0839844Zm5.0449219,23.0368652c-1.2617188-.0842285-3.3632812-.0842285-5.0449219-.0842285h-8.4082031c-1.5976562,0-3.7832031,0-5.0439453.0842285v-7.8190918c1.2607422.0839844,3.4462891.0839844,5.0439453.0839844h8.4082031c1.6816406,0,3.7832031,0,5.0449219-.0839844v7.8190918Zm0,11.6025391c-1.2617188-.0842285-3.3632812-.0842285-5.0449219-.0842285h-8.4082031c-1.5976562,0-3.7832031,0-5.0439453.0842285v-7.8190918c1.2607422.0839844,3.4462891.0839844,5.0439453.0839844h8.4082031c1.6816406,0,3.7832031,0,5.0449219-.0839844v7.8190918Zm-6.6425781,10.6774902h-4.9609375v10.3413086h4.9609375v-10.3413086Zm59.5253906,1.0930176c.5888672.3364258.7568359.588623.7568359,1.0087891,0,.588623-.4199219.8408203-2.1015625,1.0090332-1.8496094,1.3452148-4.7919922,3.8674316-6.3056641,4.8764648,3.3632812,2.2700195,7.4824219,4.1196289,12.5273438,5.8012695-2.3544922,3.3630371-2.7744141,4.0356445-4.0351562,6.9782715-6.8945312-2.8586426-11.4355469-5.6330566-15.5546875-9.6687012-3.3632812-3.3630371-5.5488281-6.5581055-8.3242188-12.6115723-2.3535156,2.2700195-4.9599609,4.2880859-7.6503906,6.0534668l1.9335938.1682129c1.0097656.0839844,1.5136719.3364258,1.5136719.8408203s-.5039062.9248047-1.6816406,1.6813965v5.0446777c3.53125-.588623,7.2304688-1.2612305,11.1816406-2.1860352l.0839844,6.2216797c-6.640625,1.8496094-13.7871094,3.3630371-22.9521484,4.7922363-.8408203,1.0930176-1.2607422,1.4294434-1.8496094,1.4294434-.4208984,0-.8408203-.4204102-1.0927734-1.1772461l-2.4384766-7.0622559c3.3632812-.2521973,6.4736328-.588623,9.5849609-.9248047v-5.5490723c-3.1113281,1.5134277-6.6425781,2.8586426-10.7617188,4.1196289-2.0175781-4.5400391-2.0175781-4.6240234-3.7832031-6.7260742,8.1542969-2.185791,12.9472656-4.1196289,17.3193359-7.1464844h-6.0537109c-2.7744141,0-7.4824219.0842285-10.0888672.1682129v-6.8942871c2.5224609.1682129,6.8095703.2524414,10.0888672.2524414h5.4648438v-3.0268555h-1.0927734c-2.7744141,0-7.4833984.1682129-10.0888672.2521973v-6.8942871c2.5214844.0842285,6.8105469.1682129,10.0888672.1682129h1.0927734v-3.0266113h-1.0927734c-2.7744141,0-7.4833984.0839844-10.0888672.2521973v-6.9782715c2.5214844.1679688,6.8105469.2521973,10.0888672.2521973h1.0927734c0-1.9338379,0-3.8674316-.1679688-5.8012695-2.6904297,1.5974121-4.9609375,2.5222168-10.3417969,4.8764648-2.1855469-4.0356445-2.6054688-4.708252-3.6152344-5.9694824,7.5673828-2.6904297,10.9296875-4.4560547,16.3105469-8.4074707h-4.3710938c-3.0273438,0-4.7089844,0-12.6113281.1679688v-7.1462402c6.8945312.1679688,9.4160156.2521973,12.6113281.2521973h8.7441406v-1.5134277c0-2.354248-.0839844-4.2038574-.1679688-5.4648438l8.1542969.5883789c1.0097656.0839844,1.5136719.4204102,1.5136719.8408203,0,.5043945-.4199219,1.0087891-1.5976562,1.6813965v3.8676758h11.2666016c3.3623047,0,8.828125-.0842285,11.6865234-.2521973v7.1462402c-3.0273438-.0839844-8.4921875-.1679688-11.6865234-.1679688h-6.8095703c6.0527344,3.3630371,10.9296875,5.2966309,18.1601562,6.894043-1.2617188,2.1860352-1.8496094,3.2790527-3.0273438,6.473877-8.5761719-2.5222168-15.3017578-5.6330566-20.1777344-9.248291l3.6992188-4.1196289h-13.6210938l4.625,2.6904297c.5878906.3361816.8408203.5883789.8408203,1.0087891,0,.6726074-.2529297.7565918-1.9345703.9248047-2.9414062,1.9338379-4.9599609,3.2790527-6.6416016,4.2878418l6.5576172.5046387c.9257812.0839844,1.5136719.3361816,1.5136719.8405762,0,.5046387-.4199219,1.0090332-1.5976562,1.6816406v3.3630371h7.0625c0-2.7746582-.0839844-3.8674316-.1679688-6.473877l7.5664062.588623c.9257812.0839844,1.5136719.3361816,1.5136719.8405762,0,.5046387-.5039062,1.0090332-1.5976562,1.6816406-.0839844,1.3452148-.0839844,2.0178223-.0839844,3.3630371h1.1777344c3.2792969,0,7.5664062-.0842285,10.0888672-.2521973v6.9782715c-2.6064453-.1682129-7.3144531-.2521973-10.0888672-.2521973h-1.1777344v3.0266113h1.1777344c3.2792969,0,7.5664062-.0839844,10.0888672-.1682129v6.8942871c-2.6064453-.0839844-7.3144531-.2521973-10.0888672-.2521973h-1.1777344v3.0268555h6.2226562c3.1943359,0,7.5664062-.0842285,10.0878906-.2524414v6.8942871c-2.1855469-.0839844-5.8847656-.1682129-8.6591797-.1682129l4.9599609,3.0268555Zm-26.9042969-22.027832v3.0266113h7.0625v-3.0266113h-7.0625Zm7.0625,12.5273438v-3.0268555h-7.0625v3.0268555h7.0625Zm2.7753906,6.4736328c1.1757812,2.1020508,2.5214844,4.0356445,4.203125,5.8012695,2.1855469-1.765625,4.1191406-3.6992188,5.96875-5.8012695h-10.171875Z"/>
          <path class="cls-2" d="m194.4981591,214.5699827c.5888672.0842285,1.09375.6726074,1.09375,1.2612305,0,.5043945-.4208984.8408203-1.6816406,1.3452148-2.2705078,7.9030762-3.8671875,17.8239746-3.8671875,24.4660645,0,.9248047-.0849609,1.2612305-.0849609,2.942627h.3369141c3.8671875-15.1335449,10.7617188-23.7094727,19.1689453-23.7094727,8.9121094,0,13.7880859,8.4077148,13.7880859,23.8776855,0,13.8725586-3.1943359,24.8022461-9.5839844,32.7895508-4.1201172,5.1286621-8.3242188,8.1552734-16.6474609,11.9387207-.8408203-2.2700195-2.6064453-5.2966309-4.4560547-7.8190918,8.1552734-4.2036133,9.5-5.128418,12.6113281-8.4074707,6.0537109-6.473877,8.9960938-15.8903809,8.9960938-28.7539062,0-10.6777344-1.765625-16.0585938-5.3808594-16.0585938-2.3535156,0-4.6240234,2.1018066-7.4824219,6.8103027-2.4384766,4.1196289-5.8007812,13.6201172-6.8945312,19.4213867-.4199219,2.0178223-.7558594,6.2216797-.7558594,8.3234863,0,.588623.0839844,1.5134277.2519531,2.6064453l-8.9121094,2.1018066c-2.3544922-8.659668-3.0273438-13.7883301-3.0273438-23.7094727,0-7.3984375.5048828-11.7705078,2.3544922-21.7756348.5888672-3.1948242.7568359-4.5400391.9248047-5.8010254.2519531-2.1860352.4199219-3.4472656.4199219-3.6994629l8.828125,1.8496094Z"/>
          <path class="cls-2" d="m253.8575341,226.424719c1.0917969.1682129,1.8496094.6726074,1.8496094,1.4291992,0,.6728516-.4208984,1.0090332-1.9345703,1.5976562-.6728516,5.0444336-.7568359,7.6508789-.7568359,16.8151855,0,7.9030762,1.1777344,13.956543,3.6152344,18.8330078,1.3457031,2.7744141,3.53125,4.7922363,5.1289062,4.7922363,1.4296875,0,2.4384766-3.0268555,3.9511719-11.6865234,4.625,3.1948242,5.2128906,3.53125,7.8203125,4.7922363-3.0273438,13.1159668-5.6337891,17.0673828-11.3515625,17.0673828-4.9599609,0-9.4160156-3.1105957-13.03125-9.248291-2.1015625-3.6152344-3.9511719-8.8278809-4.7080078-13.4521484-.5888672-3.1108398-.7568359-6.6420898-.7568359-12.3591309,0-4.1196289.3359375-13.8725586.5878906-17.6560059q.0849609-1.5131836.0849609-2.3540039l9.5009766,1.4291992Zm38.3378906,3.7834473c10.4257812,10.2573242,15.3017578,17.9082031,19.7578125,31.5285645l-8.9960938,4.2036133c-2.1855469-7.9870605-3.8671875-12.1069336-7.3984375-17.6557617-3.0273438-4.7924805-5.8847656-8.4077148-9.8369141-12.359375l6.4736328-5.717041Z"/>
          <path class="cls-2" d="m340.8760888,229.7037717c3.9511719-.8408203,6.1376953-1.5134277,11.0976562-3.2790527l2.6904297,7.5668945c-5.3808594,2.1018066-9.7529297,3.1948242-16.2265625,4.2878418q-2.3535156,8.4074707-4.7080078,14.8813477c-5.3808594,14.9655762-8.2392578,21.4394531-14.2089844,32.5373535-2.7744141-2.4379883-3.4472656-2.8583984-7.5673828-4.7922363,6.5585938-10.9299316,11.8554688-23.4572754,17.4882812-41.6174316-5.5488281.420166-8.0712891.5883789-14.2929688.5883789l-.0839844-8.3234863c7.734375,0,9.5839844-.0839844,16.8144531-.6726074l.1689453-.588623c1.5966797-6.473877,2.3544922-10.2570801,3.1103516-15.8903809l9.0800781,2.2702637c.6728516.1679688,1.1777344.5883789,1.1777344,1.0087891,0,.588623-.3359375.9248047-1.5976562,1.5134277-1.765625,6.7260742-1.8496094,7.0622559-2.6904297,9.7526855l-.2519531.7568359Zm11.2666016,34.8913574c-2.3554688,3.3630371-3.1113281,5.1286621-3.1113281,7.3146973,0,3.2790527,3.0263672,4.1196289,15.2177734,4.1196289,5.1279297,0,9.3320312-.5043945,15.8896484-1.8496094-.5878906,2.6904297-.671875,3.4470215-.8398438,8.9960938-5.8017578.7568359-10.0058594,1.0930176-15.5546875,1.0930176-7.1464844,0-12.6953125-.5043945-15.890625-1.3452148-4.5390625-1.2612305-7.2304688-4.8764648-7.2304688-9.7526855,0-4.0356445,1.5136719-7.3146973,5.4648438-12.1069336l6.0546875,3.5310059Zm-8.4082031-18.6647949c10.3417969-3.2790527,16.1425781-4.2878418,25.1386719-4.2878418,1.765625,0,4.4560547.0839844,7.9033203.2521973l-.3369141,8.1555176c-6.4736328-.2524414-7.3144531-.2524414-8.4072266-.2524414-7.0625,0-11.5185547.7568359-22.2802734,3.6994629l-2.0175781-7.5668945Z"/>
          <path class="cls-2" d="m407.8848779,218.6056272c.9257812,0,1.5976562.5046387,1.5976562,1.177002,0,.588623-.3359375.9250488-1.4296875,1.6816406-.3359375,6.8942871-1.2607422,40.6086426-1.2607422,44.9807129,0,6.9782715,2.5224609,9.5004883,9.5849609,9.5004883,4.9609375,0,9.7519531-1.4291992,14.796875-4.3718262,6.1376953-3.53125,9.5849609-6.7260742,15.5546875-14.6293945,1.3447266,3.1108398,2.1855469,4.2878418,5.4648438,8.0712891-6.4746094,7.6508789-10.2578125,10.9299316-16.3105469,14.4611816-6.5585938,3.6992188-13.5371094,5.6330566-20.515625,5.6330566-6.640625,0-11.8535156-2.0178223-14.6289062-5.7172852-2.1015625-2.7744141-3.1103516-6.8100586-3.1103516-12.6113281,0-2.2700195.0839844-4.2038574.5048828-14.9655762.2519531-7.3986816.4199219-15.722168.4199219-24.1296387,0-3.7834473-.0839844-6.8103027-.2519531-9.7529297l9.5839844.6726074Z"/>
          <path class="cls-2" d="m499.2755029,266.6971799c5.8857422,2.1860352,11.2666016,5.2126465,20.4316406,11.4343262-2.0185547,2.185791-4.1201172,4.9604492-5.296875,7.2304688-7.3994141-5.9694824-8.9121094-6.9782715-15.3027344-10.2573242-.5039062,3.1950684-1.2607422,5.2126465-2.6894531,6.9782715-2.6074219,3.1108398-7.6513672,4.8764648-13.8730469,4.8764648-10.0898438,0-16.8994141-4.8764648-16.8994141-12.190918,0-7.0625,6.3896484-11.2661133,16.9833984-11.2661133,2.7744141,0,5.296875.1679688,7.8193359.5883789q-.1689453-2.942627-.3369141-8.5756836-2.1015625.0839844-4.0351562.0839844c-5.7167969,0-7.2304688-.1679688-9.8369141-1.2609863-2.9423828-1.1772461-4.7919922-3.9516602-4.7919922-7.3146973,0-3.1108398,1.0078125-5.2126465,3.9511719-8.4077148l6.3896484,3.53125c-1.4287109,1.3452148-1.9335938,2.1020508-1.9335938,3.1948242,0,1.9338379,1.9335938,2.6064453,6.9785156,2.6064453,1.0087891,0,1.7646484,0,2.9423828-.0839844-.1679688-5.5490723-.1679688-6.3898926-.1679688-11.6025391q-6.0537109.3364258-21.6074219.3364258h-2.2705078c-.1679688,0-.3359375,0-2.8583984.0839844l-.2519531-8.3234863c5.1289062.1682129,7.3144531.1682129,14.2089844.1682129,3.9511719,0,9.8359375-.0842285,12.7792969-.3364258,0-7.8190918-.1679688-11.2661133-.9248047-14.7973633l10.0048828.5043945c.8408203.0842285,1.2617188.4204102,1.2617188.9248047,0,.588623-.2529297.9248047-1.5136719,1.6816406,0,3.1948242-.0839844,5.6330566-.1679688,11.0979004,6.3046875-.6726074,13.1152344-1.9335938,18.8320312-3.5310059l.9257812,8.3234863c-6.3066406,1.4291992-14.7138672,2.7744141-19.7578125,3.1948242v.3361816q0,1.4294434.0839844,5.5490723.0839844,3.1950684.0839844,5.3808594c6.7255859-1.4291992,10.1728516-2.6062012,15.2167969-5.4648438l2.6914062,7.482666c-5.7167969,2.942627-11.0976562,4.708252-17.65625,5.8012695.0839844,1.2612305.2519531,4.7924805.5039062,9.5004883l.0839844,2.5224609Zm-17.3183594,3.951416c-5.0449219,0-7.6513672,1.3452148-7.6513672,3.8676758,0,2.942627,2.8583984,4.708252,7.6513672,4.708252,4.2871094,0,6.8935547-1.4294434,7.9023438-4.119873.2519531-.7565918.6728516-3.2788086.5039062-3.3630371-2.4375-.6726074-5.4648438-1.0930176-8.40625-1.0930176Z"/>
          <path class="cls-2" d="m575.6172997,211.4591428c1.09375,0,1.765625.5046387,1.765625,1.1772461s-.3359375,1.0930176-1.5126953,2.0178223c0,3.0266113,0,5.4648438-.0839844,6.9782715v5.8012695c15.2177734-.6726074,20.4306641-1.0090332,26.9882812-1.8498535v8.9960938h-10.4248047q-3.6162109,0-16.5634766.5046387v15.0495605c.3359375,4.0356445.4208984,5.3808594.4208984,6.9782715,0,16.9833984-9.3330078,26.5681152-30.6044922,31.276123-1.0087891-3.2788086-2.2705078-5.8010254-4.0361328-8.1552734,8.2402344-1.8496094,10.5097656-2.5222168,14.3769531-4.2038574,5.5498047-2.4382324,7.9882812-4.6240234,9.8378906-8.7438965-1.765625,1.1772461-2.6064453,1.4294434-5.1289062,1.4294434-7.734375,0-12.6113281-5.2126465-12.6113281-13.536377,0-8.4074707,4.9609375-14.2927246,12.0234375-14.2927246,2.6894531,0,4.875.5043945,6.9775391,1.8496094.0839844-1.5134277.0839844-2.354248.0839844-2.942627,0-.2521973,0-3.4472656-.0839844-4.4560547-15.8896484.4204102-31.9482422,1.177002-38.0869141,1.8496094l-.5878906-9.3325195c4.7929688.2524414,6.8945312.3364258,10.1738281.3364258,8.40625,0,16.7304688-.1682129,28.5009766-.5043945l-.0839844-5.5490723c0-6.2216797-.1679688-8.8278809-.5888672-11.013916l9.2480469.3361816Zm-14.1240234,36.4050293c-3.4472656,0-5.8857422,2.8583984-5.8857422,6.894043s2.4384766,6.8103027,6.0537109,6.8103027c3.2783203,0,5.5488281-2.7746582,5.5488281-6.8942871,0-4.0356445-2.3544922-6.8100586-5.7167969-6.8100586Z"/>
          <path class="cls-2" d="m635.3965966,270.7328245v11.2661133h-11.265625v-11.2661133h11.265625Zm-.1679688-52.7998047l-1.4296875,43.8876953h-8.1552734l-1.4287109-43.8876953h11.0136719Z"/>
        </g>
        <rect class="cls-4" y="102.4934866" width="558.9134459" height="91.2832615"/>
        <g>
          <path class="cls-2" d="m45.4307763,117.5458128c.9248047.420166,1.4287109,1.0087891,1.4287109,1.5974121,0,.7565918,0,.8405762-2.5214844,1.4291992-7.5673828,15.3859863-15.5546875,25.6430664-26.3164062,33.8825684-2.6054688-4.4560547-3.2792969-5.296875-5.4648438-7.2304688,11.3505859-8.7438965,18.2441406-17.8242188,25.0546875-32.9577637l7.8193359,3.2790527Zm32.2851562,68.017334c-1.6816406-2.5222168-3.3632812-5.1286621-5.1289062-7.6508789-5.9697266,1.0930176-8.9960938,1.5134277-23.2890625,3.4470215q-4.2880859.6726074-15.2177734,1.8496094c-4.203125.5046387-5.2128906.588623-11.1816406,1.3452148-.9257812,1.1772461-1.1777344,1.5134277-1.6816406,1.5134277-.6728516,0-1.09375-.4204102-1.4296875-1.5134277l-3.3632812-8.8278809c3.8681641-.1682129,7.7353516-.3361816,11.5195312-.588623,4.2871094-7.3986816,5.6328125-10.2570801,9.8359375-19.5895996,3.9511719-8.9121094,4.625-10.6777344,6.3066406-15.8903809l8.7431641,4.2038574c.5048828.2521973.8408203.8408203.8408203,1.3452148,0,.7565918-.7568359,1.2609863-2.3535156,1.5134277-6.4746094,14.0405273-9.921875,21.0187988-13.8730469,27.6608887,1.4296875-.0839844,2.9423828-.1682129,4.6240234-.3361816,11.7705078-1.0090332,13.5361328-1.1772461,25.3916016-2.7746582-3.1113281-3.7834473-6.8945312-7.0622559-10.5097656-10.3413086l5.8847656-5.1286621c10.0058594,8.0712891,15.3027344,13.8725586,22.2802734,24.2138672l-7.3984375,5.5490723Zm-16.4794922-73.0620117c3.4472656,8.239502,6.8105469,13.8725586,11.6875,19.5895996,4.7919922,5.6333008,9.2480469,9.2485352,16.9824219,13.7045898-3.2783203,2.5222168-4.7919922,4.2036133-6.6416016,7.482666-8.0712891-5.3808594-12.8642578-9.8369141-18.0761719-16.6469727-5.296875-6.8942871-8.3232422-12.6955566-11.3505859-21.7756348l7.3984375-2.354248Z"/>
          <path class="cls-2" d="m101.8458154,168.5797483c0,8.9121094.0839844,15.4699707.3369141,19.6738281h-8.0712891c.1679688-4.7922363.2519531-11.013916.2519531-19.6738281v-48.2595215c0-2.6904297-.0839844-5.9694824-.2519531-7.4829102,2.5224609.1682129,4.9609375.1682129,8.4921875.1682129h14.2089844c3.8671875,0,6.5566406,0,9.3320312-.1682129-.1679688,1.5134277-.2519531,4.7924805-.2519531,7.4829102v13.6203613c0,3.951416.0839844,6.8100586.2519531,8.7438965h-7.6513672v-2.6064453h-16.6474609v28.501709Zm16.6474609-49.1003418h-16.6474609v4.1196289h16.6474609v-4.1196289Zm0,10.005127h-16.6474609v4.1196289h16.6474609v-4.1196289Zm7.5673828,38.1704102c-.7568359,4.7922363-2.2705078,7.9873047-5.0449219,11.0979004-3.0273438,3.4472656-5.8847656,5.3808594-11.4345703,7.8190918-1.0927734-2.942627-2.6064453-5.1286621-4.3720703-6.5578613,5.4648438-2.3540039,8.0722656-4.1196289,10.2578125-7.0622559,1.2607422-1.5974121,2.0175781-3.1108398,2.5214844-5.296875h-3.2783203c-2.5224609,0-6.0537109.0839844-8.4072266.1682129v-7.4829102c2.3535156.0842285,5.8847656.1682129,8.4072266.1682129h3.9521484v-7.1464844h-1.4296875c-2.5224609,0-6.0537109.0842285-8.4082031.1682129v-7.3986816c2.3544922.0839844,5.8857422.1682129,8.4082031.1682129h25.8945312c2.5234375,0,6.0546875-.0842285,8.4082031-.1682129v7.3986816c-2.3535156-.0839844-5.8847656-.1682129-8.4082031-.1682129h-.7558594v7.1464844h3.7832031c2.5224609,0,6.0537109-.0839844,8.4082031-.1682129v7.4829102c-2.3544922-.0842285-5.8857422-.1682129-8.4082031-.1682129h-3.7832031v3.53125c0,6.3056641.0839844,11.6865234.2519531,14.7131348h-8.4082031c.1689453-3.2788086.2529297-7.9030762.2529297-14.7131348v-3.53125h-8.4072266Zm.5039062-7.1464844h7.9033203v-7.1464844h-7.9033203v7.1464844Zm15.5546875-17.8239746h-7.5673828c.1679688-1.9338379.2529297-4.7924805.2529297-8.7438965v-13.6203613c0-2.6904297-.0849609-5.9694824-.2529297-7.4829102,2.6904297.1682129,5.3808594.1682129,9.2490234.1682129h14.2929688c3.5302734,0,5.8847656,0,8.40625-.1682129-.0839844,1.5134277-.2519531,4.7924805-.2519531,7.4829102v42.5424805q0,2.185791.2519531,13.2839355c.0849609,1.177002.0849609,1.9338379.0849609,2.2700195,0,4.2038574-.7568359,6.1374512-2.8583984,7.5668945-2.4384766,1.5134277-5.0449219,1.9335938-13.0322266,1.9335938-.1679688-2.942627-.5048828-5.0444336-1.5966797-8.9118652,2.7734375.2521973,4.1191406.3361816,6.3886719.3361816,2.9433594,0,3.3632812-.4204102,3.3632812-3.2790527v-35.984375h-16.7304688v2.6064453Zm16.7304688-23.2050781h-16.7304688v4.1196289h16.7304688v-4.1196289Zm0,10.005127h-16.7304688v4.1196289h16.7304688v-4.1196289Z"/>
          <path class="cls-2" d="m180.7940576,158.5746213c.6728516.0842285,1.0087891.4204102,1.0087891.9250488,0,.420166-.0839844.6726074-.5039062.9248047l-.8417969.5043945c-.7558594,9.248291-2.0175781,15.9743652-4.0351562,21.6916504-2.9423828-1.765625-3.8671875-2.1860352-6.6425781-3.1108398,2.5234375-7.0625,3.53125-12.779541,3.8681641-22.3642578l7.1464844,1.4291992Zm-10.8457031-12.5270996c2.9423828-.0842285,5.5488281-.0842285,7.9033203-.1682129,1.5976562-2.1860352,3.1953125-4.3720703,4.6240234-6.5578613-4.4560547-4.2038574-7.2304688-6.3059082-12.4433594-9.8369141l3.6152344-5.8012695c1.1767578.6726074,2.2705078,1.4291992,3.3632812,2.1018066,2.8583984-4.9604492,5.8857422-11.5183105,7.0615234-15.3017578l7.2304688,3.0268555c.4208984.1679688.8417969.7565918.8417969,1.0927734,0,.5046387-.5888672.9248047-1.765625,1.1772461-2.7753906,5.717041-5.3808594,10.6774902-7.5673828,14.0405273,1.2607422,1.0090332,2.6064453,2.0178223,3.7841797,3.1108398,2.4375-4.0356445,4.2871094-7.5668945,5.8007812-11.2661133l7.1464844,3.3630371c.5039062.2521973.9248047.7565918.9248047,1.177002,0,.588623-.5888672.9248047-1.8496094,1.2612305-5.8017578,9.8369141-8.0712891,13.4521484-11.5185547,17.9921875,2.5224609-.1682129,5.0449219-.5043945,7.6503906-.7565918-.671875-1.5134277-1.3447266-2.7746582-2.1855469-4.119873l5.4648438-3.1108398c3.3632812,5.5490723,5.0449219,9.2485352,7.0625,14.7133789l-6.5576172,2.942627c-.5888672-1.6813965-1.0927734-3.1948242-1.5136719-4.4560547-2.0175781.3364258-3.9521484.588623-5.9697266.9248047v19.0852051c0,7.7351074.0839844,13.536377.2519531,17.2355957h-8.5751953c.1689453-3.6992188.2529297-9.5004883.2529297-17.2355957v-17.8239746c-2.7753906.3361816-5.6337891.7565918-8.2402344,1.0930176-.671875.8408203-1.0087891,1.177002-1.4296875,1.177002-.5039062,0-1.0078125-.5043945-1.1757812-1.177002l-2.1865234-7.9030762Zm28.921875,10.5935059c2.9423828,4.708252,4.1201172,7.482666,7.2304688,17.2355957l-7.5664062,3.1108398c-2.3544922-9.9211426-3.1953125-12.4433594-5.8017578-17.5720215l6.1376953-2.7744141Zm43.046875-31.6125488c-2.8583984,6.5578613-6.0537109,13.0317383-10.6777344,18.496582,4.7080078,3.7834473,9.8369141,6.7260742,18.4130859,10.3415527-2.1855469,2.8583984-2.9433594,4.2036133-4.3720703,7.2304688-6.8945312-3.1948242-13.6201172-6.9782715-19.2529297-12.1069336-5.5498047,5.2126465-10.59375,8.4916992-20.2626953,13.2839355-1.5136719-3.1948242-1.8496094-3.8674316-3.9521484-6.3898926,8.9121094-4.2036133,13.9570312-7.482666,19.1699219-12.6113281-1.765625-2.2700195-3.3632812-4.6240234-4.7089844-6.894043-.671875-1.1772461-1.2607422-2.354248-1.9335938-3.6154785-2.2695312,3.0268555-5.0439453,6.0534668-8.5751953,9.4165039-1.5976562-2.5222168-2.2705078-3.1948242-5.3808594-5.9692383,8.6591797-7.7351074,13.0322266-14.3769531,17.2353516-26.315918l7.5664062,2.942627c.4208984.1682129.5888672.4204102.5888672.8408203,0,.588623-.3359375.7568359-1.8496094,1.1772461-.5888672,1.5131836-1.2607422,3.0266113-1.8496094,4.5400391h15.3017578l1.2617188-1.5974121,4.7080078,4.708252c.4199219.4204102.5888672.9248047.5888672,1.4291992s-.4208984.8408203-1.4296875,1.0087891l-.5888672.0842285Zm-28.0810547,43.8034668c12.4433594,4.0356445,17.65625,6.3056641,27.2402344,12.1069336l-4.4560547,6.9782715c-11.0976562-6.6418457-14.2919922-8.2392578-26.1474609-12.5270996l3.3632812-6.5581055Zm6.8945312-14.2929688c5.7167969,2.1020508,11.9384766,5.296875,17.3193359,9.0803223l-4.3720703,6.3056641c-7.2304688-5.0444336-8.828125-5.8852539-16.4785156-9.248291l3.53125-6.1376953Zm-1.9335938-27.9970703c1.9335938,4.1196289,4.203125,7.9870605,6.9775391,11.5183105,2.8583984-3.53125,5.2128906-7.3986816,7.1464844-11.5183105h-14.1240234Z"/>
          <path class="cls-2" d="m319.0157372,123.6832639c-8.1552734,7.2304688-17.1513672,13.2839355-26.6523438,18.5808105,0,2.1018066-.0839844,5.5488281-.0839844,12.1069336v8.4916992c0,3.0266113.0839844,8.8278809.1679688,14.7973633v.8405762c0,4.2878418-.671875,6.1376953-2.8583984,7.4829102-2.3544922,1.5134277-5.0439453,1.9335938-12.7792969,1.9335938h-2.1865234c-.1679688-4.5400391-.2519531-5.5488281-1.3447266-8.8278809,2.8583984.1682129,4.0361328.2521973,5.1279297.2521973,2.4394531,0,4.1210938-.1682129,4.8769531-.588623.6728516-.3361816.7568359-.6723633.7568359-2.7744141v-21.6074219c0-8.9121094-.3369141-17.5720215-.6728516-19.7578125l7.5664062.5043945c5.4658203-3.2790527,10.7617188-6.8942871,15.4707031-11.013916h-41.8701172c-3.5302734,0-8.5751953.0839844-11.7705078.1682129v-8.1555176c3.1953125.1682129,8.2402344.2521973,11.7705078.2521973h50.7822266l1.0927734-1.177002,5.7177734,5.2126465c.4199219.4204102.7558594.9248047.7558594,1.4294434,0,.5883789-.671875,1.177002-1.5136719,1.3452148l-2.3535156.5043945Z"/>
          <path class="cls-2" d="m348.2755029,120.4042112c.9238281.2521973,1.5126953.7568359,1.5126953,1.4294434,0,.9248047-.5888672,1.4291992-2.2705078,2.0178223-3.1943359,17.7399902-3.6152344,21.8596191-3.6152344,31.7805176,0,9.9211426,1.09375,16.7312012,4.2050781,25.138916-3.6152344,1.0927734-5.7177734,1.8496094-8.5761719,3.1948242-2.9433594-8.0712891-4.2880859-16.9833984-4.2880859-28.3337402,0-9.0800781.5888672-15.1335449,3.2783203-32.2009277.3369141-2.0178223.5048828-2.942627.5898438-4.7924805l9.1640625,1.765625Zm19.2529297,35.4799805c-2.3544922,3.1108398-3.0263672,4.7084961-3.0263672,6.5581055,0,4.3718262,4.9599609,6.2216797,16.7304688,6.2216797,7.8193359,0,13.2841797-.6728516,19.9257812-2.354248-.671875,4.0356445-1.0078125,6.8100586-1.0927734,9.9208984-5.4648438.8408203-11.9384766,1.2612305-18.2441406,1.2612305-7.2304688,0-12.9482422-.588623-16.6474609-1.8496094-6.0527344-2.0178223-9.0800781-5.9694824-9.0800781-11.8547363,0-3.9516602,1.1777344-6.7260742,4.9609375-11.8547363l6.4736328,3.951416Zm-9.5009766-26.3996582c9.921875-2.6064453,16.4794922-3.4472656,25.8115234-3.4472656,5.2128906,0,8.9960938.2521973,14.5458984.9250488l-1.3457031,8.2392578c-1.5136719-.0839844-2.6904297-.1679688-3.4472656-.2521973-5.2128906-.4204102-7.6503906-.5043945-12.2753906-.5043945-8.2392578,0-12.6113281.6726074-21.4394531,3.4470215l-1.8496094-8.4074707Z"/>
          <path class="cls-2" d="m404.5215966,141.5914671c4.4570312-1.5134277,4.9609375-1.765625,16.3115234-6.5578613,15.6376953-6.7260742,22.3642578-8.5759277,31.5283203-8.5759277,15.6386719,0,24.5507812,8.0712891,24.5507812,22.1120605,0,9.3325195-4.0361328,17.0673828-11.7714844,22.1960449-4.4550781,3.0266113-12.1914062,6.2216797-20.4296875,8.4074707-2.859375.7568359-6.1386719,1.4294434-12.4433594,2.6064453-1.0097656-3.6992188-1.6816406-5.3808594-3.7832031-9.3325195,27.4082031-3.5310059,39.1787109-10.6774902,39.1787109-23.7092285,0-9.0803223-5.3808594-14.0407715-15.3857422-14.0407715-8.5761719,0-16.5625,2.6904297-32.7050781,11.013916q-4.5410156,2.354248-10.6777344,5.4650879l-4.3730469-9.5847168Z"/>
          <path class="cls-2" d="m532.6544091,124.6080686c-6.5576172,2.6904297-8.7441406,3.4470215-13.9570312,4.9604492,1.1777344,3.1948242,2.859375,7.2304688,3.9521484,9.3325195,4.6240234-1.5974121,9.6689453-4.0356445,14.2929688-6.8942871l3.8671875,7.2304688c-5.6328125,3.1108398-8.0712891,4.2038574-14.7978516,6.7260742,3.3632812,6.473877,7.2314453,12.1911621,12.1074219,18.1604004l-6.2216797,5.296875c-6.6416016-4.708252-11.5185547-6.3898926-18.2441406-6.3898926-7.3144531,0-11.4345703,2.7746582-11.4345703,7.8190918,0,4.9604492,4.9609375,7.2307129,15.890625,7.2307129,3.6152344,0,5.8007812-.1682129,10.6777344-.7568359-1.2617188,2.942627-1.8496094,6.2216797-1.8496094,9.3325195-3.2792969.0839844-4.7089844.0839844-7.2304688.0839844-8.5761719,0-13.2001953-.6726074-17.4882812-2.4382324-5.4648438-2.3540039-8.828125-7.3986816-8.828125-13.1157227,0-9.1643066,7.9033203-15.2177734,20.0097656-15.2177734,3.53125,0,6.5585938.5043945,10.1738281,1.5974121-1.5976562-2.4382324-4.6240234-7.9030762-5.296875-9.0800781-5.0449219,1.5131836-10.7617188,2.5222168-13.9570312,2.5222168-6.1367188,0-9.2480469-2.4382324-9.2480469-7.4829102,0-1.8496094.3359375-3.1948242,1.4296875-5.8852539l7.3984375,1.5134277c-.5878906,1.177002-.7568359,1.765625-.7568359,2.4382324,0,1.0087891.4208984,1.4291992,1.6816406,1.4291992,2.1865234,0,5.9697266-.6726074,9.9208984-1.765625-.7558594-1.5974121-2.9423828-6.7260742-4.0351562-9.5004883-4.2041016,1.0930176-10.9296875,2.1860352-21.4394531,3.6152344l-1.5976562-8.239502c7.8183594-.6726074,16.8144531-1.9335938,20.5986328-2.8583984-.1689453-.4204102-1.0087891-3.2790527-1.5136719-4.9606934-1.4287109-4.708252-2.1855469-7.1462402-2.2705078-7.3986816l9.5859375-.6726074c.7558594-.0839844,1.2607422.5046387,1.2607422,1.0090332q0,.5883789-1.2607422,1.6813965c.5878906,2.7746582,1.3447266,5.4650879,2.1855469,8.239502,4.0351562-1.177002,7.9023438-2.6904297,12.8632812-5.0444336l3.53125,7.482666Z"/>
        </g>
      </g>
      <g>
        <rect class="cls-3" x=".3067529" y="303.334387" width="511" height="62"/>
        <g>
          <path class="cls-1" d="m25.2569482,331.7911741c-1.4208984,0-3.2705078.032959-4.625.065918v-3.1381836c1.2548828.065918,3.1386719.0991211,4.625.0991211h11.4306641c1.3212891,0,3.46875-.0332031,4.625-.0991211v3.1381836c-1.2226562-.032959-3.3701172-.065918-4.625-.065918h-3.0722656c.5283203,1.5195312,1.2226562,3.0061035,2.1132812,4.3605957,2.5771484-1.5527344,4.2285156-2.8078613,5.8144531-4.2614746l2.7089844,1.8830566c.2314453.1650391.3632812.2971191.3632812.3962402,0,.2644043-.1972656.3303223-.9570312.3635254-2.3125,1.5524902-3.3378906,2.2133789-3.9980469,2.5766602l-2.2460938,1.3215332c.1318359.1982422.296875.3632812.4628906.5615234,2.2460938,2.6098633,4.3925781,4.1293945,8.8203125,6.4089355-1.2558594,1.255127-1.71875,1.8168945-2.2460938,2.9399414-4.5927734-2.7749023-6.8066406-4.5917969-9.0195312-7.4990234-2.1142578-2.7419434-3.4023438-5.3186035-4.4589844-8.8864746-.7597656.5947266-1.5527344,1.15625-2.3457031,1.6848145,3.6992188,3.2045898,5.21875,6.5080566,5.21875,11.1989746,0,2.7089844-.6269531,4.4597168-1.9160156,5.3518066-.9902344.6936035-2.2128906.8918457-5.9453125.8918457-.0664062-1.2883301-.1992188-1.8828125-.7275391-3.501709,1.0908203.0661621,1.6513672.0661621,2.3457031.0661621,1.2216797,0,1.7841797-.1652832,2.2138672-.6276855.4619141-.5615234.7265625-1.8168945.7265625-3.501709,0-.2312012,0-.4294434-.0332031-.6606445-3.765625,2.510498-7.796875,4.3273926-13.8417969,6.2766113-.3964844-1.2224121-.7265625-1.8500977-1.3544922-2.8081055,5.9794922-1.7507324,9.6455078-3.4025879,14.4033203-6.4086914-.0996094-.2973633-.2314453-.5617676-.3632812-.8588867-.1328125-.2644043-.2314453-.4956055-.3632812-.6938477-3.5683594,2.3125-6.6074219,3.6999512-11.8271484,5.5500488-.5283203-1.3544922-.7919922-1.8171387-1.4863281-2.6430664,5.2529297-1.6516113,8.2587891-2.9069824,11.7939453-5.0874023l-1.0898438-1.189209c-2.4453125,1.4206543-5.2207031,2.6428223-8.7226562,3.9643555-.4619141-1.15625-.6933594-1.5197754-1.6181641-2.7419434,4.4267578-1.3215332,7.5654297-2.6098633,10.6376953-4.4267578h-1.4208984Zm13.7763672-7.7963867c2.2460938,0,4.8222656-.0661621,6.5410156-.1320801-.0332031,1.189209-.0664062,1.7839355-.0664062,2.5107422v1.6186523c0,.8259277.0332031,1.8168945.0996094,2.8740234h-3.3378906c.0332031-.9580078.0664062-2.1142578.0664062-2.8740234v-1.0900879h-22.8603516v1.0900879c0,.7597656.0664062,1.9160156.0986328,2.8740234h-3.3359375c.0664062-1.0571289.0996094-2.0480957.0996094-2.8740234v-1.6186523c0-.7268066-.0332031-1.3215332-.0664062-2.5107422,1.6845703.065918,4.2949219.1320801,6.5410156.1320801h6.5410156v-1.2883301c0-.6938477-.0332031-1.4206543-.0332031-2.1142578l3.2373047.2312012c.3964844.032959.6279297.1320801.6279297.3303223s-.1982422.3964844-.6279297.6606445l-.0322266,2.1804199h6.5078125Z"/>
          <path class="cls-1" d="m61.9590966,345.765051c.1992188.0991211.3632812.2973633.3632812.4624023,0,.2644043-.2636719.3635254-.9570312.3964844-3.8984375,2.345459-6.9042969,3.6008301-10.96875,4.592041-.59375-1.6848145-.7919922-2.0812988-1.4863281-3.0722656,4.5263672-1.0241699,7.4335938-2.0812988,10.4394531-3.8652344l2.609375,1.4865723Zm16.5175781-1.7839355c-1.75-.065918-4.5585938-.1320801-6.5732422-.1320801h-15.8564453c-1.8173828,0-4.7910156.0661621-6.5742188.1320801v-3.3034668c1.6835938.0661621,4.6582031.1320801,6.5742188.1320801h15.8564453c2.0810547,0,4.8896484-.065918,6.5732422-.1320801v3.3034668Zm-21.0097656-3.9641113h-3.3691406c.0654297-1.3215332.0986328-3.2375488.0986328-5.78125v-7.003418c0-1.9821777-.0332031-4.2285156-.0986328-5.2526855.8916016.032959,1.6835938.032959,2.8076172.032959h14.171875c1.1240234,0,1.9160156,0,2.8076172-.032959q-.0654297,1.0571289-.0986328,5.2526855v6.8713379c0,2.6428223.0332031,4.5588379.0986328,5.814209h-3.3359375v-1.0571289h-13.0820312v1.15625Zm13.0820312-15.03125h-13.0820312v1.8500977h13.0820312v-1.8500977Zm-13.0820312,6.3759766h13.0820312v-1.7180176h-13.0820312v1.7180176Zm13.0820312,2.8078613h-13.0820312v1.7509766h13.0820312v-1.7509766Zm-2.1474609,10.2080078c3.6669922,1.5527344,5.6162109,2.1801758,10.9677734,3.534668-.859375,1.2224121-1.15625,1.7509766-1.8164062,3.0393066-4.2285156-1.0900879-7.9951172-2.5437012-11.0341797-4.3276367l1.8828125-2.2463379Z"/>
          <path class="cls-1" d="m100.3467919,335.8544065c0,1.8500977-1.4863281,3.3366699-3.3369141,3.3366699-1.8496094,0-3.3359375-1.4865723-3.3359375-3.3366699,0-1.8498535,1.4863281-3.3364258,3.3359375-3.3364258,1.8505859,0,3.3369141,1.4865723,3.3369141,3.3364258Z"/>
          <path class="cls-1" d="m128.2286279,331.4276487h-4.1289062c-1.0898438,0-2.9394531.0332031-3.9648438.0661621v-3.3366699c.9921875.0332031,2.7089844.0661621,3.9648438.0661621h11.859375c1.2558594,0,2.9736328-.032959,3.9648438-.0661621v3.3366699c-1.0244141-.032959-2.875-.0661621-3.9648438-.0661621h-4.1289062v9.5141602h6.9707031c1.5195312,0,3.8652344-.032959,5.2851562-.0991211v3.435791c-1.4199219-.0661621-3.765625-.1320801-5.2851562-.1320801h-17.5419922c-1.6845703,0-3.8652344.065918-5.2529297.1320801v-3.435791c1.3876953.0661621,3.5683594.0991211,5.2529297.0991211h6.9697266v-9.5141602Z"/>
          <path class="cls-1" d="m149.6036279,324.5233518h2.90625c.9921875,0,4.8242188-.1320801,7.6972656-.2312012l13.4785156-.5285645.4960938-.4956055,2.5429688,2.4445801c.2324219.1982422.2978516.3303223.2978516.4956055q0,.2641602-.7929688.4956055c-.5615234,1.5524902-2.0478516,3.8320312-3.7333984,5.7810059-1.0566406,1.1894531-2.1464844,2.2133789-3.6992188,3.402832-.9257812-1.6188965-1.0898438-1.8500977-2.0488281-2.7751465,2.6103516-2.0151367,4.2617188-3.7990723,5.5507812-6.0124512l-11.8925781.5947266c-5.1875.1982422-6.6738281.2973633-9.9443359.5947266l-.8583984-3.7661133Zm15.7246094,5.7150879c.2636719.032959.5283203.2312012.5283203.4624023,0,.2314453-.1650391.3964844-.5947266.6938477-.4296875,7.0366211-1.2880859,10.1748047-3.765625,13.6105957-1.2558594,1.7839355-2.6757812,3.2043457-4.3945312,4.4597168-.6601562.4956055-1.15625.8259277-1.453125,1.0571289-.9580078-1.6518555-1.3535156-2.1142578-2.4111328-2.8081055,6.3427734-4.2285156,8.4570312-8.4899902,8.4570312-17.0461426,0-.1982422-.0332031-.3632812-.0664062-.6936035l3.7001953.2641602Z"/>
          <path class="cls-1" d="m202.8233544,331.0973264h-13.1474609c-1.1230469,0-2.875.0332031-3.9648438.0661621v-3.5349121c.9912109.0332031,2.609375.0661621,3.9648438.0661621h14.0722656c1.1230469,0,1.9824219,0,2.8085938-.032959q-.0332031,1.0571289-.0996094,5.2524414v7.1687012c0,2.6428223.0332031,4.5588379.0996094,5.814209h-3.7333984v-1.5524902h-13.3789062c-1.0908203,0-2.9736328.032959-3.9638672.065918v-3.534668c.9902344.032959,2.6757812.065918,3.9638672.065918h13.3789062v-9.8444824Z"/>
          <path class="cls-1" d="m219.7715966,325.910803c3.4355469,1.7839355,4.6904297,2.7089844,6.9697266,5.2197266l-2.6103516,2.8740234c-2.3779297-2.6428223-4.0957031-4.0302734-6.5410156-5.3518066l2.1816406-2.7419434Zm-1.2558594,18.6318359c4.9882812-2.1142578,7.8291016-3.7329102,11.5957031-6.5739746,4.3925781-3.3696289,6.9707031-5.979248,10.3730469-10.604248.6601562,1.15625,1.2226562,1.8830566,2.2792969,3.1384277-4.3613281,5.2524414-6.8056641,7.6640625-10.6699219,10.5712891-3.2382812,2.4445801-5.6826172,3.9311523-10.3740234,6.3095703-.1318359.4626465-.2646484.6938477-.4951172.6938477-.1660156,0-.4296875-.1652832-.5625-.3964844l-2.1464844-3.1384277Z"/>
          <path class="cls-1" d="m265.5255029,335.8544065c0,1.8500977-1.4863281,3.3366699-3.3369141,3.3366699s-3.3369141-1.4865723-3.3369141-3.3366699c0-1.8498535,1.4863281-3.3364258,3.3369141-3.3364258s3.3369141,1.4865723,3.3369141,3.3364258Z"/>
          <path class="cls-1" d="m286.0411279,344.5426389c.2304688.0991211.3300781.1982422.3300781.3635254,0,.1982422-.1328125.2973633-.5625.4294434-1.2871094,2.8740234-2.2460938,4.1955566-4.2617188,5.9794922-.7597656-1.090332-1.0234375-1.3544922-2.1796875-2.0153809,1.9824219-1.6516113,3.3359375-3.6999512,4.0302734-6.012207l2.6435547,1.255127Zm-.6943359-1.9819336h-3.1054688c.0664062-1.3215332.0986328-3.2375488.0986328-5.814209v-8.9526367c0-1.9821777-.0322266-4.2285156-.0986328-5.2526855.6279297.0332031,1.1894531.0332031,1.9492188.0332031h5.3847656c.7929688,0,1.3544922,0,1.9492188-.0332031q-.0332031,1.0571289-.0986328,5.2526855v7.3007812c0,3.0722656.0322266,4.9553223.0986328,6.2436523h-3.1054688v-1.4536133h-3.0722656v2.6760254Zm3.0722656-12.9499512v-4.0964355h-3.0722656v4.0964355h3.0722656Zm-3.0722656,7.3339844h3.0722656v-4.3937988h-3.0722656v4.3937988Zm5.4179688,6.7060547c1.4208984,1.9160156,2.4443359,3.7990723,3.4677734,6.3098145l-2.9394531,1.4204102c-1.1894531-3.0061035-1.9492188-4.690918-2.9726562-6.4748535l2.4443359-1.2553711Zm17.0126953-21.8032227l1.8828125,1.7507324c.2324219.2314453.2646484.2973633.2646484.4294434,0,.2314453-.1982422.3964844-.5615234.4956055l-.2314453.0661621c-.4951172,3.1713867-.6611328,3.8320312-1.3544922,5.1203613-.9580078,1.8500977-2.2792969,2.3125-6.8046875,2.345459-.1328125-1.0571289-.2978516-1.7507324-.7929688-3.3696289.7929688.0661621,1.4863281.0991211,2.3125.0991211,1.6513672,0,2.1464844-.1650391,2.5429688-.8588867.3632812-.6276855.6289062-1.3874512.859375-2.7087402h-5.2519531c-.8925781,2.9399414-2.5771484,5.5827637-4.9560547,7.5319824.7597656.032959,1.5527344.032959,2.3125.032959h7.4658203c1.1230469,0,1.9160156,0,2.7753906-.065918-.0332031.1650391-.0332031.8256836-.0664062,1.9160156v5.2194824c0,.6606445.0332031,1.8168945.0664062,2.3786621h-3.1054688v-.8591309h-6.8378906v1.3215332h-3.0722656c.0332031-.7597656.0654297-2.3125.0654297-3.1384277v-4.0632324c-.0322266-.7929688-.0322266-1.5856934-.0654297-2.3786621-.7265625.5617676-1.5195312,1.15625-2.4121094,1.7509766-.3632812-1.123291-.6933594-1.7509766-1.3212891-2.7089844,3.4033203-2.2463379,4.8564453-3.8981934,5.9794922-6.9372559-1.4199219.065918-2.8740234.065918-4.2949219.0991211v-2.9733887c1.2890625.0332031,3.2382812.0661621,4.625.0661621h9.546875l.4296875-.5615234Zm-9.8769531,21.4729004c1.7832031,1.9489746,2.8076172,3.4355469,4.2285156,6.1115723l-2.8085938,1.7839355c-1.2548828-2.6098633-2.2792969-4.2946777-3.6660156-6.2436523l2.2460938-1.6518555Zm7.234375-4.7241211v-3.0393066h-6.8378906v3.0393066h6.8378906Zm.1982422,4.592041c2.2138672,1.6848145,4.0966797,3.7658691,5.6826172,6.2104492l-2.6435547,1.8171387c-1.8173828-2.7751465-3.3701172-4.6582031-5.1865234-6.2768555l2.1474609-1.7507324Z"/>
          <path class="cls-1" d="m317.5567529,344.1463987h-3.2050781c.0664062-1.2553711.0996094-3.2045898.0996094-5.814209v-10.1088867q-.0332031-4.1955566-.0996094-5.2526855c.6279297.0332031,1.1894531.0661621,1.9492188.0661621h7.1689453c.7597656,0,1.3212891-.032959,1.9492188-.0661621-.0664062,1.0571289-.0986328,3.2705078-.0986328,5.2526855v8.4899902c0,2.7751465.0322266,4.5258789.0986328,5.814209h-3.2373047v-1.2883301h-4.625v2.9072266Zm4.625-13.7758789v-4.3935547h-4.625v4.3935547h4.625Zm-4.625,7.9284668h4.625v-4.9882812h-4.625v4.9882812Zm13.6757812,1.6188965c-.1640625,1.0900879-.4287109,2.0151367-.7597656,3.0061035-1.1894531,3.5349121-2.9726562,5.5830078-7.1347656,8.2919922-.6611328-1.3215332-.9912109-1.7509766-1.9492188-2.6098633,5.5498047-3.46875,7.0039062-6.4748535,7.0039062-14.5686035v-6.5410156c0-1.9489746-.0664062-4.2285156-.1328125-5.2526855.6279297.0332031,1.1894531.0332031,1.9824219.0332031h9.5136719c.7929688,0,1.3222656,0,1.9492188-.0332031-.0664062,1.0571289-.0996094,3.1713867-.0996094,5.2526855v13.940918c0,1.15625.0332031,3.3696289.0996094,6.3098145v.4294434c0,1.2553711-.296875,1.8830566-1.0898438,2.3125-.9257812.4953613-1.8173828.5944824-5.5175781.6276855q-.0986328-1.4206543-.5605469-3.402832c1.1884766.0991211,1.8496094.1323242,2.7089844.1323242,1.0898438,0,1.2548828-.1982422,1.2548828-1.3874512v-6.5410156h-7.2685547Zm.3310547-5.9465332c0,1.15625-.0332031,2.1804199-.0664062,3.0722656h7.0039062v-4.8891602h-6.9375v1.8168945Zm6.9375-8.8203125h-6.9375v4.1293945h6.9375v-4.1293945Z"/>
          <path class="cls-1" d="m349.8321435,335.5570432c-.59375,1.2224121-1.1230469,2.0812988-2.0478516,3.5019531-.7929688-1.4206543-1.1240234-1.8500977-2.1142578-2.7751465,3.0722656-4.723877,4.9882812-9.348877,6.5078125-15.7246094l3.1386719,1.1230469c.296875.1320801.4628906.2973633.4628906.4956055,0,.2641602-.0996094.3303223-.7929688.5615234-.8925781,3.1713867-1.3554688,4.5258789-2.4785156,7.2016602l.6611328.0332031c.3300781.032959.5283203.1650391.5283203.3303223,0,.1982422-.1982422.3962402-.6269531.6606445-.0332031,1.6518555-.0332031,3.2375488-.0332031,5.6489258v7.8625488c0,2.9731445.0332031,5.3186035.0654297,6.7722168h-3.3701172c.0664062-1.4865723.0996094-3.7329102.0996094-6.7722168v-8.9196777Zm21.4072266,3.7331543c0,1.3544922,0,4.0302734.0654297,7.7631836v.3303223c0,1.6188965-.296875,2.3786621-1.0898438,2.9072266-.9902344.6606445-1.9160156.7927246-6.078125.7927246-.0664062-1.2883301-.0996094-1.5524902-.6279297-3.501709,2.7089844.1320801,2.7744141.1320801,3.2041016.1320801,1.1230469,0,1.2890625-.1650391,1.2890625-1.3874512v-13.8085938h-8.5234375c-1.4199219,0-3.2705078.032959-4.625.0991211v-3.2375488c1.2558594.032959,3.1386719.0661621,4.625.0661621h8.5234375c-.0332031-4.4599609-.0996094-7.1687012-.2314453-8.09375l3.6337891.2312012c.2636719.0332031.4628906.1652832.4628906.3303223,0,.1982422-.1660156.3635254-.5957031.6276855-.0322266,1.0571289-.0322266,1.15625-.0322266,6.904541h.5283203c1.3544922,0,3.46875-.0332031,4.625-.0661621v3.2375488c-1.2226562-.0332031-3.3359375-.0991211-4.625-.0991211h-.5283203v6.7722168Zm-11.2314453-4.6911621c2.0146484,2.3457031,3.0390625,3.7661133,4.9550781,7.0036621l-2.9736328,1.9489746c-1.5859375-2.9731445-2.8740234-5.0874023-4.4599609-7.135498l2.4785156-1.8171387Z"/>
          <path class="cls-1" d="m401.1036279,326.2081663c-2.5771484,1.0571289-3.4355469,1.3544922-5.484375,1.9489746.4628906,1.2553711,1.1230469,2.8410645,1.5527344,3.6669922,1.8173828-.6276855,3.7988281-1.5856934,5.6162109-2.7087402l1.5195312,2.8408203c-2.2138672,1.2224121-3.1708984,1.6518555-5.8134766,2.6428223,1.3203125,2.5437012,2.8398438,4.7902832,4.7558594,7.1357422l-2.4433594,2.0812988c-2.6103516-1.8500977-4.5263672-2.5107422-7.1699219-2.5107422-2.8730469,0-4.4921875,1.0900879-4.4921875,3.0722656,0,1.9489746,1.9492188,2.8410645,6.2441406,2.8410645,1.4199219,0,2.2792969-.0661621,4.1953125-.2973633-.4960938,1.15625-.7265625,2.4445801-.7265625,3.6669922-1.2890625.032959-1.8505859.032959-2.8417969.032959-3.3691406,0-5.1855469-.2644043-6.8710938-.9580078-2.1474609-.9250488-3.46875-2.9072266-3.46875-5.1535645,0-3.6008301,3.1054688-5.979248,7.8623047-5.979248,1.3876953,0,2.5771484.197998,3.9970703.6274414-.6269531-.9580078-1.8164062-3.1052246-2.0810547-3.567627-1.9814453.5944824-4.2285156.9909668-5.4833984.9909668-2.4121094,0-3.6347656-.9580078-3.6347656-2.9401855,0-.7268066.1328125-1.2553711.5625-2.3125l2.90625.5947266c-.2304688.4624023-.296875.6938477-.296875.9580078,0,.3964844.1660156.5615234.6601562.5615234.859375,0,2.3457031-.2641602,3.8984375-.6936035-.296875-.6276855-1.15625-2.6428223-1.5859375-3.7329102-1.6503906.4294434-4.2939453.8588867-8.4238281,1.4204102l-.6269531-3.2375488c3.0722656-.2641602,6.6074219-.7597656,8.09375-1.1230469-.0664062-.1652832-.3964844-1.2883301-.5947266-1.9492188-.5615234-1.8498535-.859375-2.8078613-.8916016-2.9069824l3.765625-.2644043c.296875-.032959.4951172.1982422.4951172.3964844q0,.2312012-.4951172.6606445c.2304688,1.090332.5283203,2.1474609.859375,3.2375488,1.5849609-.4624023,3.1044922-1.0571289,5.0537109-1.9821777l1.3876953,2.9401855Z"/>
          <path class="cls-1" d="m416.9942529,343.7499143h-1.1230469l2.4433594.9580078c.2324219.0991211.3964844.2973633.3964844.4956055,0,.2641602-.1972656.3632812-.8583984.4294434-1.2216797,2.2463379-2.4111328,3.7990723-4.1630859,5.4177246-.6933594-.8588867-1.15625-1.3544922-2.1464844-2.279541,1.6845703-1.5195312,2.7089844-2.8078613,3.9316406-5.0212402h-1.6855469c.0664062-1.3215332.0996094-3.2375488.0996094-5.78125v-10.604248c0-1.9821777-.0332031-4.1955566-.0996094-5.2526855.6279297.0332031,1.1894531.0332031,1.9492188.0332031h5.6816406c.7929688,0,1.3222656,0,1.9492188-.0332031q-.0664062,1.0571289-.0986328,5.2526855v10.4060059c0,2.6428223.0322266,4.5588379.0986328,5.814209h-3.2041016v-.7927246h-3.1708984v.9580078Zm3.1708984-15.6916504v-2.9401855h-3.1708984v2.9401855h3.1708984Zm-3.1708984,5.880127h3.1708984v-2.9401855h-3.1708984v2.9401855Zm0,5.9133301h3.1708984v-2.9731445h-3.1708984v2.9731445Zm22.7285156-10.0756836l2.1464844,1.9819336c.3300781.2973633.3964844.3635254.3964844.4956055,0,.2644043,0,.2973633-.9248047.6276855-.3964844,1.9160156-.7929688,3.7990723-1.3876953,5.6821289-.5615234,1.8830566-1.2558594,3.7658691-2.3125,5.4506836,1.2890625,1.3876953,3.0058594,2.7089844,5.3847656,4.1296387-.9902344,1.0239258-1.2558594,1.3874512-2.0810547,2.7749023-1.9824219-1.2224121-2.4443359-1.5856934-4.1298828-3.1713867-.3964844-.3635254-.7597656-.7597656-1.1230469-1.15625-1.6845703,1.8168945-3.7988281,3.2373047-6.6074219,4.625-.3632812-.9912109-.7597656-1.6518555-1.5527344-2.8081055,2.875-1.4865723,3.3701172-1.8168945,4.6582031-2.9072266.5957031-.4953613,1.1230469-.9909668,1.5859375-1.5195312-.7265625-1.15625-1.2880859-2.4116211-1.8164062-3.8649902-.6611328-1.9492188-.8925781-2.8742676-1.3876953-6.8054199h-1.3212891c0,9.1176758-.859375,12.4543457-4.5253906,18.1032715-.8261719-.9909668-1.3554688-1.4533691-2.5449219-2.2131348.4628906-.6608887.859375-1.2885742,1.2226562-1.8830566l-2.6757812,1.5856934c-1.0898438-2.5107422-1.15625-2.6760254-1.7509766-3.6340332l2.4111328-1.3212891c.4960938.6276855.9921875,1.2883301,1.3886719,1.9821777.2304688.4294434.4287109.8918457.6601562,1.3212891.9248047-1.5856934,1.4863281-3.0061035,1.8828125-4.690918.4960938-1.9160156.7929688-5.7150879.7929688-9.7456055v-7.6640625c0-1.0241699-.0332031-2.3125-.0996094-2.9072266,1.0576172.0332031,2.1484375.0332031,3.6347656.0332031h9.6464844c.9902344,0,2.2460938,0,3.3027344-.0661621v3.1384277c-.8583984-.032959-2.3457031-.0661621-3.3027344-.0661621h-10.0429688v5.1206055h9.8769531l.5957031-.6276855Zm-6.3105469,3.534668c.4296875,2.6757812,1.0244141,5.3847656,2.2792969,7.8293457.296875-.6276855.5947266-1.3212891.8925781-2.0810547.7929688-1.9492188,1.1894531-3.402832,1.5859375-5.748291h-4.7578125Z"/>
          <path class="cls-1" d="m458.386831,337.8365842c.3964844.0661621.6289062.2312012.6289062.4624023,0,.1982422-.1328125.3305664-.6943359.5617676-.4619141,4.2944336-1.3212891,6.4086914-3.4033203,8.3908691-1.2871094,1.2224121-3.2363281,2.279541-5.3847656,2.9401855-.7597656.2641602-1.8828125.5285645-3.5009766.8259277-.3964844-1.3544922-.6279297-1.8500977-1.3876953-3.1713867,4.0957031-.6608887,6.1777344-1.4206543,7.796875-2.8410645,1.7832031-1.6188965,2.4443359-3.46875,2.6757812-7.5319824l3.2695312.3632812Zm3.6015625-9.348877h5.3515625c1.3212891,0,3.46875-.0332031,4.625-.0991211v3.1052246c-1.2226562-.032959-3.3691406-.0661621-4.625-.0661621h-13.8085938c-1.3876953,0-3.2382812.0332031-4.625.0661621v-3.1052246c1.2880859.065918,3.171875.0991211,4.625.0991211h5.2851562v-2.1142578h-5.9130859c-1.8505859,0-4.7900391.065918-6.6064453.1320801v-3.2045898c1.7167969.0661621,4.6904297.1323242,6.6064453.1323242h5.9130859c0-1.2883301,0-1.6848145-.0332031-2.7749023l3.2714844.197998c.3632812.0332031.59375.1652832.59375.3303223,0,.2314453-.1972656.3964844-.6601562.6938477v1.5527344h5.9130859c2.0810547,0,4.9228516-.0661621,6.6064453-.1323242v3.2045898c-1.7832031-.0661621-4.5917969-.1320801-6.6064453-.1320801h-5.9130859v2.1142578Zm-15.1308594,6.6730957c0-.5617676,0-1.0571289-.0332031-1.9492188,1.6855469.0991211,4.2617188.1652832,6.5410156.1652832h14.1728516c2.2792969,0,4.8564453-.0661621,6.5410156-.1652832-.0332031.8920898-.0332031,1.3874512-.0332031,1.9492188v2.345459c0,.6936035.0332031,1.4865723.0986328,2.378418h-3.3359375v-3.666748h-20.7128906v3.666748h-3.3369141c.0654297-.8918457.0986328-1.6848145.0986328-2.378418v-2.345459Zm25.6035156,8.5229492c1.5527344.6276855,2.0146484.7929688,3.1708984,1.0241699-.0986328,2.6428223-.3964844,3.9311523-1.0244141,4.690918-.7265625.8920898-1.7832031,1.090332-6.2763672,1.090332-3.9970703,0-4.9228516-.0991211-5.5498047-.5947266-.5947266-.4624023-.9257812-1.4204102-.9257812-2.8740234v-7.4328613c0-.8920898,0-1.6518555-.0332031-2.1142578l3.3378906.2312012c.3964844.032959.6269531.1320801.6269531.3303223s-.1982422.3964844-.6269531.6606445v7.3999023c0,1.3215332.1640625,1.3874512,3.1376953,1.3874512q3.5341797,0,3.8320312-.6276855c.1982422-.3632812.3310547-1.3874512.3310547-2.6096191v-.5617676Z"/>
          <path class="cls-1" d="m495.6514794,343.9811155v4.4267578h-4.4267578v-4.4267578h4.4267578Zm-.0654297-20.7460938l-.5625,17.2443848h-3.2041016l-.5615234-17.2443848h4.328125Z"/>
        </g>
      </g>
    </g>
  </g>
</svg>