<?xml version="1.0" encoding="UTF-8"?>
<svg id="_レイヤー_2" data-name="レイヤー 2" xmlns="http://www.w3.org/2000/svg" viewBox="0 0 403.0751953 37.878418">
  <defs>
    <style>
      .cls-1 {
        fill: #fff;
        stroke-width: 0px;
      }
    </style>
  </defs>
  <g id="_レイヤー_1-2" data-name="レイヤー 1">
    <g>
      <path class="cls-1" d="m4.8984375,14.7351074h-1.265625c-1.1015625,0-2.4082031.0407715-3.265625.081543v-3.8776855c.8984375.0410156,2.4082031.0817871,3.265625.0817871h1.265625v-3.7143555c0-3.2246094-.0410156-4.9389648-.1230469-6.1225586l4.1640625.2856445c.4492188.0407715.6933594.1633301.6933594.4082031s-.2041016.4897461-.734375.8161621c-.0410156.9389648-.0410156,2.0410156-.0410156,4.6125488v3.7143555h1.3876953c.8574219,0,2.3681641-.0407715,3.265625-.0817871v3.8776855c-.8574219-.0407715-2.1630859-.081543-3.265625-.081543h-1.3876953v10.2451172c1.5507812-.3674316,2.8574219-.7756348,4.8984375-1.3879395l.5712891,3.4694824q-4.3681641,1.5512695-11.4697266,3.592041c-.3261719.5715332-.5722656.8164062-.8164062.8164062-.2041016,0-.4902344-.244873-.5712891-.5307617l-1.4697266-4.081543c2-.4082031,3.5917969-.6940918,4.8984375-.9797363v-11.1430664Zm22.7753906-4.0817871c.734375.3266602.8574219.4082031.8574219.7756348,0,.326416-.1630859.4489746-.8574219.5305176,2.6533203,3.3061523,5.8779297,5.4287109,11.265625,7.6328125-.8574219,1.1428223-1.0195312,1.3876953-2.0820312,3.5102539-2.1621094-1.0202637-4-2-5.5917969-3.1020508v2.9389648c-.6113281-.0410156-1.6728516-.0410156-2.4492188-.0410156h-6.734375c-.7753906,0-1.8359375,0-2.4492188.0410156v-2.8164062c-1.46875,1.1835938-3.1835938,2.326416-5.1835938,3.5917969-1.0195312-1.673584-1.4277344-2.2856445-2.4492188-3.3061523,3.4296875-1.918457,4.8984375-2.9389648,7.265625-5.0205078,2.3671875-2.0410156,3.3886719-3.2653809,5.265625-6.0817871l3.1425781,1.3469238Zm1.2246094-6.6533203c0-1.6733398-.0410156-3.1428223-.1220703-3.7143555l3.9589844.2858887c.4492188.0407715.6943359.1633301.6943359.4082031s-.2451172.4897461-.7753906.8161621v2.2041016c1.6328125,0,4.203125-.0407715,5.5507812-.081543v3.7143555c-1.4287109-.0407715-4-.081543-5.5507812-.081543,0,1.7143555,0,2.9794922.0810547,3.7958984h-3.9589844c.0810547-.9387207.1220703-2.081543.1220703-3.7958984h-6.2441406c0,1.7143555,0,2.9794922.0810547,3.7958984h-3.9599609c.0820312-.9387207.0820312-2.081543.0820312-3.7958984-1.7548828,0-4.0410156.0407715-5.7148438.081543v-3.7143555c1.5517578.0407715,3.8789062.081543,5.7148438.081543,0-1.6733398-.0410156-3.1428223-.0820312-3.7143555l3.9599609.2858887c.4482422.0407715.6943359.1633301.6943359.4082031s-.2460938.4897461-.7753906.8161621v2.2041016h6.2441406Zm-8.6523438,33.5927734h-3.9599609c.0810547-.9389648.0810547-2.3266602.0810547-4.3266602v-4.8981934c0-1.3061523-.0400391-2.8571777-.0810547-3.5917969,1.4287109.0407715,2.6533203.0407715,4.4892578.0407715h9.6337891c1.8369141,0,3.0615234,0,4.4892578-.0407715-.0410156.7346191-.0810547,2.2856445-.0810547,3.5917969v4.5715332c0,1.918457,0,3.3063965.0810547,4.2451172h-3.9589844v-1.3061523h-10.6933594v1.7143555Zm10.6933594-5.2246094v-4.0002441h-10.6933594v4.0002441h10.6933594Zm-.6933594-13.1022949c-1.8779297-1.3879395-3.5107422-3.0612793-4.8984375-4.9389648-1.4287109,1.7958984-2.9394531,3.4694824-4.6933594,4.9389648l1.4277344.0407715h6.734375l1.4296875-.0407715Z"/>
      <path class="cls-1" d="m67.6308594,13.1430664c2.1230469,0,5.4287109-.0407715,7.3066406-.1223145v3.7958984c-1.8779297-.081543-5.1835938-.1630859-7.3066406-.1630859h-1.5507812c1.7958984.8571777,3.46875,1.8366699,5.0195312,3.1020508,1.0625.8164062,2.0820312,1.755127,3.0625,2.6938477l-2.7753906,2.6940918c-.8574219-.9389648-1.7148438-1.8776855-2.6542969-2.7348633-5.6328125.9797363-8.9384766,1.3061523-19.6328125,2.244873-.3261719.4489746-.4902344.6123047-.734375.6123047-.2041016,0-.3671875-.2041016-.53125-.6123047l-1.3867188-3.755127c1.8359375-.0407715,3.6728516-.0407715,5.46875-.1223145.9394531-1.3061523,1.7558594-2.6940918,2.4492188-4.1225586h-8.2861328c-.2451172,8.8164062-2.0400391,15.3063965-5.6328125,20.3676758-1.0615234-1.5917969-1.1025391-1.5917969-2.6533203-3.4287109,3.2246094-5.4694824,4.3271484-10.3674316,4.3271484-19.3063965V4.8981934c0-1.2653809-.0410156-2.8571777-.1220703-3.6328125,1.4277344.081543,2.6933594.081543,4.5302734.081543h22.4902344c1.7958984,0,3.0615234,0,4.4892578-.081543-.0810547.7756348-.1210938,2.3266602-.1210938,3.6328125v2.9387207c0,1.4287109.0400391,3.1838379.1210938,4h-4.1220703v-.9794922h-23.265625v2.2856445h21.5107422Zm-10.1640625,17.3881836h-5.7949219c-1.3476562,0-3.6328125.0410156-4.8574219.1225586v-3.918457c1.2246094.081543,3.3056641.1225586,4.8574219.1225586h5.7949219c0-1.2246094,0-1.7961426-.0400391-2.9389648l4.0810547.244873c.4492188.0407715.7353516.1633301.7353516.4082031s-.2451172.4897461-.8164062.8164062v1.4694824h6.1630859c1.5507812,0,3.6328125-.0410156,4.8574219-.1225586v3.918457c-1.2246094-.081543-3.5097656-.1225586-4.8574219-.1225586h-6.1630859v2.8574219h7.3056641c2.2460938,0,5.4707031-.0817871,7.3066406-.1633301v4c-1.9179688-.081543-5.1425781-.1223145-7.3066406-.1223145h-18.2441406c-2.0009766,0-5.5927734.0407715-7.3476562.1223145v-4c1.6738281.081543,5.2246094.1633301,7.3476562.1633301h6.9785156v-2.8574219Zm11.9189453-25.7148438h-23.265625v2.6123047h23.265625v-2.6123047Zm-10.7353516,11.8371582c-.8564453,1.3469238-1.7539062,2.6530762-2.6933594,3.9592285,3.1015625-.1633301,6.2041016-.4082031,9.265625-.7348633-.8164062-.5305176-1.7148438-1.0202637-2.5712891-1.5102539l1.6318359-1.7141113h-5.6328125Z"/>
      <path class="cls-1" d="m98.0361328,10.7348633c.3271484.1633301.4892578.3266602.4892578.4899902,0,.244873-.203125.4897461-.5703125.6938477-1.4697266,6.0817871-2.1230469,8.1633301-3.7558594,11.8369141-2.4082031,5.4287109-5.0605469,7.9187012-8.4902344,7.9187012-2.2441406,0-3.8769531-.9797363-5.0605469-2.8981934-1.0214844-1.7958984-1.5917969-3.9592285-1.5917969-6.244873,0-5.1022949,2.8974609-10.1228027,7.6738281-13.2248535,2.9785156-1.9592285,6.3261719-2.9389648,10.1630859-2.9389648,4.3261719,0,8.1220703,1.1838379,11.2246094,3.4287109,3.4287109,2.5307617,5.1435547,6.0410156,5.1435547,10.5717773,0,5.3876953-2.53125,9.4694824-7.7148438,12.3266602-1.6328125.8979492-4.734375,2.0817871-7.5917969,2.8981934-.7753906-2.1225586-1.0615234-2.6940918-2.1640625-4.0817871,4.2861328-1.0205078,5.9189453-1.5917969,8.1640625-2.9389648,3.265625-1.9182129,5.0195312-4.8164062,5.0195312-8.244873,0-4.2043457-2.5302734-7.6738281-6.8564453-9.3881836-1.5517578-.6120605-3.3466797-.9794922-4.6533203-.9794922h-.8164062l1.3876953.7753906Zm-10.6533203,2.7756348c-2.6123047,2.6123047-4.0820312,5.9594727-4.0820312,9.2248535,0,2.8979492.9394531,4.6938477,2.4492188,4.6938477,1.3066406,0,2.4492188-1.2653809,3.9179688-4.3266602,2.3681641-4.9387207,3.796875-9.4287109,4.0820312-12.9389648-2.8974609.6123047-4.5302734,1.4694824-6.3671875,3.3469238Z"/>
      <path class="cls-1" d="m130.9316406,2.0410156c.4082031.081543.6533203.2856445.6533203.5712891,0,.3674316-.2451172.5715332-.9794922.8979492-.2050781,1.0205078-.2451172,1.2653809-.4902344,2.6530762-.1230469.5715332-.1230469.6530762-.2441406,1.347168,2.734375-.5307617,5.9589844-1.673584,8.1621094-2.8571777l1.796875,3.5510254c-3.6328125,1.6325684-6.4492188,2.4897461-10.4492188,3.2653809-.2451172,1.5917969-.4492188,3.2246094-.4902344,4.0407715q.2861328-.0407715,1.1425781-.2856445c1.1435547-.326416,3.2246094-.6530762,4.6542969-.7346191.4082031-1.0612793.5703125-1.592041.8564453-2.8981934l4.1220703,1.1430664c.3271484.081543.53125.2856445.53125.4897461,0,.2856445-.2041016.4897461-.7753906.6938477l-.4082031.9797363c1.3466797.244873,2.734375.7753906,4.0410156,1.5102539,3.2246094,1.7958984,4.734375,4.3674316,4.734375,8,0,4.9389648-2.9384766,8.9389648-8.2451172,11.0615234-2.4482422.9797363-4.6533203,1.5102539-8.0410156,2-.4892578-2.1225586-.734375-2.7753906-1.3876953-4.1225586,4.3261719-.6530762,6.2861328-1.1835938,8.4082031-2.1633301,3.1835938-1.5510254,4.8984375-3.9592285,4.8984375-6.8979492,0-3.1838379-2.2451172-5.6328125-5.6738281-6.2451172-2.0410156,3.7958984-3.6738281,6.0002441-7.1425781,9.5512695.4082031.8164062.5712891,1.1020508,1.3876953,2.244873-1.3056641.5715332-1.9599609.9797363-3.6328125,2.3266602-.5302734-.7756348-.6123047-.9387207-1.0615234-1.8776855-3.1835938,2.2451172-4.7753906,2.8981934-7.0605469,2.8981934-3.3886719,0-5.3886719-1.8369141-5.3886719-4.8981934,0-4.2041016,3.9179688-8.6533203,10.0410156-11.4287109.1230469-2.4899902.1230469-2.5715332.3671875-5.020752-.8164062.0817871-2.4082031.1633301-3.3876953.1633301-1.5107422,0-2.5712891-.081543-4.6123047-.326416l-.1230469-4.1633301c1.5517578.3671875,3.6738281.5712891,5.4707031.5712891.8164062,0,1.5917969-.0407715,3.1015625-.1633301q.2041016-1.5917969.4082031-2.9794922c.2451172-1.755127.4082031-3.0205078.4082031-3.755127l4.4082031.8571777Zm-6.0410156,18.6533203c-1.7548828,1.0612793-2,1.2246094-2.7753906,1.918457-2,1.755127-3.1015625,3.7143555-3.1015625,5.4694824,0,.8979492.4892578,1.5102539,1.2646484,1.5102539,1.3056641,0,3.265625-1.0205078,5.5917969-2.8571777-.5712891-1.9592285-.8974609-4-.9794922-6.0410156Zm3.9179688-.8164062c0,1.3879395.1230469,2.5307617.4082031,3.8369141q2-2.3674316,2.6132812-3.3061523.2851562-.4489746,1.265625-2.0410156.203125-.326416.3671875-.6120605c-1.6738281.2041016-3.3476562.6120605-4.6542969,1.1020508v1.0202637Z"/>
      <path class="cls-1" d="m155.5410156,4.5715332c3.5097656-.2041016,10.4082031-1.2653809,14.3261719-2.1633301l.5722656-.3671875,2.9794922,2.6123047c.3261719.2856445.4082031.407959.4082031.5712891,0,.244873-.2041016.3674316-.5712891.4897461l-.3671875.1225586c-3.4707031,4.3266602-5.2246094,6.3266602-9.2246094,10.5717773,2.4082031-.9797363,3.8359375-1.3061523,5.8769531-1.3061523,6.1230469,0,10.3671875,3.7143555,10.3671875,9.1838379,0,3.2243652-1.3056641,6-3.7138672,8.0817871-2.5302734,2.1633301-5.8369141,3.1835938-10.2451172,3.1835938-5.7958984,0-9.0205078-1.9592285-9.0205078-5.5102539,0-2.8164062,2.3671875-4.9389648,5.5107422-4.9389648,2.3671875,0,4.734375,1.1838379,6.1630859,3.1022949.5712891.8161621.8564453,1.3876953,1.5917969,3.2243652,1.5917969-.4897461,2.3671875-.9387207,3.2646484-1.9182129,1.1835938-1.3061523,1.8779297-3.1430664,1.8779297-5.0205078,0-3.6328125-2.4892578-5.673584-6.9794922-5.673584-3.265625,0-6.2451172,1.1835938-10.0820312,4.0407715-1.0605469.8164062-1.8359375,1.4287109-3.5917969,3.0205078l-2.8574219-3.673584c4.5722656-3.3469238,8.6533203-7.4694824,15.796875-15.8779297-3.265625.7756348-3.7558594.8979492-5.6738281,1.3469238l-2.2861328.5715332c-.6943359.1633301-2.3671875.5715332-2.8974609.7346191l-1.2246094-4.4082031Zm6.8984375,23.8374023c-1.1835938,0-1.9599609.6120605-1.9599609,1.5102539,0,1.3469238,1.6738281,2.244873,4.2041016,2.244873.4902344,0,.53125,0,1.3886719-.1225586-.7763672-2.6123047-1.8378906-3.6325684-3.6328125-3.6325684Z"/>
      <path class="cls-1" d="m185.7421875,25.5925293c3.4287109,3.2243652,5.2246094,5.3061523,8,9.1838379l-3.7138672,2.8164062c-2.2861328-3.592041-4.8164062-6.7348633-7.4697266-9.2248535l3.1835938-2.7753906Z"/>
      <path class="cls-1" d="m202.7207031,23.0617676c.2861328.081543.4492188.244873.4492188.4897461,0,.1633301-.0820312.2858887-.2851562.4082031l-.4082031.244873c-.5722656,4.1633301-1.4296875,7.6328125-2.5722656,10.3676758-1.7548828-1.1428223-1.8359375-1.1835938-3.1425781-1.7143555,1.4287109-3.3469238,2.0820312-6.2041016,2.53125-10.6940918l3.4277344.8979492Zm-5.3066406-6.1633301c1.1025391,0,2.1230469-.0407715,3.1435547-.0407715.8574219-1.1022949,1.7138672-2.1633301,2.4492188-3.2653809-1.5917969-1.5512695-3.1435547-2.7348633-5.4287109-4.3676758l1.6738281-2.7753906c.3671875.244873.734375.4489746,1.1015625.6938477,1.3476562-2.4082031,2.6933594-5.2246094,3.265625-7.0205078l3.4287109,1.4284668c.2041016.0817871.4082031.3266602.4082031.5307617,0,.244873-.2861328.4082031-.8984375.5712891-1.1835938,2.5307617-2.3671875,4.7348633-3.3876953,6.3676758.6533203.4489746,1.265625.9387207,1.8769531,1.4284668,1.4707031-2.2856445,1.796875-2.9387207,2.6132812-4.8571777l3.46875,1.6325684c.2451172.1225586.4492188.3674316.4492188.5715332,0,.2856445-.2851562.4489746-.8984375.5715332-2.8164062,4.4489746-4.0810547,6.3266602-5.6328125,8.244873,1.1845703-.0407715,2.4091797-.1630859,3.5927734-.2856445-.2451172-.6123047-.4892578-1.1428223-.7353516-1.6325684l2.8574219-1.347168c1.3886719,2.6533203,1.7148438,3.4287109,2.734375,6.3676758l-3.2646484,1.3876953c-.1630859-.5715332-.3271484-1.1428223-.4892578-1.673584-.7763672.0817871-1.5107422.2041016-2.2861328.3266602v9.5512695c0,3.755127.0400391,6.5715332.1220703,8.3674316h-4.1630859c.0810547-1.7958984.1220703-4.6123047.1220703-8.3674316v-9.0615234c-1.3056641.2041016-2.6123047.3674316-3.8359375.4897461-.3271484.4082031-.4902344.5715332-.6943359.5715332-.2451172,0-.4902344-.244873-.5712891-.5715332l-1.0214844-3.8366699Zm13.5927734,4.8164062c1.265625,2.1225586,1.9599609,4,2.7353516,7.1838379l-3.3886719,1.5102539c-1.0605469-4.6123047-1.1425781-4.9389648-2.2441406-7.347168l2.8974609-1.3469238Zm6.9384766,1.9592285c0,.5305176.0410156,1.0205078.0820312,1.5510254h-3.8769531c.0810547-.9387207.1220703-2.3266602.1220703-4.3266602v-7.3879395c0-1.3061523-.0410156-2.8979492-.1220703-3.6325684,1.4277344.0407715,2.6933594.081543,4.4892578.081543h3.3876953v-2.4082031h-4.2851562c-1.7558594,0-4.0410156.0407715-5.7148438.1223145v-3.8366699c1.5507812.0407715,3.8769531.081543,5.7148438.081543h4.203125c0-1.2653809,0-2.5715332-.1621094-3.8369141l4.0810547.2858887c.3681641,0,.6123047.2041016.6123047.4082031,0,.244873-.2041016.4489746-.7753906.7753906v2.3674316h4.3261719c1.6328125,0,4.2861328-.0407715,5.6738281-.081543v3.8366699c-1.5097656-.0407715-4.1230469-.1223145-5.6738281-.1223145h-4.3671875v2.4082031h3.5917969c1.796875,0,3.0615234-.0407715,4.4902344-.081543-.0820312.7346191-.1230469,2.326416-.1230469,3.6325684v6.9389648c0,1.918457.0410156,3.3061523.1230469,4.2451172h-3.8779297c.0410156-.3266602.0410156-.6940918.0820312-1.0205078h-3.0615234c1.265625,2.1633301,2.0410156,3.1020508,3.5507812,4.6123047,1.7558594,1.673584,2.53125,2.244873,6,4.3266602-1.2246094,1.1428223-1.8359375,1.9592285-2.5302734,3.2246094-4-2.6940918-6.3271484-4.8981934-8.2451172-8.1635742,0,3.3879395.0410156,6.8166504.2041016,10.2043457h-4.0410156c.1630859-3.2653809.1630859-6.5307617.2041016-9.7553711-3.0195312,3.4694824-6.2041016,5.7553711-11.46875,8.3676758-.6132812-1.3879395-1.2246094-2.4492188-1.9599609-3.4694824,3.1025391-1.5102539,6.2041016-3.1430664,8.8574219-5.3879395,1.3876953-1.1835938,2.6533203-2.4897461,3.7138672-3.9592285h-3.2246094Zm4.0820312-10.4084473h-4.1220703v2.0817871h4.1220703v-2.0817871Zm-4.1220703,5.0612793v2.0002441h4.1220703v-2.0002441h-4.1220703Zm12.0810547-2.9794922v-2.0817871h-4.3261719v2.0817871h4.3261719Zm-4.3261719,4.9797363h4.3261719v-2.0002441h-4.3261719v2.0002441Z"/>
      <path class="cls-1" d="m244.7998047,28.0007324c.4492188.1633301.5302734.2041016.5302734.4489746,0,.1633301-.0810547.326416-.2851562.4489746l-.2861328.1633301c-1.0615234,4.0407715-1.6728516,5.3876953-3.2646484,7.3879395-.7753906-.9389648-1.5917969-1.5512695-3.1025391-2.3674316,1.7958984-2.4082031,2.6943359-4.4492188,3.0205078-7.020752l3.3876953.9389648Zm27.0205078-6.8981934l.4902344-.6123047,2.9394531,2.4899902c.1621094.1630859.2851562.4082031.2851562.6530762,0,.2856445-.2041016.4897461-.6523438.6530762l-.2871094.081543c-.6113281,7.918457-.8564453,9.0615234-1.8359375,10.8166504-.8164062,1.3469238-2.2041016,2.1633301-4.2451172,2.4082031-1.3466797.1633301-2.9794922.244873-5.3056641.2856445-.2050781-1.918457-.3271484-2.5715332-.7753906-4.1633301,1.2236328.0407715,1.6728516.0407715,2.1621094.0407715,2.5722656,0,3.7558594-.1633301,4.3681641-.6530762.9794922-.7753906,1.4697266-3.1020508,1.7138672-8.4492188h-23.6328125v1.3061523h-4.0410156c.0820312-.9794922.1230469-2.326416.1230469-4.326416V5.592041c0-1.3061523-.0410156-2.8981934-.1230469-3.6328125,1.3876953.0407715,2.6123047.0817871,4.53125.0817871h20.4082031c1.7548828,0,4.2041016-.0410156,5.6738281-.1225586v3.7958984c-1.3886719-.081543-4-.1223145-5.6738281-.1223145h-8.3671875v2.8571777h6.4492188c1.6328125,0,4.1621094-.0407715,5.6728516-.081543v3.6733398c-1.5107422-.081543-4.0400391-.1223145-5.6728516-.1223145h-6.4492188v2.8571777h6.4492188c1.6328125,0,4.1621094-.0407715,5.6728516-.081543v3.6733398c-1.5107422-.081543-4.0400391-.1223145-5.6728516-.1223145h-6.4492188v2.8571777h12.2441406Zm-24.7753906-15.510498v2.8571777h8.6533203v-2.8571777h-8.6533203Zm0,6.3266602v2.8571777h8.6533203v-2.8571777h-8.6533203Zm8.6533203,6.3266602h-8.6533203v2.8571777h8.6533203v-2.8571777Zm-5.3876953,8.9797363c1.6328125,2.6530762,2.3261719,4.1633301,3.3466797,7.1838379l-3.5107422,1.3879395c-.9785156-3.1838379-1.3056641-4.0002441-2.8974609-7.3063965l3.0615234-1.2653809Zm7.0195312-1.1835938c2.0820312,2.7753906,2.4492188,3.3876953,3.9599609,6.5715332l-3.4697266,1.5917969c-.9794922-2.3674316-2.1220703-4.5715332-3.4277344-6.6123047l2.9375-1.5510254Zm6.6132812-1.0612793c1.8769531,1.5102539,2.8574219,2.5715332,4.9794922,5.0612793l-2.8574219,2.2858887c-.4082031-.5307617-.7753906-.9797363-.9794922-1.2653809-1.265625-1.6328125-1.7148438-2.0817871-3.6328125-4.0002441l2.4902344-2.081543Z"/>
      <path class="cls-1" d="m283.0830078,37.7150879h-4.0820312q.0820312-2.081543.1220703-9.6328125V11.510498q-.0400391-7.7553711-.1220703-9.1838379c2.3271484.081543,5.3066406.1633301,8.1230469.1633301h17.5517578c2.4492188,0,5.9179688-.0817871,8.1220703-.1633301v3.9592285c-2.1220703-.081543-5.7138672-.1633301-8.1220703-.1633301h-21.5927734v26.612793h24.1630859c2.1230469,0,5.4707031-.081543,7.3066406-.1630859v3.918457c-1.8359375-.0817871-5.1835938-.1225586-7.3066406-.1225586h-24.1630859v1.3469238Zm4.9794922-27.8781738c4.8984375,2.4082031,8.2451172,4.2451172,11.1835938,6.2451172,2.0410156-2.6938477,3.8378906-5.7143555,5.6328125-9.265625l3.3886719,1.4694824c.4892578.2041016.6523438.4082031.6523438.6530762,0,.3266602-.1220703.4082031-1.0605469.6938477-1.9589844,3.673584-3.5507812,6.2858887-5.4296875,8.6940918l1.9599609,1.592041c2.1630859,1.8366699,3.5917969,3.3061523,6.5302734,6.8571777l-3.4277344,2.9797363c-4.2460938-4.9797363-4.9804688-5.7553711-6.8984375-7.4697266l-.8574219-.7346191c-.3671875.3674316-.6933594.7346191-1.0605469,1.1020508-3.796875,3.9592285-6.8574219,6.3266602-12.2050781,9.3879395-.6123047-1.2651367-1.3066406-2.326416-2.1630859-3.3061523,5.1025391-2.9387207,9.0205078-5.918457,12.3681641-9.5512695-2.6132812-1.8366699-5.7148438-3.6325684-10.53125-6.1633301l1.9179688-3.1838379Z"/>
      <path class="cls-1" d="m333.1210938,10.7348633c.3271484.1633301.4902344.3266602.4902344.4899902,0,.244873-.2041016.4897461-.5712891.6938477-1.4697266,6.0817871-2.1220703,8.1633301-3.7548828,11.8369141-2.4082031,5.4287109-5.0615234,7.9187012-8.4902344,7.9187012-2.2451172,0-3.8779297-.9797363-5.0615234-2.8981934-1.0205078-1.7958984-1.5917969-3.9592285-1.5917969-6.244873,0-5.1022949,2.8974609-10.1228027,7.6738281-13.2248535,2.9794922-1.9592285,6.3271484-2.9389648,10.1630859-2.9389648,4.3261719,0,8.1230469,1.1838379,11.2246094,3.4287109,3.4296875,2.5307617,5.1435547,6.0410156,5.1435547,10.5717773,0,5.3876953-2.5302734,9.4694824-7.7148438,12.3266602-1.6318359.8979492-4.734375,2.0817871-7.5917969,2.8981934-.7753906-2.1225586-1.0615234-2.6940918-2.1630859-4.0817871,4.2851562-1.0205078,5.9179688-1.5917969,8.1630859-2.9389648,3.265625-1.9182129,5.0205078-4.8164062,5.0205078-8.244873,0-4.2043457-2.53125-7.6738281-6.8574219-9.3881836-1.5507812-.6120605-3.3466797-.9794922-4.6523438-.9794922h-.8164062l1.3867188.7753906Zm-10.6523438,2.7756348c-2.6132812,2.6123047-4.0820312,5.9594727-4.0820312,9.2248535,0,2.8979492.9384766,4.6938477,2.4492188,4.6938477,1.3056641,0,2.4492188-1.2653809,3.9179688-4.3266602,2.3671875-4.9387207,3.796875-9.4287109,4.0820312-12.9389648-2.8984375.6123047-4.53125,1.4694824-6.3671875,3.3469238Z"/>
      <path class="cls-1" d="m362.3837891,13.8371582c-1.7548828,0-4.0410156.0407715-5.7138672.081543v-3.8776855c1.5507812.0817871,3.8769531.1225586,5.7138672.1225586h14.1220703c1.6328125,0,4.2871094-.0407715,5.7148438-.1225586v3.8776855c-1.5097656-.0407715-4.1630859-.081543-5.7148438-.081543h-3.7949219c.6523438,1.8774414,1.5097656,3.7143555,2.6113281,5.3876953,3.1835938-1.9182129,5.2246094-3.4694824,7.1835938-5.2653809l3.3476562,2.3266602c.2851562.2041016.4492188.3674316.4492188.4897461,0,.3266602-.2451172.4082031-1.1835938.4489746-2.8574219,1.918457-4.1230469,2.7348633-4.9394531,3.1838379l-2.7753906,1.6325684c.1640625.244873.3671875.4489746.5722656.6940918,2.7753906,3.2243652,5.4277344,5.1020508,10.8974609,7.918457-1.5507812,1.5510254-2.1220703,2.244873-2.7753906,3.6328125-5.6738281-3.4287109-8.4091797-5.673584-11.1435547-9.265625-2.6113281-3.3876953-4.2041016-6.5715332-5.5097656-10.9797363-.9394531.7346191-1.9179688,1.4284668-2.8984375,2.081543,4.5722656,3.9592285,6.4492188,8.0410156,6.4492188,13.8371582,0,3.3469238-.7753906,5.5102539-2.3671875,6.6123047-1.2246094.8571777-2.734375,1.1020508-7.3476562,1.1020508-.0810547-1.5917969-.2441406-2.3266602-.8974609-4.3266602,1.3466797.0817871,2.0400391.0817871,2.8974609.0817871,1.5107422,0,2.2050781-.2041016,2.7353516-.7756348.5712891-.6938477.8974609-2.244873.8974609-4.3266602,0-.2856445,0-.5305176-.0410156-.8164062-4.6523438,3.1022949-9.6328125,5.347168-17.1015625,7.7553711-.4902344-1.5102539-.8984375-2.2856445-1.6738281-3.4694824,7.3876953-2.1633301,11.9179688-4.2041016,17.796875-7.918457-.1230469-.3674316-.2861328-.6938477-.4492188-1.0612793-.1640625-.3266602-.2861328-.6123047-.4492188-.8571777-4.4082031,2.8571777-8.1640625,4.5715332-14.6132812,6.8571777-.6523438-1.6733398-.9785156-2.244873-1.8359375-3.2651367,6.4902344-2.0410156,10.2041016-3.592041,14.5722656-6.2858887l-1.3476562-1.4694824c-3.0205078,1.755127-6.4492188,3.2653809-10.7753906,4.8979492-.5722656-1.4284668-.8574219-1.8774414-2-3.3876953,5.46875-1.6328125,9.3466797-3.2246094,13.1425781-5.4694824h-1.7548828Zm17.0205078-9.6330566c2.7753906,0,5.9589844-.081543,8.0820312-.1630859-.0410156,1.4692383-.0820312,2.2041016-.0820312,3.1020508v2c0,1.0205078.0410156,2.244873.1230469,3.5510254h-4.1230469c.0410156-1.1835938.0820312-2.6123047.0820312-3.5510254v-1.3469238h-28.2460938v1.3469238c0,.9387207.0820312,2.3674316.1230469,3.5510254h-4.1230469c.0820312-1.3061523.1230469-2.5305176.1230469-3.5510254v-2c0-.8979492-.0410156-1.6328125-.0820312-3.1020508,2.0820312.081543,5.3066406.1630859,8.0820312.1630859h8.0820312v-1.5917969c0-.8571777-.0410156-1.755127-.0410156-2.6123047l4,.2856445c.4902344.0410156.7753906.1633301.7753906.4082031s-.2441406.4899902-.7753906.8164062l-.0410156,2.6938477h8.0410156Z"/>
      <path class="cls-1" d="m403.0751953,31.3884277c0,3.4694824-2.7763672,6.2451172-6.2041016,6.2451172-3.4697266,0-6.2451172-2.7756348-6.2451172-6.2451172,0-3.4284668,2.7753906-6.2041016,6.2451172-6.2041016,3.4277344,0,6.2041016,2.7756348,6.2041016,6.2041016Zm-9.5107422,0c0,1.8369141,1.4697266,3.3063965,3.3066406,3.3063965,1.7958984,0,3.265625-1.4694824,3.265625-3.3063965,0-1.7958984-1.4697266-3.2653809-3.265625-3.2653809-1.8369141,0-3.3066406,1.4694824-3.3066406,3.2653809Z"/>
    </g>
  </g>
</svg>