<?xml version="1.0" encoding="UTF-8"?>
<svg id="_レイヤー_2" data-name="レイヤー 2" xmlns="http://www.w3.org/2000/svg" viewBox="0 0 332.7324219 108.5288127">
  <defs>
    <style>
      .cls-1 {
        fill: #fff;
        stroke-width: 0px;
      }
    </style>
  </defs>
  <g id="_レイヤー_1-2" data-name="レイヤー 1">
    <g>
      <path class="cls-1" d="m2.6025391,8.6811565c0-4.6679688,0-5.5048828-.0595703-6.4628906-.0605469-1.0175781-.2089844-1.4960938-1.1972656-1.7060547-.2392578-.0595703-.7480469-.0888672-1.0175781-.0888672-.2089844,0-.328125-.0605469-.328125-.1796875C0,.063969.1484375.0043986.4785156.0043986,1.8242188.0043986,3.7089844.0942424,3.859375.0942424,4.21875.0942424,6.1035156.0043986,7.8984375.0043986,10.8613281.0043986,16.3369141-.2651326,19.8984375,3.4155315c1.4960938,1.5556641,2.9023438,4.0390625,2.9023438,7.5996094,0,3.7705078-1.5566406,6.6728516-3.2324219,8.4384766-1.2871094,1.3466797-3.9794922,3.4414062-9.0664062,3.4414062-1.2871094,0-2.8730469-.0898438-4.1591797-.1796875-1.3164062-.0898438-2.3339844-.1796875-2.4833984-.1796875-.0605469,0-.5683594,0-1.1972656.0302734-.5976562,0-1.2861328.0595703-1.7353516.0595703-.3291016,0-.4785156-.0595703-.4785156-.2392578,0-.0898438.0595703-.1796875.2998047-.1796875.328125-.0302734.5683594-.0595703.8369141-.1201172.5986328-.1191406.7490234-.7773438.8681641-1.6455078.1494141-1.2568359.1494141-3.6201172.1494141-6.4931641v-5.2666016Zm2.5136719,3.2324219c0,3.1708984.0302734,5.9238281.0595703,6.4931641.0302734.7480469.0898438,1.9443359.3291016,2.2734375.3896484.5683594,1.5556641,1.1972656,5.0869141,1.1972656,2.7832031,0,5.3564453-1.0175781,7.1210938-2.7832031,1.5566406-1.5253906,2.3945312-4.3984375,2.3945312-7.1513672,0-3.7998047-1.6464844-6.2539062-2.8730469-7.5400391C14.421875,1.4399455,11.0107422,1.0210002,7.4501953,1.0210002c-.5986328,0-1.7060547.0898438-1.9453125.2099609-.2685547.1191406-.3583984.2695312-.3583984.5986328-.0302734,1.0166016-.0302734,4.0693359-.0302734,6.3730469v3.7109375Z"/>
      <path class="cls-1" d="m29.3554688,10.7465861c0-3.9199219,0-4.6386719-.0595703-5.4462891-.0595703-.8378906-.2695312-1.2568359-1.1376953-1.4365234-.1787109-.0292969-.4785156-.0595703-.7167969-.0595703-.2099609,0-.3896484-.0898438-.3896484-.1796875,0-.1796875.1494141-.2392578.4482422-.2392578.5996094,0,1.40625.0595703,3.0820312.0898438.1503906,0,5.4765625,0,6.0742188-.0302734.5996094-.0292969.9277344-.0595703,1.1679688-.1494141.1796875-.0595703.2089844-.0898438.328125-.0898438.0605469,0,.1201172.0595703.1201172.2099609,0,.1787109-.1787109.5976562-.2392578,1.3457031-.0292969.5087891-.0595703.9882812-.0898438,1.5566406,0,.2695312-.0595703.4482422-.2089844.4482422-.1503906,0-.2099609-.1191406-.2099609-.3291016-.0302734-.4482422-.1201172-.7480469-.2099609-.9570312-.1787109-.5986328-.4482422-.8076172-1.9443359-.8974609-.3896484-.0302734-3.3505859-.0605469-3.4111328-.0605469-.0898438,0-.1494141.0605469-.1494141.2392578v6.7929688c0,.1796875.0302734.2988281.1787109.2988281.359375,0,3.4121094-.0292969,4.0400391-.0898438.6884766-.0292969,1.1376953-.1191406,1.3759766-.4482422.1201172-.1796875.2099609-.2392578.3300781-.2392578.0595703,0,.1191406.0292969.1191406.1787109,0,.1503906-.1191406.71875-.2089844,1.5859375-.0898438.8378906-.0898438,1.4365234-.1201172,1.8261719-.0302734.2392578-.0888672.3291016-.2099609.3291016-.1484375,0-.1787109-.1796875-.1787109-.3896484,0-.1796875-.0302734-.4785156-.0898438-.7177734-.1201172-.3886719-.2998047-.8076172-1.4365234-.8974609-.6875-.0605469-3.1113281-.1201172-3.5898438-.1201172-.1796875,0-.2099609.0898438-.2099609.2099609v2.1835938c0,.9277344-.0302734,3.5615234,0,4.0693359.0595703,1.1074219.2099609,1.6757812.8378906,1.9453125.4482422.2099609,1.1669922.2695312,2.1845703.2695312.5683594,0,1.5253906.0302734,2.2734375-.1796875.8984375-.2695312,1.1074219-.8681641,1.3466797-1.9746094.0595703-.2998047.1494141-.4189453.2695312-.4189453.1787109,0,.1787109.2695312.1787109.4482422,0,.2099609-.2382812,2.0947266-.328125,2.6035156-.1201172.5986328-.3300781.6582031-1.3164062.6582031-1.9755859,0-2.8134766-.0595703-3.8603516-.0595703-1.0478516-.0302734-2.4238281-.0898438-3.53125-.0898438-.6884766,0-1.2568359.0898438-1.9746094.0898438-.2695312,0-.4189453-.0595703-.4189453-.2099609,0-.1191406.1191406-.2089844.2695312-.2089844.1796875,0,.3886719-.0302734.5976562-.0898438.5390625-.1201172.8984375-.5087891.9580078-2.3642578.0302734-1.0166016.0595703-2.2441406.0595703-4.5175781v-4.4882812Z"/>
      <path class="cls-1" d="m44.0791016,22.2963908c-.3896484-.1796875-.3896484-.2998047-.3896484-1.0175781,0-1.3759766.0898438-2.3935547.1201172-2.8125.0302734-.2695312.0898438-.4189453.2392578-.4189453.1503906,0,.2089844.0898438.2089844.2988281,0,.1796875,0,.5390625.0898438.8984375.3896484,1.9443359,2.1542969,2.6923828,3.890625,2.6923828,2.4833984,0,3.6796875-1.7050781,3.6796875-3.2011719,0-1.7060547-.7773438-2.7529297-2.9619141-4.5185547l-1.1962891-.9277344c-2.8730469-2.3037109-3.4716797-3.8896484-3.4716797-5.6552734,0-2.7529297,2.1845703-4.6083984,5.5361328-4.6083984,1.046875,0,1.765625.0898438,2.4238281.2392578.5683594.1201172.8076172.1503906,1.0175781.1503906.2089844,0,.2685547.0595703.2685547.1787109,0,.1201172-.1201172,1.1669922-.1201172,2.9033203,0,.4482422-.0585938.6279297-.2089844.6279297-.1494141,0-.1796875-.1191406-.2089844-.3291016-.0302734-.2695312-.0898438-.8974609-.359375-1.40625-.1494141-.2695312-.8378906-1.40625-3.3515625-1.40625-1.7949219,0-3.1416016,1.0771484-3.1416016,2.8720703,0,1.40625.7177734,2.2744141,3.2021484,4.1591797l.6875.5390625c3.1123047,2.3935547,3.9199219,3.9794922,3.9199219,6.1044922,0,1.0771484-.4492188,2.9921875-2.2734375,4.2490234-1.1679688.7480469-2.6035156,1.046875-4.0400391,1.046875-1.2568359,0-2.4238281-.1494141-3.5605469-.6582031Z"/>
      <path class="cls-1" d="m60.8964844,10.7465861c0-3.9501953,0-4.6679688-.0605469-5.4765625-.0595703-.8076172-.2382812-1.2568359-.8671875-1.3759766-.2988281-.0595703-.5087891-.0595703-.6884766-.0898438-.2099609-.0302734-.3291016-.0898438-.3291016-.2099609,0-.1494141.1191406-.2089844.4492188-.2089844.9277344,0,2.6328125.0898438,2.7226562.0898438.1191406,0,1.8554688-.0898438,2.6933594-.0898438.2988281,0,.4492188.0595703.4492188.2089844,0,.1201172-.0898438.1796875-.3300781.2099609-.1796875.0302734-.3291016.0302734-.5380859.0595703-.8681641.1201172-.9580078.5683594-1.0175781,1.4365234-.0595703.8076172-.0302734,1.4960938-.0302734,5.4462891v4.4882812c0,2.3037109-.0292969,4.3984375.1201172,5.4755859.1201172.8681641.2392578,1.1972656,1.0166016,1.3759766.3896484.0898438,1.0175781.1201172,1.1376953.1201172.2695312.0302734.3291016.0898438.3291016.2089844,0,.1201172-.1191406.2099609-.4189453.2099609-1.5263672,0-3.2607422-.0898438-3.4111328-.0898438-.0898438,0-1.8554688.0898438-2.6933594.0898438-.2695312,0-.4785156-.0595703-.4785156-.2099609,0-.1191406.1191406-.2089844.3886719-.2089844.1503906,0,.4785156-.0302734.71875-.0898438.5087891-.1201172.5976562-.7177734.6875-1.4365234.1503906-1.0771484.1503906-3.2011719.1503906-5.4453125v-4.4882812Z"/>
      <path class="cls-1" d="m87.4980469,20.4116252c0,1.1962891-.0292969,1.2265625-.359375,1.40625-1.6445312.8378906-4.0390625,1.1367188-5.5058594,1.1367188-1.9443359,0-5.7148438-.1494141-8.7666016-2.6933594-1.6162109-1.3466797-3.2314453-3.859375-3.2314453-7.2705078,0-4.0693359,2.0644531-6.9726562,4.5175781-8.4384766,2.3046875-1.3466797,4.8476562-1.5263672,6.6738281-1.5263672,1.9140625,0,3.2011719.2392578,4.2783203.4189453.4785156.0898438,1.6455078.2392578,2.2744141.2695312.2392578,0,.2392578.1201172.2392578.2392578,0,.359375-.2099609,1.2568359-.2099609,3.8896484,0,.4189453-.0292969.5390625-.2392578.5390625-.1494141,0-.1787109-.1796875-.2099609-.359375,0-.2685547-.1191406-1.1962891-.5683594-1.8544922-.6875-.9882812-2.8417969-2.0947266-6.1933594-2.0947266-1.6152344,0-3.5009766.0595703-5.5058594,1.5859375-1.5253906,1.1669922-2.5136719,3.4404297-2.5136719,6.4033203,0,3.5605469,1.9453125,6.1933594,2.7226562,6.9414062,1.9755859,1.9150391,4.1894531,2.7832031,6.7929688,2.7832031.8378906,0,2.1542969-.1494141,2.8427734-.5087891.2988281-.1796875.5087891-.4785156.5087891-.8974609v-4.3085938c0-1.9755859-.1503906-2.3642578-1.1972656-2.5136719-.1796875-.0302734-.4785156-.0595703-.71875-.0595703-.2382812,0-.3583984-.1201172-.3583984-.2099609,0-.1494141.1201172-.2089844.4482422-.2089844,1.1972656,0,2.9335938.0595703,3.0527344.0595703s1.8847656-.0595703,2.6933594-.0595703c.2988281,0,.4179688.0595703.4179688.2089844,0,.0898438-.0898438.2099609-.3583984.2099609-.2099609,0-.2695312,0-.5087891.0292969-.71875.0898438-.8974609.6289062-.9570312,1.4960938-.0605469.8681641-.0605469,1.6162109-.0605469,2.6933594v2.6933594Z"/>
      <path class="cls-1" d="m94.5917969,4.2534221c0-.9277344.0898438-1.2275391.328125-1.2275391.2099609,0,.71875.5986328.9277344.8085938.2695312.2988281,4.4287109,4.5478516,8.6181641,8.8271484,2.3339844,2.2734375,5.3261719,5.3554688,6.1044922,6.0742188l-.3300781-12.4482422c-.0292969-1.6152344-.2089844-2.1542969-1.0166016-2.3632812-.5087891-.0898438-.9580078-.1201172-1.1669922-.1201172-.2988281,0-.359375-.1201172-.359375-.2392578,0-.1494141.2392578-.1796875.5390625-.1796875,1.2861328,0,2.5429688.0898438,2.8125.0898438.2988281,0,1.2265625-.0898438,2.3935547-.0898438.3291016,0,.4189453.0302734.4189453.1796875,0,.1191406-.0898438.2089844-.2695312.2392578s-.4179688.0302734-.7480469.0898438c-.6875.1494141-.8974609.4482422-.8974609,2.2441406l-.0595703,15.0214844c0,1.4960938-.0605469,1.6455078-.2695312,1.6455078s-.5087891-.2099609-1.9746094-1.5859375c-.1201172-.0595703-4.2792969-4.1894531-6.8828125-6.7324219-3.1113281-3.2324219-6.1035156-6.34375-6.8515625-7.1220703l.3886719,11.7001953c.0605469,2.0644531.2392578,2.8427734.9873047,3.0214844.4794922.1201172.9873047.1201172,1.2275391.1201172.2382812,0,.3583984.0898438.3583984.2089844,0,.1503906-.1494141.2099609-.4785156.2099609-1.6162109,0-2.6933594-.0898438-2.9033203-.0898438-.2089844,0-1.3164062.0898438-2.6025391.0898438-.2695312,0-.4482422-.0302734-.4482422-.2099609,0-.1191406.1191406-.2089844.4179688-.2089844.2099609,0,.5390625,0,.9277344-.1201172.6582031-.2089844.8085938-1.0166016.8085938-3.2011719,0-14.2734375.0292969-9.6650391,0-14.6318359Z"/>
      <path class="cls-1" d="m120.5058594,10.7465861c0-3.9199219,0-4.6386719-.0595703-5.4462891-.0595703-.8378906-.2695312-1.2568359-1.1376953-1.4365234-.1787109-.0292969-.4785156-.0595703-.7167969-.0595703-.2099609,0-.3896484-.0898438-.3896484-.1796875,0-.1796875.1494141-.2392578.4482422-.2392578.5996094,0,1.40625.0595703,3.0820312.0898438.1503906,0,5.4765625,0,6.0742188-.0302734.5996094-.0292969.9277344-.0595703,1.1679688-.1494141.1796875-.0595703.2089844-.0898438.328125-.0898438.0605469,0,.1201172.0595703.1201172.2099609,0,.1787109-.1787109.5976562-.2392578,1.3457031-.0292969.5087891-.0595703.9882812-.0898438,1.5566406,0,.2695312-.0595703.4482422-.2089844.4482422-.1503906,0-.2099609-.1191406-.2099609-.3291016-.0302734-.4482422-.1201172-.7480469-.2099609-.9570312-.1787109-.5986328-.4482422-.8076172-1.9443359-.8974609-.3896484-.0302734-3.3505859-.0605469-3.4111328-.0605469-.0898438,0-.1494141.0605469-.1494141.2392578v6.7929688c0,.1796875.0302734.2988281.1787109.2988281.359375,0,3.4121094-.0292969,4.0400391-.0898438.6884766-.0292969,1.1376953-.1191406,1.3759766-.4482422.1201172-.1796875.2099609-.2392578.3300781-.2392578.0595703,0,.1191406.0292969.1191406.1787109,0,.1503906-.1191406.71875-.2089844,1.5859375-.0898438.8378906-.0898438,1.4365234-.1201172,1.8261719-.0302734.2392578-.0888672.3291016-.2099609.3291016-.1484375,0-.1787109-.1796875-.1787109-.3896484,0-.1796875-.0302734-.4785156-.0898438-.7177734-.1201172-.3886719-.2998047-.8076172-1.4365234-.8974609-.6875-.0605469-3.1113281-.1201172-3.5898438-.1201172-.1796875,0-.2099609.0898438-.2099609.2099609v2.1835938c0,.9277344-.0302734,3.5615234,0,4.0693359.0595703,1.1074219.2099609,1.6757812.8378906,1.9453125.4482422.2099609,1.1669922.2695312,2.1845703.2695312.5683594,0,1.5253906.0302734,2.2734375-.1796875.8984375-.2695312,1.1074219-.8681641,1.3466797-1.9746094.0595703-.2998047.1494141-.4189453.2695312-.4189453.1787109,0,.1787109.2695312.1787109.4482422,0,.2099609-.2382812,2.0947266-.328125,2.6035156-.1201172.5986328-.3300781.6582031-1.3164062.6582031-1.9755859,0-2.8134766-.0595703-3.8603516-.0595703-1.0478516-.0302734-2.4238281-.0898438-3.53125-.0898438-.6884766,0-1.2568359.0898438-1.9746094.0898438-.2695312,0-.4189453-.0595703-.4189453-.2099609,0-.1191406.1191406-.2089844.2695312-.2089844.1796875,0,.3886719-.0302734.5976562-.0898438.5390625-.1201172.8984375-.5087891.9580078-2.3642578.0302734-1.0166016.0595703-2.2441406.0595703-4.5175781v-4.4882812Z"/>
      <path class="cls-1" d="m136.7255859,10.7465861c0-3.9501953,0-4.6982422-.0595703-5.4765625-.0605469-.8076172-.2998047-1.2265625-1.1679688-1.40625-.1796875-.0292969-.6279297-.0595703-.8671875-.0595703-.1494141,0-.2988281-.0898438-.2988281-.1796875,0-.1796875.1796875-.2392578.4482422-.2392578,1.2275391,0,3.1123047.0898438,3.2021484.0898438.2089844,0,1.765625-.0898438,3.4414062-.0898438,2.6328125,0,7.5400391-.2695312,10.7109375,2.9326172,1.3173828,1.3164062,2.5439453,3.4111328,2.5439453,6.4335938,0,3.1708984-1.3759766,5.6552734-2.8427734,7.1513672-1.1660156,1.1669922-3.4414062,2.9316406-7.9882812,2.9316406-1.1376953,0-2.6035156-.0595703-3.7412109-.1494141-1.1367188-.0595703-2.0644531-.1494141-2.1542969-.1494141-.0595703,0-.4482422,0-1.0166016.0302734-.5693359,0-1.2871094.0595703-1.7363281.0595703-.2695312,0-.4189453-.0595703-.4189453-.2099609,0-.0888672.0898438-.2089844.3291016-.2089844.2402344,0,.4492188-.0302734.6884766-.0898438.5087891-.0898438.6884766-.7177734.7783203-1.3759766.1796875-1.1074219.1494141-3.1425781.1494141-5.5664062v-4.4277344Zm2.4541016,2.5429688c0,2.6933594.0292969,5.0273438.0292969,5.4755859.0292969.9277344.0898438,1.7353516.2988281,2.0048828.3300781.5087891,1.2871094,1.1376953,4.3984375,1.1376953,2.4541016,0,4.6679688-.7783203,6.2246094-2.3339844,1.3164062-1.3173828,1.9453125-3.5615234,1.9453125-5.9550781,0-3.3808594-1.5566406-5.4462891-2.5742188-6.4335938-2.5429688-2.5429688-5.4755859-2.8427734-8.4375-2.8427734-.4199219,0-1.3466797.0898438-1.5263672.2099609-.2392578.1201172-.3291016.2392578-.3291016.5087891-.0292969.8671875-.0292969,3.4111328-.0292969,5.2060547v3.0224609Z"/>
      <path class="cls-1" d="m170.6904297,10.7465861c0-3.9199219,0-4.6679688-.0595703-5.4765625-.0605469-.8076172-.2695312-1.2265625-1.1679688-1.40625-.2382812-.0292969-.6582031-.0595703-.7177734-.0595703-.2685547,0-.3886719-.0898438-.3886719-.2099609,0-.1494141.1787109-.2089844.4482422-.2089844,1.2578125,0,3.0527344.0898438,3.1123047.0898438.7177734,0,1.7060547-.0898438,2.8720703-.0898438,4.4882812,0,5.3867188,2.4833984,5.3867188,3.7705078,0,2.2138672-1.2568359,3.6201172-2.5136719,4.6074219,2.0048828.5986328,4.578125,2.4238281,4.578125,5.3564453,0,2.7832031-2.2441406,5.5654297-6.7929688,5.5654297-.4785156,0-1.0761719-.0595703-1.8544922-.0595703-.8378906-.0595703-1.5556641-.0898438-1.6757812-.0898438-.9277344,0-1.7060547.0898438-2.6923828.0898438-.2695312,0-.4199219-.0595703-.4199219-.1796875,0-.0898438.0302734-.2392578.4199219-.2392578.2089844,0,.2988281,0,.5380859-.0595703.5087891-.0898438.6884766-.71875.7783203-1.4365234.1494141-1.1074219.1494141-3.1416016.1494141-5.4755859v-4.4882812Zm2.3339844.5380859c0,.2099609.0595703.2392578.1494141.2998047.1796875.0292969.5087891.0888672,1.4960938.0888672,1.5253906,0,1.9746094-.0888672,2.5429688-.7177734.4785156-.5683594.7783203-1.40625.7783203-2.3935547,0-2.0644531-.9277344-4.3691406-3.4707031-4.3691406-.2392578,0-.8681641.0605469-1.1376953.1494141-.2695312.0605469-.3583984.1201172-.3583984.2695312v6.6728516Zm0,2.5732422c0,1.8857422,0,5.1767578.0302734,5.4160156.0898438,1.3164062.0585938,1.7060547.9570312,2.0947266.71875.359375,1.9150391.3886719,2.2148438.3886719,1.2861328,0,3.5302734-.6279297,3.5302734-3.3808594,0-1.5263672-.5380859-3.8300781-2.5732422-5.2070312-.8984375-.5380859-1.4365234-.5976562-2.0351562-.6582031-.5078125-.0595703-1.5556641-.0595703-1.9746094,0-.0898438,0-.1494141.0302734-.1494141.1796875v1.1669922Z"/>
      <path class="cls-1" d="m191.7871094,16.1020549c0-1.4355469-.2089844-1.9746094-.6582031-2.7529297-.1796875-.3291016-3.6503906-5.984375-4.578125-7.2705078-.8085938-1.1376953-1.1074219-1.4960938-1.5263672-1.8251953-.4189453-.2998047-.8076172-.4189453-1.40625-.4492188-.1796875,0-.3291016-.0898438-.3291016-.2392578,0-.0898438.1191406-.1796875.359375-.1796875.4785156,0,2.7519531.0898438,2.8125.0898438.1796875,0,1.1669922-.0898438,2.2734375-.0898438.2998047,0,.3896484.0898438.3896484.1796875,0,.1191406-.0898438.1796875-.3291016.2392578-.4189453.0898438-.4785156.2392578-.4785156.4785156,0,.2998047.1796875.5986328.3886719.9873047.3886719.7480469,4.3388672,7.0917969,4.7871094,7.8398438.4785156-1.046875,3.8300781-6.5224609,4.25-7.2705078.5683594-.9882812.6875-1.2568359.6875-1.5859375,0-.3896484-.359375-.3896484-.6875-.4492188-.2402344-.0302734-.3300781-.1201172-.3300781-.2392578,0-.0898438.0605469-.1796875.359375-.1796875.71875,0,1.3466797.0898438,1.8251953.0898438.3896484,0,2.1240234-.0898438,2.6337891-.0898438.2695312,0,.3583984.0898438.3583984.1796875,0,.1494141-.1494141.2392578-.3583984.2392578-.6289062.0302734-1.078125.0898438-1.4960938.3886719-.4492188.2998047-.6289062.5683594-1.1074219,1.2275391-1.7363281,2.3935547-4.6386719,7.2705078-5.0869141,8.3183594-.359375.9277344-.2998047,1.5859375-.2998047,2.3632812v2.1845703c0,.2099609,0,1.3164062.0605469,2.3935547.0595703.71875.1191406,1.2275391,1.046875,1.40625.3886719.0898438.8984375.1201172,1.1074219.1201172.2392578,0,.3291016.0898438.3291016.1796875,0,.1494141-.0898438.2392578-.359375.2392578-1.4960938,0-3.3505859-.0898438-3.4404297-.0898438-.0605469,0-1.8554688.0898438-2.6933594.0898438-.2988281,0-.4189453-.0898438-.4189453-.2392578,0-.0898438.0898438-.1796875.2998047-.1796875.2382812,0,.5078125-.0302734.7480469-.0898438.5078125-.0898438.7167969-.7177734.7773438-1.4365234.0898438-1.0771484.0898438-2.1542969.0898438-2.3935547v-2.1845703Z"/>
      <path class="cls-1" d="m2.6025391,52.3559611c0-4.6679688,0-5.5048828-.0595703-6.4628906-.0605469-1.0175781-.2988281-1.4960938-1.2871094-1.7050781-.2392578-.0605469-.7480469-.0898438-1.0175781-.0898438-.1191406,0-.2382812-.0605469-.2382812-.1796875,0-.1796875.1484375-.2392578.4785156-.2392578,1.3457031,0,3.2304688.0898438,3.3808594.0898438.3291016,0,2.6035156-.0898438,3.53125-.0898438,1.8847656,0,3.8896484.1787109,5.4755859,1.3164062.7480469.5380859,2.0644531,2.0048828,2.0644531,4.0693359,0,2.2138672-.9277344,4.4287109-3.6201172,6.9121094,2.453125,3.1416016,4.4882812,5.8046875,6.2226562,7.6601562,1.6171875,1.7050781,2.9033203,2.0341797,3.6513672,2.1542969.5683594.0898438.9873047.0898438,1.1669922.0898438.1494141,0,.2695312.0898438.2695312.1796875,0,.1796875-.1796875.2392578-.71875.2392578h-2.1240234c-1.6757812,0-2.4238281-.1494141-3.2021484-.5683594-1.2871094-.6884766-2.3339844-2.1542969-4.0390625-4.3984375-1.2568359-1.6464844-2.6640625-3.6513672-3.2617188-4.4287109-.1191406-.1201172-.2089844-.1796875-.3886719-.1796875l-3.6806641-.0595703c-.1494141,0-.2099609.0898438-.2099609.2392578v.7177734c0,2.8730469,0,5.2363281.1503906,6.4931641.0898438.8681641.2685547,1.5263672,1.1660156,1.6455078.4199219.0605469,1.078125.1201172,1.3476562.1201172.1787109,0,.2382812.0898438.2382812.1796875,0,.1494141-.1494141.2392578-.4785156.2392578-1.6455078,0-3.53125-.0898438-3.6796875-.0898438-.03125,0-1.9160156.0898438-2.8134766.0898438-.3291016,0-.4785156-.0595703-.4785156-.2392578,0-.0898438.0595703-.1796875.2392578-.1796875.2695312,0,.6289062-.0595703.8974609-.1201172.5986328-.1191406.7490234-.7773438.8681641-1.6455078.1494141-1.2568359.1494141-3.6201172.1494141-6.4931641v-5.2666016Zm2.3935547,2.6035156c0,.1494141.0605469.2695312.2099609.359375.4482422.2695312,1.8251953.4785156,3.1416016.4785156.71875,0,1.5566406-.0898438,2.2441406-.5683594,1.046875-.7177734,1.8251953-2.3339844,1.8251953-4.6083984,0-3.7402344-1.9746094-5.984375-5.1767578-5.984375-.8974609,0-1.7050781.0898438-2.0039062.1796875-.1503906.0595703-.2402344.1796875-.2402344.359375v9.7841797Z"/>
      <path class="cls-1" d="m27.3808594,59.7768596c0-1.4355469-.2099609-1.9746094-.6582031-2.7529297-.1796875-.3291016-3.6513672-5.984375-4.578125-7.2705078-.8085938-1.1376953-1.1074219-1.4960938-1.5273438-1.8251953-.4179688-.2998047-.8066406-.4189453-1.40625-.4492188-.1796875,0-.328125-.0898438-.328125-.2392578,0-.0898438.1191406-.1796875.3583984-.1796875.4794922,0,2.7529297.0898438,2.8134766.0898438.1787109,0,1.1660156-.0898438,2.2734375-.0898438.2988281,0,.3886719.0898438.3886719.1796875,0,.1191406-.0898438.1796875-.328125.2392578-.4199219.0898438-.4794922.2392578-.4794922.4785156,0,.2998047.1796875.5986328.3896484.9873047.3886719.7480469,4.3378906,7.0917969,4.7871094,7.8398438.4785156-1.046875,3.8300781-6.5224609,4.2490234-7.2705078.5683594-.9882812.6884766-1.2568359.6884766-1.5859375,0-.3896484-.359375-.3896484-.6884766-.4492188-.2392578-.0302734-.3291016-.1201172-.3291016-.2392578,0-.0898438.0595703-.1796875.359375-.1796875.7177734,0,1.3457031.0898438,1.8242188.0898438.3896484,0,2.125-.0898438,2.6337891-.0898438.2695312,0,.3583984.0898438.3583984.1796875,0,.1494141-.1484375.2392578-.3583984.2392578-.6279297.0302734-1.0771484.0898438-1.4960938.3886719-.4482422.2998047-.6279297.5683594-1.1064453,1.2275391-1.7363281,2.3935547-4.6386719,7.2705078-5.0878906,8.3183594-.359375.9277344-.2988281,1.5859375-.2988281,2.3632812v2.1845703c0,.2099609,0,1.3164062.0595703,2.3935547.0595703.71875.1201172,1.2275391,1.0478516,1.40625.3886719.0898438.8974609.1201172,1.1074219.1201172.2382812,0,.328125.0898438.328125.1796875,0,.1494141-.0898438.2392578-.359375.2392578-1.4960938,0-3.3505859-.0898438-3.4404297-.0898438-.0595703,0-1.8544922.0898438-2.6923828.0898438-.2998047,0-.4199219-.0898438-.4199219-.2392578,0-.0898438.0898438-.1796875.2998047-.1796875.2392578,0,.5087891-.0302734.7480469-.0898438.5087891-.0898438.7177734-.7177734.7783203-1.4365234.0898438-1.0771484.0898438-2.1542969.0898438-2.3935547v-2.1845703Z"/>
      <path class="cls-1" d="m42.7617188,57.9819377c0,3.6503906.6884766,5.2060547,1.8261719,6.2236328,1.2861328,1.1367188,2.7226562,1.3769531,3.9492188,1.3769531,1.5556641,0,2.9628906-.4189453,4.0996094-1.7363281,1.1972656-1.3759766,1.4658203-3.6503906,1.4658203-6.2539062v-3.1708984c0-3.9199219,0-4.6083984-.0595703-5.4160156-.0605469-.8681641-.1503906-1.3173828-1.1074219-1.4667969-.2089844-.0292969-.5683594-.0595703-.8378906-.0595703-.1796875,0-.2988281-.0898438-.2988281-.1796875,0-.1796875.1494141-.2392578.4179688-.2392578,1.2871094,0,2.7832031.0898438,2.9033203.0898438.1494141,0,1.4365234-.0898438,2.2744141-.0898438.2988281,0,.4179688.0595703.4179688.2089844,0,.1201172-.1191406.2099609-.2988281.2099609s-.2392578,0-.5390625.0302734c-.8378906.0898438-.9570312.6279297-1.0166016,1.4960938-.0302734.8076172-.0302734,1.4960938-.0302734,5.4160156v2.6630859c0,2.6923828-.2988281,5.9238281-2.4238281,7.75-1.9453125,1.6455078-3.859375,1.7949219-5.4755859,1.7949219-.8378906,0-3.6503906,0-5.5957031-1.7949219-1.2861328-1.1972656-2.2138672-2.9931641-2.2138672-6.703125v-3.7099609c0-3.9501953,0-4.6386719-.0898438-5.4462891-.0292969-.8076172-.1796875-1.3164062-1.1074219-1.4365234-.1796875-.0292969-.5390625-.0595703-.7773438-.0595703-.2099609,0-.3300781-.0898438-.3300781-.1796875,0-.1796875.1201172-.2392578.4492188-.2392578,1.2871094,0,2.9023438.0898438,3.1123047.0898438.2392578,0,2.0048828-.0898438,2.8125-.0898438.3291016,0,.4189453.0595703.4189453.2089844,0,.1503906-.2089844.2099609-.359375.2099609-.1796875,0-.4179688.0302734-.6582031.0595703-.7177734.0898438-.8378906.5986328-.8974609,1.4365234-.0302734.8076172-.0302734,1.4960938-.0302734,5.4462891v3.5605469Z"/>
      <path class="cls-1" d="m69.3945312,58.9096721c0,2.3037109.0302734,4.4287109.1503906,5.5351562.0898438.71875.1484375,1.1376953.8964844,1.3164062.359375.0898438.9277344.1201172,1.1679688.1201172.2392578,0,.359375.0898438.359375.1796875,0,.1494141-.0898438.2392578-.3896484.2392578-1.5263672,0-3.2919922-.0898438-3.4111328-.0898438s-1.8847656.0898438-2.6630859.0898438c-.3291016,0-.4482422-.0595703-.4482422-.2099609,0-.0888672.0888672-.2089844.328125-.2089844.2402344,0,.4199219,0,.6582031-.0302734.5683594-.0898438.6582031-.4482422.7783203-1.4658203.1201172-1.0771484.1201172-3.2314453.1201172-5.4755859v-10.6826172c-.9882812,0-2.5742188,0-3.7705078.0302734-1.9150391.0292969-2.3339844.3291016-2.7529297.9570312-.2695312.4189453-.3886719.7783203-.4492188.9277344-.0898438.2089844-.1494141.2392578-.2695312.2392578-.1191406,0-.1484375-.1191406-.1484375-.2695312-.0302734-.1796875.4179688-2.1542969.5976562-2.9619141.0898438-.359375.1796875-.4785156.2695312-.4785156.2089844,0,.7773438.2685547,1.3164062.3291016,1.046875.1191406,1.8847656.1494141,1.9150391.1494141h9.8154297c.8378906,0,1.734375-.0595703,2.1542969-.1494141.3886719-.0898438.4785156-.1201172.5683594-.1201172.1191406,0,.1796875.1494141.1796875.2695312,0,.8378906-.0605469,2.8125-.0605469,3.0517578,0,.2695312-.1191406.359375-.2089844.359375-.1503906,0-.2099609-.1201172-.2099609-.359375,0-.0898438,0-.1191406-.0302734-.4189453-.1191406-1.1962891-.5078125-1.4960938-3.5302734-1.5253906-1.1376953,0-2.0644531-.0302734-2.9326172-.0302734v10.6826172Z"/>
      <path class="cls-1" d="m83.1904297,58.9995158c-.1494141,0-.2392578.0898438-.2998047.2392578l-1.3164062,3.7402344c-.2988281.8378906-.5078125,1.6455078-.5078125,2.1240234,0,.5390625.328125.7783203.9863281.7783203h.2099609c.2695312,0,.359375.0898438.359375.2089844,0,.1503906-.2392578.2099609-.4492188.2099609-.6582031,0-2.0341797-.0898438-2.3642578-.0898438-.2988281,0-1.6152344.0898438-2.8720703.0898438-.3291016,0-.4785156-.0595703-.4785156-.2099609,0-.1191406.1201172-.2089844.3583984-.2089844.1503906,0,.4199219,0,.5996094-.0302734,1.2861328-.1191406,1.7949219-1.1064453,2.3027344-2.3632812l5.9853516-15.7695312c.3291016-.8671875.4189453-1.0175781.6279297-1.0175781.1503906,0,.2695312.1201172.5986328.9580078.4189453.9873047,4.4882812,11.4306641,6.0742188,15.1708984.9873047,2.3632812,1.8554688,2.7529297,2.2744141,2.9023438.3886719.1494141.8076172.1494141,1.0175781.1494141.2089844,0,.359375.0595703.359375.2089844,0,.1503906-.1210938.2099609-.4492188.2099609-.2998047,0-2.5439453,0-4.5488281-.0595703-.5683594-.0302734-.7480469-.0605469-.7480469-.2099609,0-.0898438.0898438-.1796875.2099609-.2089844.1201172-.0605469.2988281-.2099609.1201172-.6582031l-2.3652344-6.0146484c-.0585938-.0898438-.1191406-.1494141-.2382812-.1494141h-5.4462891Zm5.0869141-1.0478516c.1191406,0,.1191406-.0898438.0898438-.1796875l-2.3642578-6.6123047c-.1494141-.4189453-.1787109-.4189453-.3291016,0l-2.2441406,6.6123047c-.0595703.1201172,0,.1796875.0605469.1796875h4.7871094Z"/>
      <path class="cls-1" d="m100.3378906,54.4213908c0-3.9501953,0-4.6679688-.0605469-5.4765625-.0595703-.8076172-.2695312-1.2568359-1.1972656-1.4355469-.1796875-.0302734-.4785156-.0605469-.7177734-.0605469-.2099609,0-.3291016-.0595703-.3291016-.1796875,0-.1191406.0898438-.2089844.359375-.2089844,1.2871094,0,3.1113281.0898438,3.171875.0898438.2695312,0,2.3037109-.0898438,3.1416016-.0898438,1.6757812,0,3.5009766.1494141,4.9072266,1.1367188.5683594.4189453,1.7949219,1.6162109,1.7949219,3.6513672,0,1.6455078-.8076172,3.7402344-3.171875,5.6552734,2.1855469,2.6923828,3.9804688,4.9072266,5.5058594,6.4931641,1.4365234,1.4658203,2.3339844,1.7050781,3.171875,1.8251953.2099609.0292969.8378906.0595703.9277344.0595703.2402344,0,.3291016.0898438.3291016.2089844,0,.1503906-.1201172.2099609-.5380859.2099609h-2.0947266c-1.40625,0-2.0654297-.0898438-2.7236328-.359375-1.2558594-.5380859-2.1542969-1.8847656-3.7099609-3.8896484-1.1669922-1.4365234-2.3642578-3.0517578-2.8720703-3.6806641-.1201172-.1191406-.1796875-.1796875-.359375-.1796875l-3.0820312-.0292969c-.1191406,0-.1494141.0292969-.1494141.1494141v.4189453c0,2.3935547,0,4.578125.1494141,5.6552734.0898438.7177734.1796875,1.3164062,1.1669922,1.4365234.2998047.0292969.6279297.0595703.8681641.0595703.2695312,0,.3886719.0898438.3886719.1796875,0,.1494141-.1191406.2392578-.4189453.2392578-1.5556641,0-3.2314453-.0898438-3.3515625-.0898438-.4785156,0-1.7958984.0898438-2.6025391.0898438-.2998047,0-.4199219-.0595703-.4199219-.2392578,0-.0898438.1796875-.1796875.359375-.1796875.2089844,0,.4189453,0,.6582031-.0595703.5087891-.0898438.6884766-.4189453.7783203-1.1376953.1494141-1.0771484.1201172-3.5302734.1201172-5.7744141v-4.4882812Zm2.3037109,2.1240234c0,.1494141.0302734.2988281.1494141.359375.3886719.2089844,1.5859375.3886719,2.6630859.3886719.6279297,0,1.3759766-.0302734,2.0048828-.4492188.8974609-.5683594,1.4960938-1.8847656,1.4960938-3.7998047,0-3.2617188-1.7353516-5.0566406-4.3984375-5.0566406-.7480469,0-1.3769531.0595703-1.7363281.1494141-.0898438.0302734-.1787109.1201172-.1787109.2695312v8.1386719Z"/>
      <path class="cls-1" d="m117.2753906,56.635258c0-3.9794922,3.0820312-9.9345703,10.4726562-9.9345703,5.9248047,0,10.4433594,3.53125,10.4433594,9.5458984,0,5.7148438-4.2197266,10.3828125-10.5927734,10.3828125-7.3310547,0-10.3232422-5.4462891-10.3232422-9.9941406Zm18.1035156.359375c0-6.0146484-3.7109375-9.3662109-7.8105469-9.3662109-4.1591797,0-7.5097656,2.5732422-7.5097656,8.2285156,0,5.8652344,3.2607422,9.7548828,8.2880859,9.7548828,2.0048828,0,7.0322266-1.0175781,7.0322266-8.6171875Z"/>
      <path class="cls-1" d="m153.0058594,65.9116252c-.4199219-.2099609-.4492188-.3291016-.4492188-1.1376953,0-1.4960938.1191406-2.6923828.1494141-3.171875.0302734-.3291016.0898438-.4785156.2392578-.4785156.1796875,0,.2089844.0898438.2089844.3291016,0,.2695312,0,.6884766.0898438,1.1074219.4492188,2.2138672,2.4238281,3.0517578,4.4296875,3.0517578,2.8720703,0,4.2783203-2.0644531,4.2783203-3.9794922,0-2.0644531-.8681641-3.2617188-3.4404297-5.3857422l-1.3476562-1.1074219c-3.171875-2.6035156-3.8886719-4.4580078-3.8886719-6.4931641,0-3.2021484,2.3925781-5.3857422,6.1933594-5.3857422,1.1669922,0,2.0351562.1191406,2.7832031.2988281.5683594.1201172.8076172.1494141,1.046875.1494141s.2988281.0605469.2988281.2099609-.1191406,1.1367188-.1191406,3.171875c0,.4785156-.0605469.6875-.2089844.6875-.1796875,0-.2099609-.1494141-.2402344-.3886719-.0292969-.359375-.2089844-1.1669922-.3886719-1.4960938s-.9882812-1.5859375-3.7402344-1.5859375c-2.0644531,0-3.6806641,1.2871094-3.6806641,3.4707031,0,1.7060547.7783203,2.7832031,3.6503906,5.0273438l.8378906.6582031c3.5302734,2.7832031,4.3681641,4.6376953,4.3681641,7.0322266,0,1.2265625-.4785156,3.5009766-2.5429688,4.9667969-1.2871094.8974609-2.9023438,1.2568359-4.5175781,1.2568359-1.40625,0-2.7832031-.2099609-4.0097656-.8076172Z"/>
      <path class="cls-1" d="m172.6054688,58.9995158c-.1484375,0-.2382812.0898438-.2988281.2392578l-1.3164062,3.7402344c-.2988281.8378906-.5087891,1.6455078-.5087891,2.1240234,0,.5390625.3291016.7783203.9873047.7783203h.2089844c.2695312,0,.359375.0898438.359375.2089844,0,.1503906-.2392578.2099609-.4492188.2099609-.6582031,0-2.0341797-.0898438-2.3632812-.0898438-.2988281,0-1.6152344.0898438-2.8730469.0898438-.328125,0-.4785156-.0595703-.4785156-.2099609,0-.1191406.1201172-.2089844.359375-.2089844.1494141,0,.4189453,0,.5986328-.0302734,1.2861328-.1191406,1.7958984-1.1064453,2.3037109-2.3632812l5.984375-15.7695312c.3300781-.8671875.4199219-1.0175781.6289062-1.0175781.1494141,0,.2695312.1201172.5976562.9580078.4199219.9873047,4.4882812,11.4306641,6.0742188,15.1708984.9882812,2.3632812,1.8554688,2.7529297,2.2753906,2.9023438.3886719.1494141.8066406.1494141,1.0166016.1494141s.359375.0595703.359375.2089844c0,.1503906-.1201172.2099609-.4492188.2099609-.2988281,0-2.5439453,0-4.5478516-.0595703-.5683594-.0302734-.7480469-.0605469-.7480469-.2099609,0-.0898438.0898438-.1796875.2089844-.2089844.1201172-.0605469.2988281-.2099609.1201172-.6582031l-2.3642578-6.0146484c-.0595703-.0898438-.1191406-.1494141-.2392578-.1494141h-5.4462891Zm5.0878906-1.0478516c.1191406,0,.1191406-.0898438.0898438-.1796875l-2.3652344-6.6123047c-.1484375-.4189453-.1787109-.4189453-.328125,0l-2.2441406,6.6123047c-.0605469.1201172,0,.1796875.0595703.1796875h4.7880859Z"/>
      <path class="cls-1" d="m189.7226562,54.4213908c0-3.9501953,0-4.6679688-.0595703-5.4765625-.0595703-.8076172-.2392578-1.2568359-.8681641-1.3759766-.2988281-.0595703-.5078125-.0595703-.6875-.0898438-.2099609-.0302734-.3300781-.0898438-.3300781-.2099609,0-.1494141.1201172-.2089844.4492188-.2089844.9277344,0,2.6328125.0898438,2.7226562.0898438.1201172,0,1.8554688-.0898438,2.6933594-.0898438.2988281,0,.4492188.0595703.4492188.2089844,0,.1201172-.0898438.1796875-.3291016.2099609-.1796875.0302734-.3291016.0302734-.5390625.0595703-.8681641.1201172-.9570312.5683594-1.0166016,1.4365234-.0605469.8076172-.0302734,1.4960938-.0302734,5.4462891v4.4882812c0,2.3037109-.0302734,4.3984375.1201172,5.4755859.1191406.8671875.2382812,1.1972656,1.0166016,1.3759766.3896484.0898438,1.0175781.1201172,1.1376953.1201172.2695312.0302734.328125.0898438.328125.2089844,0,.1201172-.1191406.2099609-.4179688.2099609-1.5263672,0-3.2617188-.0898438-3.4121094-.0898438-.0898438,0-1.8544922.0898438-2.6923828.0898438-.2695312,0-.4794922-.0595703-.4794922-.2099609,0-.1191406.1201172-.2089844.3896484-.2089844.1494141,0,.4785156-.0302734.7177734-.0898438.5087891-.1201172.5986328-.7177734.6884766-1.4365234.1494141-1.0771484.1494141-3.2011719.1494141-5.4453125v-4.4882812Z"/>
      <path class="cls-1" d="m207.2880859,58.9096721c0,2.3037109.0302734,4.4287109.1494141,5.5351562.0898438.71875.1503906,1.1376953.8984375,1.3164062.359375.0898438.9277344.1201172,1.1660156.1201172.2402344,0,.359375.0898438.359375.1796875,0,.1494141-.0898438.2392578-.3886719.2392578-1.5253906,0-3.2910156-.0898438-3.4111328-.0898438s-1.8857422.0898438-2.6630859.0898438c-.3291016,0-.4492188-.0595703-.4492188-.2099609,0-.0888672.0898438-.2089844.3300781-.2089844.2382812,0,.4179688,0,.6582031-.0302734.5683594-.0898438.6582031-.4482422.7773438-1.4658203.1191406-1.0771484.1191406-3.2314453.1191406-5.4755859v-10.6826172c-.9863281,0-2.5722656,0-3.7695312.0302734-1.9150391.0292969-2.3339844.3291016-2.7529297.9570312-.2685547.4189453-.3896484.7783203-.4482422.9277344-.0898438.2089844-.1503906.2392578-.2695312.2392578-.1201172,0-.1503906-.1191406-.1503906-.2695312-.0292969-.1796875.4199219-2.1542969.5996094-2.9619141.0888672-.359375.1787109-.4785156.2685547-.4785156.2099609,0,.7783203.2685547,1.3164062.3291016,1.0478516.1191406,1.8857422.1494141,1.9150391.1494141h9.8144531c.8378906,0,1.7363281-.0595703,2.1542969-.1494141.3896484-.0898438.4785156-.1201172.5683594-.1201172.1201172,0,.1796875.1494141.1796875.2695312,0,.8378906-.0595703,2.8125-.0595703,3.0517578,0,.2695312-.1201172.359375-.2099609.359375-.1484375,0-.2089844-.1201172-.2089844-.359375,0-.0898438,0-.1191406-.0292969-.4189453-.1201172-1.1962891-.5097656-1.4960938-3.53125-1.5253906-1.1367188,0-2.0644531-.0302734-2.9326172-.0302734v10.6826172Z"/>
      <path class="cls-1" d="m216.7753906,56.635258c0-3.9794922,3.0820312-9.9345703,10.4726562-9.9345703,5.9248047,0,10.4433594,3.53125,10.4433594,9.5458984,0,5.7148438-4.2197266,10.3828125-10.5927734,10.3828125-7.3310547,0-10.3232422-5.4462891-10.3232422-9.9941406Zm18.1035156.359375c0-6.0146484-3.7109375-9.3662109-7.8105469-9.3662109-4.1591797,0-7.5097656,2.5732422-7.5097656,8.2285156,0,5.8652344,3.2607422,9.7548828,8.2880859,9.7548828,2.0048828,0,7.0322266-1.0175781,7.0322266-8.6171875Z"/>
      <path class="cls-1" d="m250.9492188,43.5893596c.1796875-.3896484.2685547-.4189453.3886719-.4189453.1494141,0,.7480469.2988281.8974609.4482422.1494141.1503906.1201172.2392578,0,.5087891l-10.2041016,22.6816406c-.1191406.2392578-.1796875.2695312-.2685547.2695312-.0898438,0-.8076172-.359375-.9580078-.5087891-.1191406-.1201172-.1191406-.2392578,0-.4794922l10.1445312-22.5009766Z"/>
      <path class="cls-1" d="m259.0292969,52.3559611c0-4.6679688,0-5.5048828-.0605469-6.4628906-.0595703-1.0175781-.2089844-1.4960938-1.1972656-1.7050781-.2382812-.0605469-.7480469-.0898438-1.0166016-.0898438-.2099609,0-.3291016-.0605469-.3291016-.1796875,0-.1796875.1494141-.2392578.4785156-.2392578,1.3466797,0,3.2314453.0898438,3.3808594.0898438.359375,0,2.2441406-.0898438,4.0400391-.0898438,2.9619141,0,8.4384766-.2695312,11.9990234,3.4111328,1.4960938,1.5556641,2.9023438,4.0390625,2.9023438,7.5996094,0,3.7705078-1.5566406,6.6728516-3.2314453,8.4384766-1.2871094,1.3466797-3.9794922,3.4414062-9.0673828,3.4414062-1.2861328,0-2.8720703-.0898438-4.1582031-.1796875-1.3164062-.0898438-2.3339844-.1796875-2.484375-.1796875-.0595703,0-.5683594,0-1.1962891.0302734-.5986328,0-1.2861328.0595703-1.7353516.0595703-.3300781,0-.4785156-.0595703-.4785156-.2392578,0-.0898438.0585938-.1796875.2988281-.1796875.3291016-.0302734.5683594-.0595703.8378906-.1201172.5976562-.1191406.7480469-.7773438.8671875-1.6455078.1503906-1.2568359.1503906-3.6201172.1503906-6.4931641v-5.2666016Zm2.5136719,3.2324219c0,3.1708984.0292969,5.9238281.0585938,6.4931641.03125.7480469.0898438,1.9443359.3300781,2.2734375.3886719.5683594,1.5556641,1.1972656,5.0859375,1.1972656,2.7832031,0,5.3564453-1.0175781,7.1220703-2.7832031,1.5556641-1.5253906,2.3935547-4.3984375,2.3935547-7.1513672,0-3.7998047-1.6455078-6.2539062-2.8720703-7.5400391-2.8134766-2.9628906-6.2236328-3.3818359-9.7841797-3.3818359-.5996094,0-1.7060547.0898438-1.9453125.2099609-.2695312.1191406-.359375.2695312-.359375.5986328-.0292969,1.0166016-.0292969,4.0693359-.0292969,6.3730469v3.7109375Z"/>
      <path class="cls-1" d="m283.0585938,54.9594768c0-4.8476562,3.53125-11.6992188,11.7890625-11.6992188,6.7324219,0,11.7597656,4.2490234,11.7597656,11.2207031,0,6.7021484-4.7275391,12.2382812-11.9394531,12.2382812-8.1982422,0-11.609375-6.3740234-11.609375-11.7597656Zm20.6757812.359375c0-7.1816406-4.3681641-11.0419922-9.0957031-11.0419922-4.9970703,0-8.7373047,3.2919922-8.7373047,9.8447266,0,6.9716797,4.1884766,11.4609375,9.5751953,11.4609375,2.6933594,0,8.2578125-1.5566406,8.2578125-10.2636719Z"/>
      <path class="cls-1" d="m330.578125,63.7563518c0,1.3466797-.0302734,1.4072266-.3886719,1.6162109-1.9160156,1.0175781-4.609375,1.3466797-6.34375,1.3466797-2.2744141,0-6.5234375-.2998047-9.8457031-3.2021484-1.8242188-1.5859375-3.5605469-4.7871094-3.5605469-8.5273438,0-4.7880859,2.3339844-8.1689453,4.9980469-9.8447266,2.6923828-1.6757812,5.6542969-1.8847656,7.9589844-1.8847656,1.8847656,0,4.0097656.3886719,4.578125.5087891.6289062.1494141,1.6757812.2685547,2.4238281.2988281.2988281.0302734.359375.1494141.359375.2695312,0,.4189453-.2099609,1.2568359-.2099609,4.2490234,0,.4785156-.0595703.6279297-.2695312.6279297-.1494141,0-.1787109-.1796875-.2089844-.4482422-.0302734-.4189453-.1796875-1.2568359-.6279297-1.9755859-.7480469-1.1367188-3.171875-2.4238281-7.0322266-2.4238281-1.8857422,0-4.1298828.1796875-6.4033203,1.9755859-1.7363281,1.3759766-2.9628906,4.0986328-2.9628906,7.5996094,0,4.2197266,2.125,7.2714844,3.171875,8.2890625,2.3642578,2.3037109,5.0869141,3.2011719,7.8398438,3.2011719,1.0771484,0,2.6328125-.1796875,3.4111328-.6279297.3896484-.2099609.5986328-.5390625.5986328-1.0478516v-5.0859375c0-2.4238281-.1503906-2.7529297-1.3466797-3.0820312-.2392578-.0605469-.7480469-.0898438-1.0175781-.0898438-.1201172,0-.2392578-.0605469-.2392578-.1796875,0-.1796875.1503906-.2392578.4785156-.2392578,1.3466797,0,3.2324219.0898438,3.3808594.0898438.1503906,0,2.0351562-.0898438,2.9335938-.0898438.328125,0,.4785156.0595703.4785156.2392578,0,.1191406-.1201172.1796875-.2402344.1796875-.2089844,0-.3886719.0292969-.7480469.0898438-.8066406.1494141-1.046875.6582031-1.1064453,1.7050781-.0595703.9580078-.0595703,1.8554688-.0595703,3.1123047v3.3505859Z"/>
    </g>
    <g>
      <path class="cls-1" d="m3.125,97.0844768c0-2.4970703,0-2.9453125-.03125-3.4570312-.0322266-.5449219-.1601562-.8007812-.6884766-.9121094-.1279297-.0322266-.4003906-.0488281-.4638672-.0488281-.1445312,0-.2089844-.03125-.2089844-.0957031,0-.0957031.0800781-.1279297.2568359-.1279297.7197266,0,1.7285156.0478516,1.8085938.0478516.3837891,0,1.0087891-.0478516,1.7451172-.0478516,2.625,0,3.2011719,1.6005859,3.2011719,2.4003906,0,1.3125-.7519531,2.0976562-1.5048828,2.8818359,1.1845703.3681641,2.7685547,1.5039062,2.7685547,3.3769531,0,1.7128906-1.34375,3.4892578-4.0810547,3.4892578-.1767578,0-.6884766-.03125-1.1523438-.0478516-.4638672-.0322266-.9130859-.0478516-.9765625-.0478516-.5126953,0-1.0087891.0478516-1.5693359.0478516-.1757812,0-.2558594-.0322266-.2558594-.1123047,0-.0478516.0322266-.1113281.2402344-.1113281.1289062,0,.2402344-.0166016.3847656-.0478516.3203125-.0644531.3837891-.4326172.4472656-.8964844.0800781-.6728516.0800781-1.9375.0800781-3.4736328v-2.8173828Zm1.28125.3525391c0,.1113281.03125.1435547.1113281.1757812.0966797.015625.3847656.0644531.9765625.0644531.8964844,0,1.1210938-.0322266,1.4570312-.4169922.3359375-.3837891.5761719-.9599609.5761719-1.6162109,0-1.328125-.5917969-2.7529297-2.1611328-2.7529297-.1757812,0-.5126953.015625-.7685547.0800781-.1435547.0322266-.1914062.0800781-.1914062.1757812v4.2900391Zm0,1.6962891c0,1.2324219,0,3.2177734.015625,3.4580078.0488281.7841797.0488281,1.0078125.5449219,1.2480469.4316406.2080078,1.1201172.2402344,1.4082031.2402344.8642578,0,2.2568359-.4638672,2.2568359-2.2734375,0-.9599609-.3203125-2.3525391-1.5527344-3.2011719-.5439453-.3681641-.9443359-.4160156-1.3291016-.4638672-.2070312-.0322266-1.0078125-.0322266-1.2480469-.0322266-.0644531,0-.0957031.0322266-.0957031.1123047v.9121094Z"/>
      <path class="cls-1" d="m14.2294922,100.0942424c0,1.9521484.3681641,2.7851562.9765625,3.3291016.6884766.6083984,1.4560547.7363281,2.1123047.7363281.8330078,0,1.5849609-.2246094,2.1933594-.9287109.640625-.7363281.7841797-1.953125.7841797-3.3457031v-1.6962891c0-2.0966797,0-2.4648438-.0322266-2.8974609-.03125-.4638672-.0800781-.7041016-.5917969-.7841797-.1123047-.015625-.3046875-.0322266-.4482422-.0322266-.0966797,0-.1601562-.0478516-.1601562-.0957031,0-.0957031.0800781-.1279297.2236328-.1279297.6894531,0,1.4892578.0478516,1.5527344.0478516.0800781,0,.7685547-.0478516,1.2167969-.0478516.1601562,0,.2246094.0322266.2246094.1123047,0,.0634766-.0644531.1113281-.1601562.1113281s-.1289062,0-.2890625.0166016c-.4472656.0478516-.5117188.3359375-.5429688.7998047-.0166016.4326172-.0166016.8007812-.0166016,2.8974609v1.4248047c0,1.4404297-.1601562,3.1689453-1.2958984,4.1455078-1.0410156.8808594-2.0654297.9599609-2.9296875.9599609-.4482422,0-1.953125,0-2.9931641-.9599609-.6884766-.640625-1.1845703-1.6005859-1.1845703-3.5849609v-1.9853516c0-2.1123047,0-2.4804688-.0488281-2.9130859-.015625-.4326172-.0957031-.7041016-.5917969-.7685547-.0957031-.015625-.2880859-.0322266-.4160156-.0322266-.1113281,0-.1757812-.0478516-.1757812-.0957031,0-.0957031.0644531-.1279297.2402344-.1279297.6875,0,1.5527344.0478516,1.6640625.0478516.1289062,0,1.0722656-.0478516,1.5048828-.0478516.1767578,0,.2236328.0322266.2236328.1123047s-.1113281.1113281-.1914062.1113281c-.0957031,0-.2246094.0166016-.3525391.0322266-.3837891.0478516-.4482422.3203125-.4794922.7685547-.0166016.4326172-.0166016.8007812-.0166016,2.9130859v1.9052734Z"/>
      <path class="cls-1" d="m25.3496094,98.188969c0-2.1123047,0-2.4970703-.0322266-2.9287109-.0322266-.4326172-.1279297-.6728516-.4638672-.7363281-.1601562-.0322266-.2724609-.0322266-.3691406-.0488281-.1113281-.015625-.1757812-.0478516-.1757812-.1113281,0-.0800781.0644531-.1123047.2402344-.1123047.4960938,0,1.4082031.0478516,1.4570312.0478516.0634766,0,.9921875-.0478516,1.4394531-.0478516.1601562,0,.2402344.0322266.2402344.1123047,0,.0634766-.046875.0957031-.1757812.1113281-.0957031.0166016-.1757812.0166016-.2880859.0322266-.4638672.0644531-.5117188.3046875-.5439453.7685547-.0322266.4326172-.015625.8007812-.015625,2.9130859v2.4013672c0,1.2324219-.0166016,2.3525391.0634766,2.9287109.0634766.4638672.1279297.640625.5439453.7363281.2089844.0478516.5449219.0644531.609375.0644531.1435547.015625.1757812.0478516.1757812.1113281,0,.0644531-.0644531.1123047-.2246094.1123047-.8164062,0-1.7441406-.0478516-1.8242188-.0478516-.0488281,0-.9921875.0478516-1.4414062.0478516-.1435547,0-.2558594-.0322266-.2558594-.1123047,0-.0634766.0644531-.1113281.2080078-.1113281.0800781,0,.2568359-.0166016.3837891-.0478516.2724609-.0644531.3203125-.3847656.3691406-.7685547.0800781-.5761719.0800781-1.7128906.0800781-2.9130859v-2.4013672Z"/>
      <path class="cls-1" d="m32.9335938,100.6215861c0,1.8408203.0644531,2.7695312.3359375,3.0253906.2558594.2246094.5761719.3203125,1.6816406.3203125.703125,0,1.34375,0,1.6953125-.4482422.1601562-.2402344.2734375-.5595703.3046875-.7998047.015625-.1279297.0488281-.1923828.1279297-.1923828.0644531,0,.0966797.0478516.0966797.2080078s-.0966797,1.0722656-.1923828,1.4404297c-.0966797.3203125-.0800781.4003906-.8486328.4003906-1.0878906,0-2.2890625-.0800781-3.8886719-.0800781-.5292969,0-.8496094.0478516-1.4091797.0478516-.1601562,0-.2568359-.0322266-.2568359-.1279297,0-.0478516.0488281-.0957031.1767578-.0957031s.2558594,0,.3837891-.0322266c.2724609-.0478516.3691406-.3681641.4160156-.7519531.0966797-.6083984.0644531-1.7128906.0644531-2.9453125v-2.4013672c0-2.1123047,0-2.4648438-.03125-2.8974609-.0332031-.4482422-.0966797-.7363281-.640625-.7998047-.0957031-.0166016-.2724609-.0166016-.4003906-.0166016-.1123047,0-.1757812-.0478516-.1757812-.1113281,0-.0800781.0800781-.1123047.2402344-.1123047.671875,0,1.6328125.0478516,1.6640625.0478516.2246094,0,1.2011719-.0478516,1.6484375-.0478516.1601562,0,.2089844.0478516.2089844.1123047,0,.0634766-.0800781.1113281-.1767578.1113281-.1123047,0-.2724609.0166016-.4326172.0322266-.4472656.0644531-.5439453.3203125-.5761719.7841797-.03125.4326172-.015625.7851562-.015625,2.8974609v2.4326172Z"/>
      <path class="cls-1" d="m40.0048828,98.188969c0-2.1123047,0-2.5126953-.0322266-2.9287109-.03125-.4326172-.1601562-.65625-.6240234-.7529297-.0966797-.015625-.3359375-.0322266-.4638672-.0322266-.0800781,0-.1601562-.0478516-.1601562-.0957031,0-.0957031.0957031-.1279297.2402344-.1279297.65625,0,1.6640625.0478516,1.7128906.0478516.1113281,0,.9433594-.0478516,1.8398438-.0478516,1.4091797,0,4.0341797-.1445312,5.7304688,1.5683594.7050781.7041016,1.3613281,1.8251953,1.3613281,3.4414062,0,1.6972656-.7363281,3.0253906-1.5214844,3.8261719-.6240234.6240234-1.8398438,1.5683594-4.2734375,1.5683594-.6083984,0-1.3925781-.0322266-2.0009766-.0800781-.6083984-.0322266-1.1044922-.0800781-1.1523438-.0800781-.0322266,0-.2402344,0-.5439453.015625-.3046875,0-.6884766.0322266-.9287109.0322266-.1435547,0-.2236328-.0322266-.2236328-.1123047,0-.0478516.0478516-.1113281.1757812-.1113281s.2402344-.0166016.3681641-.0478516c.2724609-.0488281.3681641-.3847656.4160156-.7363281.0966797-.5927734.0800781-1.6806641.0800781-2.9775391v-2.3691406Zm1.3125,1.3603516c0,1.4404297.0166016,2.6894531.0166016,2.9296875.015625.4960938.046875.9277344.1601562,1.0722656.1757812.2724609.6875.6083984,2.3525391.6083984,1.3125,0,2.4970703-.4160156,3.3291016-1.2490234.7041016-.7041016,1.0410156-1.9042969,1.0410156-3.1845703,0-1.8095703-.8330078-2.9130859-1.3769531-3.4414062-1.3613281-1.3613281-2.9296875-1.5205078-4.5136719-1.5205078-.2246094,0-.7207031.0478516-.8164062.1113281-.1289062.0644531-.1757812.1279297-.1757812.2724609-.0166016.4638672-.0166016,1.8242188-.0166016,2.7851562v1.6162109Z"/>
      <path class="cls-1" d="m58.1640625,98.188969c0-2.0966797,0-2.4970703-.03125-2.9287109-.0322266-.4326172-.1445312-.65625-.625-.7529297-.1269531-.015625-.3515625-.0322266-.3837891-.0322266-.1435547,0-.2080078-.0478516-.2080078-.1113281,0-.0800781.0957031-.1123047.2402344-.1123047.671875,0,1.6328125.0478516,1.6640625.0478516.3847656,0,.9130859-.0478516,1.5371094-.0478516,2.4003906,0,2.8808594,1.328125,2.8808594,2.0166016,0,1.1845703-.671875,1.9365234-1.34375,2.4648438,1.0722656.3203125,2.4492188,1.296875,2.4492188,2.8652344,0,1.4892578-1.2011719,2.9775391-3.6347656,2.9775391-.2558594,0-.5761719-.0322266-.9921875-.0322266-.4472656-.0322266-.8320312-.0478516-.8964844-.0478516-.4960938,0-.9121094.0478516-1.4394531.0478516-.1445312,0-.2246094-.0322266-.2246094-.0957031,0-.0478516.015625-.1279297.2246094-.1279297.1113281,0,.1601562,0,.2871094-.0322266.2724609-.0478516.3691406-.3837891.4160156-.7685547.0800781-.5917969.0800781-1.6806641.0800781-2.9287109v-2.4013672Zm1.2490234.2880859c0,.1123047.0322266.1279297.0800781.1601562.0966797.015625.2724609.0478516.7998047.0478516.8164062,0,1.0566406-.0478516,1.3613281-.3837891.2558594-.3046875.4160156-.7529297.4160156-1.2802734,0-1.1044922-.4960938-2.3369141-1.8574219-2.3369141-.1269531,0-.4638672.03125-.6074219.0800781-.1445312.03125-.1923828.0634766-.1923828.1435547v3.5693359Zm0,1.3769531c0,1.0078125,0,2.7685547.0166016,2.8964844.046875.7050781.03125.9130859.5117188,1.1210938.3847656.1914062,1.0244141.2080078,1.1845703.2080078.6884766,0,1.8886719-.3359375,1.8886719-1.8085938,0-.8164062-.2880859-2.0488281-1.3759766-2.7851562-.4804688-.2880859-.7695312-.3203125-1.0888672-.3525391-.2724609-.0322266-.8330078-.0322266-1.0566406,0-.0478516,0-.0800781.0166016-.0800781.0957031v.625Z"/>
      <path class="cls-1" d="m69.4453125,101.0542033c0-.7685547-.1132812-1.0566406-.3525391-1.4726562-.0966797-.1757812-1.953125-3.2011719-2.4492188-3.8896484-.4326172-.6083984-.5927734-.7998047-.8164062-.9765625-.2236328-.1601562-.4326172-.2236328-.7519531-.2402344-.0966797,0-.1767578-.0478516-.1767578-.1279297,0-.0478516.0644531-.0957031.1923828-.0957031.2568359,0,1.4726562.0478516,1.5048828.0478516.0957031,0,.6240234-.0478516,1.2167969-.0478516.1601562,0,.2070312.0478516.2070312.0957031,0,.0644531-.046875.0966797-.1757812.1279297-.2236328.0488281-.2558594.1289062-.2558594.2568359,0,.1601562.0957031.3203125.2080078.5283203.2080078.3994141,2.3212891,3.7929688,2.5615234,4.1933594.2558594-.5605469,2.0488281-3.4892578,2.2724609-3.8896484.3037109-.5283203.3681641-.671875.3681641-.8486328,0-.2080078-.1914062-.2080078-.3681641-.2402344-.1279297-.015625-.1757812-.0634766-.1757812-.1279297,0-.0478516.0322266-.0957031.1923828-.0957031.3837891,0,.7197266.0478516.9765625.0478516.2070312,0,1.1357422-.0478516,1.4082031-.0478516.1445312,0,.1914062.0478516.1914062.0957031,0,.0800781-.0800781.1279297-.1914062.1279297-.3359375.0166016-.5761719.0488281-.8007812.2089844-.2402344.1591797-.3359375.3037109-.5917969.65625-.9287109,1.2802734-2.4814453,3.8886719-2.7207031,4.4492188-.1933594.4960938-.1601562.8486328-.1601562,1.2646484v1.1689453c0,.1113281,0,.7041016.03125,1.2802734.0322266.3837891.0644531.65625.5605469.7519531.2080078.0478516.4804688.0644531.5917969.0644531.1289062,0,.1757812.0478516.1757812.0957031,0,.0800781-.046875.1279297-.1914062.1279297-.8007812,0-1.7929688-.0478516-1.8408203-.0478516-.0322266,0-.9921875.0478516-1.4404297.0478516-.1601562,0-.2246094-.0478516-.2246094-.1279297,0-.0478516.0488281-.0957031.1601562-.0957031.1289062,0,.2724609-.0166016.4003906-.0478516.2724609-.0488281.3847656-.3847656.4160156-.7685547.0488281-.5761719.0488281-1.1523438.0488281-1.2802734v-1.1689453Z"/>
      <path class="cls-1" d="m84.0683594,100.9262736c0,2.5927734,0,3.5849609-.4804688,4.7216797-.3359375.8007812-1.0400391,1.5527344-2.3359375,2.4492188-.2089844.1435547-.4648438.3203125-.625.4003906-.03125.015625-.0634766.03125-.1113281.03125-.0488281,0-.1123047-.03125-.1123047-.0957031,0-.0957031.0800781-.1435547.2236328-.2402344.1923828-.1123047.4160156-.3037109.5605469-.4482422,1.0410156-1.0556641,1.5371094-1.9042969,1.5371094-6.0341797v-4.6259766c0-2.4970703,0-2.9453125-.0322266-3.4570312-.0322266-.5449219-.1601562-.8007812-.6884766-.9121094-.1279297-.0322266-.3515625-.0488281-.4960938-.0488281-.1123047,0-.1757812-.0478516-.1757812-.1113281,0-.0644531.0634766-.1123047.2402344-.1123047.7197266,0,1.7441406.0478516,1.8242188.0478516s1.0878906-.0478516,1.5683594-.0478516c.1757812,0,.2558594.0322266.2558594.1279297,0,.0644531-.0800781.0957031-.1757812.0957031-.1113281,0-.2402344.0166016-.3837891.0322266-.4326172.0478516-.5283203.3681641-.5605469.9287109-.0322266.5117188-.0322266.9599609-.0322266,3.4570312v3.8417969Z"/>
      <path class="cls-1" d="m90.5332031,101.0542033c0-.7685547-.1132812-1.0566406-.3525391-1.4726562-.0966797-.1757812-1.953125-3.2011719-2.4492188-3.8896484-.4326172-.6083984-.5927734-.7998047-.8164062-.9765625-.2236328-.1601562-.4326172-.2236328-.7519531-.2402344-.0966797,0-.1767578-.0478516-.1767578-.1279297,0-.0478516.0644531-.0957031.1923828-.0957031.2568359,0,1.4726562.0478516,1.5048828.0478516.0957031,0,.6240234-.0478516,1.2167969-.0478516.1601562,0,.2070312.0478516.2070312.0957031,0,.0644531-.046875.0966797-.1757812.1279297-.2236328.0488281-.2558594.1289062-.2558594.2568359,0,.1601562.0957031.3203125.2080078.5283203.2080078.3994141,2.3212891,3.7929688,2.5615234,4.1933594.2558594-.5605469,2.0488281-3.4892578,2.2724609-3.8896484.3037109-.5283203.3681641-.671875.3681641-.8486328,0-.2080078-.1914062-.2080078-.3681641-.2402344-.1279297-.015625-.1757812-.0634766-.1757812-.1279297,0-.0478516.0322266-.0957031.1923828-.0957031.3837891,0,.7197266.0478516.9765625.0478516.2070312,0,1.1357422-.0478516,1.4082031-.0478516.1445312,0,.1914062.0478516.1914062.0957031,0,.0800781-.0800781.1279297-.1914062.1279297-.3359375.0166016-.5761719.0488281-.8007812.2089844-.2402344.1591797-.3359375.3037109-.5917969.65625-.9287109,1.2802734-2.4814453,3.8886719-2.7207031,4.4492188-.1933594.4960938-.1601562.8486328-.1601562,1.2646484v1.1689453c0,.1113281,0,.7041016.03125,1.2802734.0322266.3837891.0644531.65625.5605469.7519531.2080078.0478516.4804688.0644531.5917969.0644531.1289062,0,.1757812.0478516.1757812.0957031,0,.0800781-.046875.1279297-.1914062.1279297-.8007812,0-1.7929688-.0478516-1.8408203-.0478516-.0322266,0-.9921875.0478516-1.4404297.0478516-.1601562,0-.2246094-.0478516-.2246094-.1279297,0-.0478516.0488281-.0957031.1601562-.0957031.1289062,0,.2724609-.0166016.4003906-.0478516.2724609-.0488281.3847656-.3847656.4160156-.7685547.0488281-.5761719.0488281-1.1523438.0488281-1.2802734v-1.1689453Z"/>
      <path class="cls-1" d="m98.7558594,100.0942424c0,1.9521484.3681641,2.7851562.9765625,3.3291016.6875.6083984,1.4570312.7363281,2.1132812.7363281.8320312,0,1.5839844-.2246094,2.1923828-.9287109.6396484-.7363281.7841797-1.953125.7841797-3.3457031v-1.6962891c0-2.0966797,0-2.4648438-.03125-2.8974609-.0332031-.4638672-.0800781-.7041016-.5927734-.7841797-.1123047-.015625-.3037109-.0322266-.4482422-.0322266-.0957031,0-.1601562-.0478516-.1601562-.0957031,0-.0957031.0800781-.1279297.2246094-.1279297.6875,0,1.4882812.0478516,1.5527344.0478516.0800781,0,.7675781-.0478516,1.2158203-.0478516.1601562,0,.2236328.0322266.2236328.1123047,0,.0634766-.0634766.1113281-.1601562.1113281-.0957031,0-.1269531,0-.2871094.0166016-.4492188.0478516-.5126953.3359375-.5449219.7998047-.015625.4326172-.015625.8007812-.015625,2.8974609v1.4248047c0,1.4404297-.1601562,3.1689453-1.296875,4.1455078-1.0400391.8808594-2.0644531.9599609-2.9287109.9599609-.4482422,0-1.953125,0-2.9931641-.9599609-.6884766-.640625-1.1845703-1.6005859-1.1845703-3.5849609v-1.9853516c0-2.1123047,0-2.4804688-.0478516-2.9130859-.015625-.4326172-.0957031-.7041016-.5927734-.7685547-.0957031-.015625-.2880859-.0322266-.4160156-.0322266-.1123047,0-.1757812-.0478516-.1757812-.0957031,0-.0957031.0634766-.1279297.2392578-.1279297.6894531,0,1.5527344.0478516,1.6650391.0478516.1279297,0,1.0732422-.0478516,1.5048828-.0478516.1757812,0,.2246094.0322266.2246094.1123047s-.1132812.1113281-.1923828.1113281c-.0966797,0-.2236328.0166016-.3525391.0322266-.3837891.0478516-.4482422.3203125-.4804688.7685547-.015625.4326172-.015625.8007812-.015625,2.9130859v1.9052734Z"/>
      <path class="cls-1" d="m111.1875,98.9409221c.7363281-.65625,2.4814453-2.3203125,3.2011719-3.1044922.7695312-.8486328.8330078-.9287109.8330078-1.1044922,0-.1123047-.0634766-.1923828-.2558594-.2568359-.1123047-.03125-.1767578-.0634766-.1767578-.1279297,0-.0478516.0322266-.0957031.1601562-.0957031.0957031,0,.5761719.0478516,1.0888672.0478516.4794922,0,1.3603516-.0478516,1.5683594-.0478516.2236328,0,.2568359.0322266.2568359.0957031,0,.0644531-.0488281.1123047-.1767578.1279297-.2558594.0166016-.5927734.0800781-.7841797.1601562-.3847656.1289062-.5917969.3046875-1.4238281,1.0566406-1.1689453,1.0566406-2.5615234,2.4169922-3.265625,3.0576172.8632812.8964844,3.4570312,3.4570312,4.1289062,4.0654297,1.1210938,1.0244141,1.6650391,1.3125,2.3046875,1.4570312.1767578.03125.0966797.015625.3691406.0478516.1435547.015625.2236328.0478516.2236328.1279297,0,.0634766-.0800781.0957031-.2558594.0957031h-1.0400391c-1.2490234,0-1.5693359-.1435547-2.2089844-.5917969-.7207031-.5126953-3.28125-3.1376953-4.546875-4.6259766v1.2646484c0,1.2324219-.015625,2.3525391.0644531,2.9287109.0644531.4638672.1289062.640625.5449219.7363281.2070312.0478516.5429688.0644531.6074219.0644531.1445312.015625.1757812.0478516.1757812.1113281,0,.0644531-.0634766.1123047-.2236328.1123047-.8164062,0-1.7451172-.0478516-1.8251953-.0478516-.046875,0-.9921875.0478516-1.4394531.0478516-.1445312,0-.2568359-.0322266-.2568359-.1123047,0-.0634766.0634766-.1113281.2080078-.1113281.0800781,0,.2558594-.0166016.3847656-.0478516.2714844-.0644531.3203125-.3847656.3671875-.7685547.0800781-.5761719.0800781-1.7128906.0800781-2.9130859v-2.4013672c0-2.1123047,0-2.4970703-.03125-2.9287109-.0322266-.4326172-.1289062-.6728516-.4648438-.7363281-.1601562-.0322266-.2714844-.0322266-.3671875-.0488281-.1132812-.015625-.1767578-.0478516-.1767578-.1113281,0-.0800781.0634766-.1123047.2402344-.1123047.4960938,0,1.4091797.0478516,1.4560547.0478516.0644531,0,.9931641-.0478516,1.4414062-.0478516.1601562,0,.2402344.0322266.2402344.1123047,0,.0634766-.0488281.0957031-.1757812.1113281-.0966797.0166016-.1767578.0166016-.2890625.0322266-.4638672.0644531-.5117188.3046875-.5439453.7685547-.0322266.4326172-.0166016.8007812-.0166016,2.9130859v.7519531Z"/>
      <path class="cls-1" d="m122.4355469,101.0542033c0-.7685547-.1113281-1.0566406-.3515625-1.4726562-.0957031-.1757812-1.953125-3.2011719-2.4492188-3.8896484-.4316406-.6083984-.5917969-.7998047-.8164062-.9765625-.2246094-.1601562-.4316406-.2236328-.7519531-.2402344-.0957031,0-.1757812-.0478516-.1757812-.1279297,0-.0478516.0634766-.0957031.1914062-.0957031.2558594,0,1.4726562.0478516,1.5048828.0478516.0957031,0,.6240234-.0478516,1.2158203-.0478516.1601562,0,.2089844.0478516.2089844.0957031,0,.0644531-.0488281.0966797-.1757812.1279297-.2246094.0488281-.2568359.1289062-.2568359.2568359,0,.1601562.0966797.3203125.2080078.5283203.2089844.3994141,2.3212891,3.7929688,2.5605469,4.1933594.2568359-.5605469,2.0488281-3.4892578,2.2734375-3.8896484.3046875-.5283203.3681641-.671875.3681641-.8486328,0-.2080078-.1923828-.2080078-.3681641-.2402344-.1279297-.015625-.1757812-.0634766-.1757812-.1279297,0-.0478516.03125-.0957031.1914062-.0957031.3847656,0,.7207031.0478516.9765625.0478516.2089844,0,1.1367188-.0478516,1.4091797-.0478516.1435547,0,.1923828.0478516.1923828.0957031,0,.0800781-.0800781.1279297-.1923828.1279297-.3369141.0166016-.5771484.0488281-.8007812.2089844-.2392578.1591797-.3359375.3037109-.5917969.65625-.9287109,1.2802734-2.4814453,3.8886719-2.7216797,4.4492188-.1914062.4960938-.1601562.8486328-.1601562,1.2646484v1.1689453c0,.1113281,0,.7041016.0322266,1.2802734.0322266.3837891.0644531.65625.5605469.7519531.2080078.0478516.4794922.0644531.5927734.0644531.1269531,0,.1757812.0478516.1757812.0957031,0,.0800781-.0488281.1279297-.1923828.1279297-.7998047,0-1.7929688-.0478516-1.8408203-.0478516-.03125,0-.9921875.0478516-1.4404297.0478516-.1601562,0-.2236328-.0478516-.2236328-.1279297,0-.0478516.046875-.0957031.1601562-.0957031.1269531,0,.2714844-.0166016.3994141-.0478516.2724609-.0488281.3837891-.3847656.4169922-.7685547.046875-.5761719.046875-1.1523438.046875-1.2802734v-1.1689453Z"/>
      <path class="cls-1" d="m128.546875,99.3735393c0-2.1289062,1.6484375-5.3144531,5.6015625-5.3144531,3.1699219,0,5.5859375,1.8886719,5.5859375,5.1064453,0,3.0576172-2.2558594,5.5537109-5.6660156,5.5537109-3.921875,0-5.5214844-2.9130859-5.5214844-5.3457031Zm9.6835938.1923828c0-3.2177734-1.984375-5.0107422-4.1777344-5.0107422-2.2246094,0-4.0175781,1.3769531-4.0175781,4.4023438,0,3.1367188,1.7441406,5.2177734,4.4335938,5.2177734,1.0722656,0,3.7617188-.5439453,3.7617188-4.609375Z"/>
      <path class="cls-1" d="m156.1503906,103.1831096c0,.7207031-.015625.7519531-.2080078.8642578-1.0244141.5439453-2.4658203.7207031-3.3935547.7207031-1.2167969,0-3.4892578-.1601562-5.265625-1.7128906-.9765625-.8486328-1.9052734-2.5615234-1.9052734-4.5615234,0-2.5615234,1.2490234-4.3701172,2.6728516-5.2666016,1.4414062-.8964844,3.0253906-1.0087891,4.2578125-1.0087891,1.0087891,0,2.1445312.2080078,2.4492188.2724609.3359375.0800781.8964844.1445312,1.296875.1601562.1601562.015625.1914062.0800781.1914062.1435547,0,.2246094-.1113281.6728516-.1113281,2.2734375,0,.2558594-.0332031.3359375-.1445312.3359375-.0800781,0-.0957031-.0957031-.1123047-.2402344-.015625-.2236328-.0957031-.671875-.3359375-1.0566406-.3994141-.6074219-1.6962891-1.2958984-3.7617188-1.2958984-1.0087891,0-2.2080078.0957031-3.4248047,1.0566406-.9287109.7363281-1.5849609,2.1923828-1.5849609,4.0654297,0,2.2568359,1.1357422,3.8896484,1.6962891,4.4335938,1.2646484,1.2324219,2.7216797,1.7128906,4.1933594,1.7128906.5771484,0,1.4091797-.0966797,1.8261719-.3359375.2070312-.1123047.3193359-.2880859.3193359-.5605469v-2.7207031c0-1.296875-.0800781-1.4726562-.7197266-1.6494141-.1289062-.03125-.4003906-.0478516-.5449219-.0478516-.0644531,0-.1279297-.0322266-.1279297-.0957031,0-.0966797.0800781-.1279297.2568359-.1279297.7197266,0,1.7285156.0478516,1.8085938.0478516s1.0878906-.0478516,1.5683594-.0478516c.1757812,0,.2558594.03125.2558594.1279297,0,.0634766-.0644531.0957031-.1279297.0957031-.1123047,0-.2080078.0166016-.4003906.0478516-.4326172.0800781-.5595703.3525391-.5927734.9130859-.03125.5117188-.03125.9921875-.03125,1.6640625v1.7929688Z"/>
      <path class="cls-1" d="m160.6425781,98.188969c0-2.1123047,0-2.4970703-.0322266-2.9287109-.0322266-.4326172-.1435547-.6728516-.6396484-.7685547-.0966797-.0166016-.2558594-.0322266-.3847656-.0322266-.1113281,0-.1757812-.0322266-.1757812-.0957031,0-.0644531.0478516-.1123047.1914062-.1123047.6894531,0,1.6650391.0478516,1.6972656.0478516.1445312,0,1.2324219-.0478516,1.6806641-.0478516.8964844,0,1.8720703.0800781,2.625.6083984.3037109.2236328.9599609.8642578.9599609,1.953125,0,.8798828-.4316406,2-1.6962891,3.0244141,1.1689453,1.4404297,2.1289062,2.625,2.9453125,3.4736328.7685547.7841797,1.2490234.9121094,1.6962891.9765625.1123047.015625.4492188.0322266.4960938.0322266.1289062,0,.1767578.0478516.1767578.1113281,0,.0800781-.0644531.1123047-.2880859.1123047h-1.1210938c-.7519531,0-1.1035156-.0478516-1.4560547-.1923828-.6728516-.2880859-1.1533203-1.0078125-1.9853516-2.0800781-.6240234-.7685547-1.2636719-1.6328125-1.5361328-1.96875-.0634766-.0644531-.0966797-.0966797-.1923828-.0966797l-1.6484375-.015625c-.0644531,0-.0800781.015625-.0800781.0800781v.2236328c0,1.28125,0,2.4492188.0800781,3.0253906.0478516.3847656.0957031.7041016.6240234.7685547.1601562.015625.3369141.0322266.4638672.0322266.1445312,0,.2089844.0478516.2089844.0957031,0,.0800781-.0644531.1279297-.2246094.1279297-.8320312,0-1.7285156-.0478516-1.7929688-.0478516-.2558594,0-.9599609.0478516-1.3925781.0478516-.1601562,0-.2236328-.0322266-.2236328-.1279297,0-.0478516.0966797-.0957031.1923828-.0957031.1113281,0,.2236328,0,.3515625-.0322266.2724609-.0478516.3681641-.2246094.4160156-.6083984.0800781-.5761719.0644531-1.8886719.0644531-3.0888672v-2.4013672Zm1.2324219,1.1367188c0,.0800781.015625.1601562.0800781.1923828.2080078.1113281.8476562.2080078,1.4238281.2080078.3369141,0,.7363281-.0166016,1.0732422-.2402344.4794922-.3046875.7998047-1.0087891.7998047-2.0332031,0-1.7441406-.9277344-2.7050781-2.3525391-2.7050781-.4003906,0-.7363281.0322266-.9287109.0800781-.0478516.015625-.0957031.0644531-.0957031.1445312v4.3535156Z"/>
      <path class="cls-1" d="m169.6972656,99.3735393c0-2.1289062,1.6484375-5.3144531,5.6025391-5.3144531,3.1689453,0,5.5869141,1.8886719,5.5869141,5.1064453,0,3.0576172-2.2578125,5.5537109-5.6669922,5.5537109-3.9208984,0-5.5224609-2.9130859-5.5224609-5.3457031Zm9.6845703.1923828c0-3.2177734-1.9853516-5.0107422-4.1777344-5.0107422-2.2255859,0-4.0175781,1.3769531-4.0175781,4.4023438,0,3.1367188,1.7451172,5.2177734,4.4335938,5.2177734,1.0722656,0,3.7617188-.5439453,3.7617188-4.609375Z"/>
      <path class="cls-1" d="m184.7705078,100.0942424c0,1.9521484.3681641,2.7851562.9765625,3.3291016.6884766.6083984,1.4560547.7363281,2.1123047.7363281.8330078,0,1.5849609-.2246094,2.1933594-.9287109.640625-.7363281.7841797-1.953125.7841797-3.3457031v-1.6962891c0-2.0966797,0-2.4648438-.0322266-2.8974609-.03125-.4638672-.0800781-.7041016-.5917969-.7841797-.1123047-.015625-.3046875-.0322266-.4482422-.0322266-.0966797,0-.1601562-.0478516-.1601562-.0957031,0-.0957031.0800781-.1279297.2236328-.1279297.6894531,0,1.4892578.0478516,1.5527344.0478516.0800781,0,.7685547-.0478516,1.2167969-.0478516.1601562,0,.2246094.0322266.2246094.1123047,0,.0634766-.0644531.1113281-.1601562.1113281s-.1289062,0-.2890625.0166016c-.4472656.0478516-.5117188.3359375-.5429688.7998047-.0166016.4326172-.0166016.8007812-.0166016,2.8974609v1.4248047c0,1.4404297-.1601562,3.1689453-1.2958984,4.1455078-1.0410156.8808594-2.0654297.9599609-2.9296875.9599609-.4482422,0-1.953125,0-2.9931641-.9599609-.6884766-.640625-1.1845703-1.6005859-1.1845703-3.5849609v-1.9853516c0-2.1123047,0-2.4804688-.0488281-2.9130859-.015625-.4326172-.0957031-.7041016-.5917969-.7685547-.0957031-.015625-.2880859-.0322266-.4160156-.0322266-.1113281,0-.1757812-.0478516-.1757812-.0957031,0-.0957031.0644531-.1279297.2402344-.1279297.6875,0,1.5527344.0478516,1.6640625.0478516.1289062,0,1.0722656-.0478516,1.5048828-.0478516.1767578,0,.2236328.0322266.2236328.1123047s-.1113281.1113281-.1914062.1113281c-.0957031,0-.2246094.0166016-.3525391.0322266-.3837891.0478516-.4482422.3203125-.4794922.7685547-.0166016.4326172-.0166016.8007812-.0166016,2.9130859v1.9052734Z"/>
      <path class="cls-1" d="m195.90625,98.188969c0-2.2089844,0-2.4970703-.0322266-2.9287109-.0322266-.4169922-.1601562-.6728516-.6083984-.7685547-.1113281-.0166016-.3671875-.0322266-.4960938-.0322266-.03125,0-.0957031-.0322266-.0957031-.0800781,0-.0957031.0800781-.1279297.2246094-.1279297.6875,0,1.5683594.0478516,1.6640625.0478516.3359375,0,1.1523438-.0478516,1.8085938-.0478516,1.7607422,0,2.4003906.5761719,2.625.7685547.3046875.2714844.7050781.8964844.7050781,1.7929688,0,1.7763672-1.4726562,3.0722656-3.4746094,3.0722656-.0634766,0-.2236328,0-.3037109-.015625-.0634766,0-.1435547-.0322266-.1435547-.0957031,0-.1279297.0957031-.1279297.4003906-.1279297,1.2636719,0,2.3203125-.8642578,2.3203125-2.2734375,0-.2080078.0478516-1.1679688-.6884766-1.9365234-.7841797-.8320312-1.6962891-.7519531-1.984375-.7519531-.2080078,0-.4482422.03125-.5439453.0800781-.0800781.03125-.0966797.1435547-.0966797.2558594v5.5380859c0,1.2324219,0,2.3847656.0644531,2.9609375.0478516.3847656.1279297.7041016.5595703.7529297.1923828.03125.5126953.0634766.640625.0634766.0644531,0,.0957031.0322266.0957031.0800781,0,.0800781-.0634766.1279297-.2236328.1279297-.8330078,0-1.7294922-.0478516-1.8085938-.0478516-.0166016,0-.9599609.0478516-1.4091797.0478516-.1435547,0-.2236328-.0322266-.2236328-.1279297,0-.0478516.0322266-.0800781.1123047-.0800781.1113281,0,.2871094-.0322266.4160156-.0634766.2880859-.0488281.3681641-.3681641.4160156-.7529297.0800781-.5761719.0800781-1.7285156.0800781-2.9287109v-2.4013672Z"/>
    </g>
  </g>
</svg>