<?xml version="1.0" encoding="UTF-8"?>
<svg id="_レイヤー_2" data-name="レイヤー 2" xmlns="http://www.w3.org/2000/svg" viewBox="0 0 416.2255859 210.6030273">
  <defs>
    <style>
      .cls-1 {
        fill: #ff0;
      }

      .cls-1, .cls-2 {
        stroke-width: 0px;
      }

      .cls-2 {
        fill: #fff;
      }
    </style>
  </defs>
  <g id="_レイヤー_1-2" data-name="レイヤー 1">
    <g>
      <path class="cls-1" d="m16.2011719,30.6586914c-.3222656,0-.5166016.1938477-.6455078.5166016l-3.8720703,11.4243164c-.5820312,1.6137695-.9042969,3.1625977-.9042969,4.3242188,0,1.2910156,1.2265625,1.8720703,2.3242188,1.8720703h.5800781c.6464844,0,.8398438.1289062.8398438.387207,0,.387207-.5820312.5166016-1.1621094.5166016-1.5488281,0-4.1308594-.1938477-4.8408203-.1938477s-4.2607422.1938477-7.2939453.1938477c-.8388672,0-1.2265625-.1293945-1.2265625-.5166016,0-.2583008.3232422-.387207.9042969-.387207.4511719,0,1.0332031-.0644531,1.5488281-.1289062,2.96875-.3876953,4.2597656-2.840332,5.421875-6.0673828L22.5263672,2.5175781c.7744141-2.1303711,1.0322266-2.5175781,1.4199219-2.5175781s.6455078.3227539,1.4208984,2.3237305c.9667969,2.4526367,11.1015625,29.1098633,15.0380859,38.9204102,2.3232422,5.7446289,4.1953125,6.7773438,5.5507812,7.1645508.9677734.3227539,2.0009766.387207,2.5175781.387207.3876953,0,.7099609.0644531.7099609.387207,0,.387207-.5810547.5166016-1.2910156.5166016-.96875,0-5.6796875,0-10.1328125-.1293945-1.2265625-.0644531-1.9375-.0644531-1.9375-.4516602,0-.2583008.1943359-.387207.4521484-.4516602.3876953-.1293945.7744141-.7099609.3876953-1.7431641l-6.0029297-15.8779297c-.1289062-.2578125-.2587891-.387207-.5810547-.387207h-13.8769531Zm13.0380859-2.3237305c.3232422,0,.3232422-.1933594.2587891-.4516602l-6.1328125-17.4267578c-.3222656-.9682617-.6445312-.9682617-.9677734,0l-5.6796875,17.4267578c-.1298828.3227539,0,.4516602.1933594.4516602h12.328125Z"/>
      <path class="cls-2" d="m58.4101562,19.621582c0-10.0688477,0-11.8759766-.1289062-13.9414062-.1289062-2.1948242-.6445312-3.2275391-2.7753906-3.6791992-.515625-.1289062-1.6132812-.1938477-2.1933594-.1938477-.2587891,0-.5175781-.1289062-.5175781-.387207,0-.387207.3232422-.5161133,1.0332031-.5161133,2.9042969,0,6.9707031.1933594,7.2929688.1933594.7109375,0,5.6162109-.1933594,7.6171875-.1933594,4.0664062,0,8.390625.387207,11.8115234,2.8398438,1.6132812,1.1616211,4.4541016,4.324707,4.4541016,8.7783203,0,4.7758789-2.0019531,9.5522461-7.8105469,14.909668,5.2929688,6.7773438,9.6816406,12.5214844,13.4257812,16.5234375,3.484375,3.6791992,6.2597656,4.3891602,7.8740234,4.6469727,1.2255859.1938477,2.1298828.1938477,2.5166016.1938477.3232422,0,.5820312.1933594.5820312.387207,0,.387207-.3876953.5166016-1.5498047.5166016h-4.5830078c-3.6142578,0-5.2275391-.3227539-6.90625-1.2265625-2.7753906-1.484375-5.0341797-4.6469727-8.7128906-9.4882812-2.7109375-3.5498047-5.7441406-7.8740234-7.0351562-9.5522461-.2587891-.2583008-.4521484-.387207-.8398438-.387207l-7.9384766-.1293945c-.3232422,0-.4521484.1938477-.4521484.5166016v1.5488281c0,6.1962891,0,11.2954102.3222656,14.0063477.1943359,1.871582.5820312,3.2915039,2.5175781,3.5498047.9042969.1293945,2.3242188.2583008,2.9042969.2583008.3876953,0,.5175781.1933594.5175781.387207,0,.3227539-.3232422.5166016-1.0332031.5166016-3.5507812,0-7.6171875-.1938477-7.9394531-.1938477-.0644531,0-4.1308594.1938477-6.0664062.1938477-.7109375,0-1.0332031-.1293945-1.0332031-.5166016,0-.1938477.1289062-.387207.515625-.387207.5820312,0,1.3554688-.1289062,1.9375-.2583008,1.2910156-.2583008,1.6132812-1.6782227,1.8710938-3.5498047.3222656-2.7109375.3222656-7.8100586.3222656-14.0063477v-11.3598633Zm5.1640625,5.6157227c0,.3222656.1289062.5805664.4521484.7744141.9677734.5805664,3.9365234,1.0327148,6.7763672,1.0327148,1.5498047,0,3.3574219-.1938477,4.8417969-1.2265625,2.2587891-1.5488281,3.9375-5.0341797,3.9375-9.9399414,0-8.0678711-4.2607422-12.9086914-11.1669922-12.9086914-1.9365234,0-3.6787109.1933594-4.3242188.387207-.3232422.1289062-.5166016.387207-.5166016.7744141v21.1064453Z"/>
      <path class="cls-2" d="m107.5273438,43.6323242c-6.2617188-5.6152344-7.8105469-12.9736328-7.8105469-19.1054688,0-4.3242188,1.484375-11.8759766,7.2285156-17.6206055,3.8730469-3.8725586,9.7460938-6.90625,19.6865234-6.90625,2.5820312,0,6.1962891.1938477,9.3583984.7744141,2.453125.4521484,4.4541016.6455078,6.8417969.9682617.453125.0644531.5820312.3227539.5820312.7099609,0,.5166016-.1943359,1.2910156-.3232422,3.6147461-.1289062,2.1298828-.1289062,5.6796875-.1943359,6.6479492-.0644531.9682617-.1933594,1.3554688-.5800781,1.3554688-.4521484,0-.5166016-.4516602-.5166016-1.3554688,0-2.5170898-1.0322266-5.1635742-2.7109375-6.5834961-2.2587891-1.9365234-7.2294922-3.6791992-12.9091797-3.6791992-8.5839844,0-12.5859375,2.5175781-14.8447266,4.7119141-4.7119141,4.5180664-5.8095703,10.2626953-5.8095703,16.8461914,0,12.328125,9.4882812,23.6235352,23.3007812,23.6235352,4.8417969,0,8.6494141-.5810547,11.2304688-3.2275391,1.3554688-1.4199219,2.1953125-4.2597656,2.3886719-5.421875.1289062-.7099609.2578125-.9677734.6455078-.9677734.3232422,0,.4521484.4516602.4521484.9677734,0,.4521484-.7753906,6.0673828-1.4199219,8.2617188-.3876953,1.2265625-.5166016,1.3554688-1.6787109,1.8720703-2.5810547,1.0327148-7.4873047,1.484375-11.6181641,1.484375-9.6816406,0-16.2001953-2.3881836-21.2988281-6.9707031Z"/>
      <path class="cls-2" d="m192.2060547,21.3642578c.1933594,0,.3876953-.0644531.3876953-.387207v-1.3554688c0-10.0688477,0-11.8759766-.1298828-13.9414062-.1289062-2.1948242-.6455078-3.2275391-2.7753906-3.6791992-.5166016-.1289062-1.6132812-.1938477-2.1943359-.1938477-.2578125,0-.515625-.1289062-.515625-.387207,0-.387207.3222656-.5161133,1.0322266-.5161133,2.9042969,0,6.9707031.1933594,7.2939453.1933594.3222656,0,4.3886719-.1933594,6.3242188-.1933594.7109375,0,1.0332031.1289062,1.0332031.5161133,0,.2583008-.2578125.387207-.515625.387207-.453125,0-.8398438.0649414-1.6142578.1938477-1.7431641.3227539-2.2587891,1.4199219-2.3876953,3.6791992-.1289062,2.0654297-.1289062,3.8725586-.1289062,13.9414062v11.3598633c0,6.1962891,0,11.2954102.3222656,14.0063477.1933594,1.871582.5800781,3.2915039,2.5175781,3.5498047.9033203.1293945,2.3232422.2583008,2.9042969.2583008.3867188,0,.515625.1933594.515625.387207,0,.3227539-.3222656.5166016-1.0322266.5166016-3.5498047,0-7.6162109-.1938477-7.9384766-.1938477-.3232422,0-4.3896484.1938477-6.3261719.1938477-.7099609,0-1.0332031-.1293945-1.0332031-.5166016,0-.1938477.1298828-.387207.5175781-.387207.5800781,0,1.3554688-.1289062,1.9355469-.2583008,1.2910156-.2583008,1.6132812-1.6782227,1.8720703-3.5498047.3232422-2.7109375.3232422-7.8100586.3232422-14.0063477v-6.7773438c0-.2578125-.1943359-.387207-.3876953-.387207h-27.3671875c-.1933594,0-.3876953.0649414-.3876953.387207v6.7773438c0,6.1962891,0,11.2954102.3232422,14.0063477.1943359,1.871582.5810547,3.2915039,2.5166016,3.5498047.9042969.1293945,2.3242188.2583008,2.9052734.2583008.3876953,0,.5166016.1933594.5166016.387207,0,.3227539-.3232422.5166016-1.0332031.5166016-3.5498047,0-7.6162109-.1938477-7.9394531-.1938477-.3222656,0-4.3886719.1938477-6.3242188.1938477-.7109375,0-1.0332031-.1293945-1.0332031-.5166016,0-.1938477.1289062-.387207.515625-.387207.5820312,0,1.3554688-.1289062,1.9375-.2583008,1.2910156-.2583008,1.6132812-1.6782227,1.8710938-3.5498047.3222656-2.7109375.3222656-7.8100586.3222656-14.0063477v-11.3598633c0-10.0688477,0-11.8759766-.1289062-13.9414062-.1289062-2.1948242-.6445312-3.2275391-2.7753906-3.6791992-.515625-.1289062-1.6132812-.1938477-2.1933594-.1938477-.2587891,0-.5175781-.1289062-.5175781-.387207,0-.387207.3232422-.5161133,1.0332031-.5161133,2.9042969,0,6.9707031.1933594,7.2929688.1933594.3232422,0,4.3896484-.1933594,6.3261719-.1933594.7099609,0,1.0332031.1289062,1.0332031.5161133,0,.2583008-.2587891.387207-.5175781.387207-.4511719,0-.8378906.0649414-1.6132812.1938477-1.7421875.3227539-2.2587891,1.4199219-2.3876953,3.6791992-.1298828,2.0654297-.1298828,3.8725586-.1298828,13.9414062v1.3554688c0,.3227539.1943359.387207.3876953.387207h27.3671875Z"/>
      <path class="cls-2" d="m220.859375,19.621582c0-10.0688477,0-11.8759766-.1289062-13.9414062-.1289062-2.1948242-.7734375-3.2919922-2.1933594-3.6147461-.7109375-.1933594-1.5498047-.2583008-2.0019531-.2583008-.2578125,0-.515625-.1289062-.515625-.387207,0-.387207.3222656-.5161133,1.0322266-.5161133,2.1298828,0,6.1962891.1933594,6.5185547.1933594.3232422,0,4.3896484-.1933594,6.3261719-.1933594.7099609,0,1.0332031.1289062,1.0332031.5161133,0,.2583008-.2587891.387207-.5175781.387207-.4511719,0-.8378906.0649414-1.6132812.1938477-1.7421875.3227539-2.2587891,1.4199219-2.3876953,3.6791992-.1298828,2.0654297-.1298828,3.8725586-.1298828,13.9414062v11.3598633c0,6.1962891,0,11.2954102.3232422,14.0063477.1943359,1.871582.5810547,3.2915039,2.5166016,3.5498047.9042969.1293945,2.2597656.2583008,2.6464844.2583008.5820312,0,.7753906.1933594.7753906.387207,0,.3227539-.2578125.5166016-.96875.5166016-3.5498047,0-7.6806641-.1938477-8.0039062-.1938477-.3222656,0-4.3886719.1938477-6.3242188.1938477-.7109375,0-1.0332031-.1293945-1.0332031-.5166016,0-.1938477.1289062-.387207.7099609-.387207.3876953,0,1.0966797-.0644531,1.6787109-.1938477,1.2910156-.2578125,1.6777344-1.7426758,1.9355469-3.6142578.3222656-2.7109375.3222656-7.8100586.3222656-14.0063477v-11.3598633Z"/>
      <path class="cls-2" d="m263.0058594,30.9814453c0,6.1962891,0,11.2954102.3222656,14.0063477.1933594,1.871582.5810547,3.2915039,2.5175781,3.5498047.9033203.1293945,2.3232422.2583008,2.9042969.2583008.3867188,0,.5166016.1933594.5166016.387207,0,.3227539-.3232422.5166016-1.0322266.5166016-3.5507812,0-7.6171875-.1938477-7.9394531-.1938477-.3232422,0-4.3886719.1938477-6.3261719.1938477-.7089844,0-1.0322266-.1293945-1.0322266-.5166016,0-.1938477.1289062-.387207.5166016-.387207.5800781,0,1.3554688-.1289062,1.9355469-.2583008,1.2910156-.2583008,1.6142578-1.6782227,1.8730469-3.5498047.3222656-2.7109375.3222656-7.8100586.3222656-14.0063477V3.6791992c-3.1630859.0644531-6.390625.0644531-9.5527344.1289062-4.0019531.0644531-5.5507812.5166016-6.5839844,2.0654297-.7089844,1.097168-.9033203,1.5493164-1.0966797,2.0009766-.1943359.5166016-.3876953.6455078-.6455078.6455078-.1933594,0-.3222656-.1938477-.3222656-.5810547,0-.6455078,1.2900391-6.1962891,1.4199219-6.7124023.1289062-.387207.3867188-1.2265625.6445312-1.2265625.4521484,0,1.0976562.6455078,2.8398438.7744141,1.8720703.1938477,4.3251953.3227539,5.0996094.3227539h24.2041016c2.0654297,0,3.5498047-.1289062,4.5830078-.3227539.9677734-.1289062,1.5488281-.3222656,1.8066406-.3222656.3232422,0,.3232422.387207.3232422.7744141,0,1.9360352-.1943359,6.3896484-.1943359,7.0996094,0,.5810547-.1933594.8393555-.4511719.8393555-.3222656,0-.4521484-.1938477-.5166016-1.097168,0-.2583008-.0644531-.4521484-.0644531-.7099609-.1943359-1.9365234-1.7431641-3.4208984-7.9384766-3.550293-2.7109375-.0644531-5.421875-.0644531-8.1328125-.1289062v27.3022461Z"/>
      <path class="cls-2" d="m293.8554688,19.621582c0-10.0688477,0-11.8759766-.1289062-13.9414062-.1289062-2.1948242-.6464844-3.2275391-2.7753906-3.6791992-.4521484-.1289062-1.2910156-.1289062-1.8720703-.1938477-.4521484-.0644531-.8388672-.1289062-.8388672-.387207,0-.387207.3222656-.5161133,1.0322266-.5161133,1.484375,0,3.2275391,0,7.2939453.1933594.4511719,0,13.2958984,0,14.7802734-.0644531,1.4199219-.0644531,2.5820312-.1933594,2.9697266-.387207.3867188-.1933594.515625-.2583008.7089844-.2583008s.2587891.2583008.2587891.5810547c0,.4516602-.3876953,1.2265625-.5166016,3.0336914-.0644531.9682617-.1289062,2.1943359-.2578125,3.8725586-.0644531.6455078-.2578125,1.097168-.5166016,1.097168-.3876953,0-.5166016-.3227539-.5166016-.8388672,0-.8393555-.1289062-1.6137695-.3222656-2.1298828-.4521484-1.4848633-1.8076172-2.1303711-4.6474609-2.3881836-1.0966797-.1293945-8.1328125-.1938477-8.8427734-.1938477-.2578125,0-.3867188.1938477-.3867188.6455078v17.8144531c0,.4516602.0644531.6455078.3867188.6455078.8398438,0,8.7783203,0,10.2626953-.1293945,1.7431641-.1289062,2.5820312-.3227539,3.2275391-1.097168.3222656-.387207.515625-.6455078.7744141-.6455078.1933594,0,.3232422.1293945.3232422.5166016s-.3232422,1.484375-.5175781,3.6142578c-.1933594,2.0009766-.1933594,3.4853516-.2578125,4.3891602-.0644531.6455078-.1933594.9682617-.4511719.9682617-.3876953,0-.4521484-.5166016-.4521484-1.0327148,0-.5810547-.0644531-1.2265625-.2587891-1.8071289-.2578125-.9682617-1.0322266-1.8720703-3.3554688-2.1303711-1.7431641-.1933594-8.1328125-.3227539-9.2304688-.3227539-.3222656,0-.4511719.1938477-.4511719.4521484v5.6796875c0,2.1948242-.0644531,9.6816406,0,11.0371094.1289062,2.6464844.515625,4.0664062,2.1289062,4.7119141,1.0976562.4516602,2.8408203.5810547,5.3574219.5810547,1.9375,0,4.0664062-.0649414,5.8095703-.5810547,2.0654297-.6455078,2.7753906-2.0009766,3.2919922-4.7763672.1289062-.7099609.2578125-.9682617.5800781-.9682617.3876953,0,.3876953.5166016.3876953.9682617,0,.5166016-.5166016,4.9052734-.8388672,6.2607422-.4521484,1.6782227-.96875,1.6782227-3.4853516,1.6782227-4.7763672,0-6.90625-.1289062-9.4238281-.1933594-2.5810547-.0649414-5.5507812-.1938477-8.0673828-.1938477-1.5498047,0-3.0986328.2583008-4.7773438.1938477-.7089844,0-1.0322266-.1293945-1.0322266-.5166016,0-.1938477.3232422-.3227539.7099609-.387207.6455078-.0644531,1.0332031-.0644531,1.484375-.1938477,1.3554688-.3227539,2.1953125-1.2260742,2.3242188-6.0668945.0644531-2.5175781.1289062-5.809082.1289062-11.5537109v-11.3598633Z"/>
      <path class="cls-2" d="m333.6757812,43.6323242c-6.2607422-5.6152344-7.8095703-12.9736328-7.8095703-19.1054688,0-4.3242188,1.484375-11.8759766,7.2294922-17.6206055,3.8720703-3.8725586,9.7460938-6.90625,19.6855469-6.90625,2.5820312,0,6.1962891.1938477,9.359375.7744141,2.4521484.4521484,4.453125.6455078,6.8417969.9682617.4511719.0644531.5800781.3227539.5800781.7099609,0,.5166016-.1933594,1.2910156-.3222656,3.6147461-.1289062,2.1298828-.1289062,5.6796875-.1933594,6.6479492s-.1933594,1.3554688-.5810547,1.3554688c-.4521484,0-.5166016-.4516602-.5166016-1.3554688,0-2.5170898-1.0332031-5.1635742-2.7109375-6.5834961-2.2587891-1.9365234-7.2285156-3.6791992-12.9082031-3.6791992-8.5849609,0-12.5869141,2.5175781-14.8457031,4.7119141-4.7119141,4.5180664-5.8085938,10.2626953-5.8085938,16.8461914,0,12.328125,9.4873047,23.6235352,23.3007812,23.6235352,4.8398438,0,8.6484375-.5810547,11.2304688-3.2275391,1.3554688-1.4199219,2.1943359-4.2597656,2.3876953-5.421875.1298828-.7099609.2587891-.9677734.6455078-.9677734.3222656,0,.4511719.4516602.4511719.9677734,0,.4521484-.7734375,6.0673828-1.4199219,8.2617188-.3867188,1.2265625-.515625,1.3554688-1.6777344,1.8720703-2.5820312,1.0327148-7.4863281,1.484375-11.6171875,1.484375-9.6826172,0-16.2011719-2.3881836-21.3007812-6.9707031Z"/>
      <path class="cls-2" d="m398.9277344,30.9814453c0,6.1962891,0,11.2954102.3222656,14.0063477.1933594,1.871582.5810547,3.2915039,2.5175781,3.5498047.9033203.1293945,2.3232422.2583008,2.9042969.2583008.3867188,0,.5166016.1933594.5166016.387207,0,.3227539-.3232422.5166016-1.0322266.5166016-3.5507812,0-7.6171875-.1938477-7.9394531-.1938477-.3232422,0-4.3886719.1938477-6.3261719.1938477-.7089844,0-1.0322266-.1293945-1.0322266-.5166016,0-.1938477.1289062-.387207.5166016-.387207.5800781,0,1.3554688-.1289062,1.9355469-.2583008,1.2910156-.2583008,1.6142578-1.6782227,1.8730469-3.5498047.3222656-2.7109375.3222656-7.8100586.3222656-14.0063477V3.6791992c-3.1630859.0644531-6.390625.0644531-9.5527344.1289062-4.0019531.0644531-5.5507812.5166016-6.5839844,2.0654297-.7089844,1.097168-.9033203,1.5493164-1.0966797,2.0009766-.1943359.5166016-.3876953.6455078-.6455078.6455078-.1933594,0-.3222656-.1938477-.3222656-.5810547,0-.6455078,1.2900391-6.1962891,1.4199219-6.7124023.1289062-.387207.3867188-1.2265625.6445312-1.2265625.4521484,0,1.0976562.6455078,2.8398438.7744141,1.8720703.1938477,4.3251953.3227539,5.0996094.3227539h24.2041016c2.0654297,0,3.5498047-.1289062,4.5830078-.3227539.9677734-.1289062,1.5488281-.3222656,1.8066406-.3222656.3232422,0,.3232422.387207.3232422.7744141,0,1.9360352-.1943359,6.3896484-.1943359,7.0996094,0,.5810547-.1933594.8393555-.4511719.8393555-.3222656,0-.4521484-.1938477-.5166016-1.097168,0-.2583008-.0644531-.4521484-.0644531-.7099609-.1943359-1.9365234-1.7431641-3.4208984-7.9384766-3.550293-2.7109375-.0644531-5.421875-.0644531-8.1328125-.1289062v27.3022461Z"/>
      <path class="cls-2" d="m16.2011719,110.6586914c-.3222656,0-.5166016.1938477-.6455078.5166016l-3.8720703,11.4243164c-.5820312,1.6137695-.9042969,3.1625977-.9042969,4.3242188,0,1.2910156,1.2265625,1.8720703,2.3242188,1.8720703h.5800781c.6464844,0,.8398438.1289062.8398438.387207,0,.387207-.5820312.5166016-1.1621094.5166016-1.5488281,0-4.1308594-.1938477-4.8408203-.1938477s-4.2607422.1938477-7.2939453.1938477c-.8388672,0-1.2265625-.1293945-1.2265625-.5166016,0-.2583008.3232422-.387207.9042969-.387207.4511719,0,1.0332031-.0644531,1.5488281-.1289062,2.96875-.3876953,4.2597656-2.840332,5.421875-6.0673828l14.6513672-40.0820312c.7744141-2.1303711,1.0322266-2.5175781,1.4199219-2.5175781s.6455078.3227539,1.4208984,2.3237305c.9667969,2.4526367,11.1015625,29.1098633,15.0380859,38.9204102,2.3232422,5.7446289,4.1953125,6.7773438,5.5507812,7.1645508.9677734.3227539,2.0009766.387207,2.5175781.387207.3876953,0,.7099609.0644531.7099609.387207,0,.387207-.5810547.5166016-1.2910156.5166016-.96875,0-5.6796875,0-10.1328125-.1293945-1.2265625-.0644531-1.9375-.0644531-1.9375-.4516602,0-.2583008.1943359-.387207.4521484-.4516602.3876953-.1293945.7744141-.7099609.3876953-1.7431641l-6.0029297-15.8779297c-.1289062-.2578125-.2587891-.387207-.5810547-.387207h-13.8769531Zm13.0380859-2.3237305c.3232422,0,.3232422-.1933594.2587891-.4516602l-6.1328125-17.4267578c-.3222656-.9682617-.6445312-.9682617-.9677734,0l-5.6796875,17.4267578c-.1298828.3227539,0,.4516602.1933594.4516602h12.328125Z"/>
      <path class="cls-2" d="m56.28125,110.6586914c0-23.300293.1289062-14.909668.0644531-27.4311523,0-2.5175781.1933594-3.2275391.7089844-3.2275391.5175781,0,1.6142578,1.4199219,2.2597656,2.0654297.96875,1.097168,10.5859375,11.4892578,20.5253906,22.1386719,6.3896484,6.8417969,13.4257812,14.7163086,15.4902344,16.8461914l-.7089844-32.7885742c-.0654297-4.1953125-.5175781-5.6152344-2.5175781-6.1318359-1.1621094-.2578125-2.1953125-.3227539-2.7753906-.3227539-.7109375,0-.9042969-.1933594-.9042969-.4516602,0-.387207.5166016-.4516602,1.2910156-.4516602,2.9042969,0,6.0029297.1933594,6.7128906.1933594s2.8398438-.1933594,5.4863281-.1933594c.7099609,0,1.1621094.0644531,1.1621094.4516602,0,.2583008-.2587891.387207-.7109375.4516602-.515625.0649414-.9033203.1293945-1.6777344.2583008-1.8066406.387207-2.2587891,1.3554688-2.2587891,5.809082l-.1298828,37.6943359c0,4.2597656-.1289062,4.5825195-.5800781,4.5825195-.5166016,0-1.2910156-.7099609-4.7119141-4.1308594-.7099609-.6455078-10.0048828-10.1337891-16.8466797-17.4916992-7.4863281-8.0678711-14.7802734-16.2006836-16.8457031-18.5244141l.8388672,30.9169922c.1298828,5.2924805.7744141,6.9707031,2.5175781,7.4873047,1.2255859.3227539,2.6455078.387207,3.2275391.387207.3222656,0,.515625.1289062.515625.387207,0,.387207-.3867188.5166016-1.1621094.5166016-3.6777344,0-6.2597656-.1938477-6.8417969-.1938477-.5800781,0-3.2910156.1938477-6.1953125.1938477-.6455078,0-1.0332031-.0649414-1.0332031-.5166016,0-.2583008.1933594-.387207.5166016-.387207.5166016,0,1.6787109-.0644531,2.6464844-.387207,1.6132812-.4516602,1.9365234-2.3237305,1.9365234-8.1972656v-9.5527344Z"/>
      <path class="cls-2" d="m119.53125,99.621582c0-10.0688477,0-11.8759766-.1289062-13.9414062-.1289062-2.1948242-.4521484-3.2275391-2.5820312-3.6791992-.5166016-.1289062-1.6132812-.1938477-2.1953125-.1938477-.4511719,0-.7089844-.1289062-.7089844-.387207,0-.387207.3222656-.5161133,1.0322266-.5161133,2.9042969,0,6.9707031.1933594,7.2939453.1933594.7744141,0,4.8398438-.1933594,8.7128906-.1933594,6.390625,0,18.2011719-.5810547,25.8828125,7.3579102,3.2265625,3.3564453,6.2607422,8.7138672,6.2607422,16.3945312,0,8.1323242-3.3564453,14.3935547-6.9707031,18.2016602-2.7753906,2.9042969-8.5849609,7.4223633-19.5576172,7.4223633-2.7753906,0-6.1953125-.1933594-8.9707031-.387207-2.8398438-.1933594-5.0351562-.387207-5.3574219-.387207-.1289062,0-1.2265625,0-2.5820312.0644531-1.2910156,0-2.7753906.1293945-3.7441406.1293945-.7089844,0-1.0322266-.1293945-1.0322266-.5166016,0-.1938477.1289062-.387207.6455078-.387207.7099609-.0644531,1.2265625-.1289062,1.8066406-.2583008,1.2910156-.2583008,1.6142578-1.6782227,1.8720703-3.5498047.3232422-2.7109375.3232422-7.8100586.3232422-14.0063477v-11.3598633Zm5.421875,6.9707031c0,6.8417969.0644531,12.7802734.1289062,14.0063477.0644531,1.6137695.1933594,4.1953125.7099609,4.9052734.8388672,1.2265625,3.3564453,2.5820312,10.9716797,2.5820312,6.0039062,0,11.5546875-2.1943359,15.3623047-6.0029297,3.3564453-3.2915039,5.1630859-9.487793,5.1630859-15.4257812,0-8.1972656-3.5488281-13.4902344-6.1953125-16.265625-6.0683594-6.3896484-13.4257812-7.293457-21.1064453-7.293457-1.2910156,0-3.6787109.1938477-4.1953125.4516602-.5810547.2583008-.7744141.5810547-.7744141,1.2910156-.0644531,2.1948242-.0644531,8.7783203-.0644531,13.7480469v8.003418Z"/>
      <path class="cls-2" d="m13.2324219,179.621582c0-10.0688477,0-11.8759766-.1289062-13.9414062-.1289062-2.1948242-.4521484-3.2275391-2.5820312-3.6791992-.5166016-.1289062-1.6132812-.1938477-2.1953125-.1938477-.4511719,0-.7089844-.1289062-.7089844-.387207,0-.387207.3222656-.5161133,1.0322266-.5161133,2.9042969,0,6.9707031.1933594,7.2939453.1933594.7744141,0,4.8398438-.1933594,8.7128906-.1933594,6.390625,0,18.2011719-.5810547,25.8828125,7.3579102,3.2265625,3.3564453,6.2607422,8.7138672,6.2607422,16.3945312,0,8.1323242-3.3564453,14.3935547-6.9707031,18.2016602-2.7753906,2.9042969-8.5849609,7.4223633-19.5576172,7.4223633-2.7753906,0-6.1953125-.1933594-8.9707031-.387207-2.8398438-.1933594-5.0351562-.387207-5.3574219-.387207-.1289062,0-1.2265625,0-2.5820312.0644531-1.2910156,0-2.7753906.1293945-3.7441406.1293945-.7089844,0-1.0322266-.1293945-1.0322266-.5166016,0-.1938477.1289062-.387207.6455078-.387207.7099609-.0644531,1.2265625-.1289062,1.8066406-.2583008,1.2910156-.2583008,1.6142578-1.6782227,1.8720703-3.5498047.3232422-2.7109375.3232422-7.8100586.3232422-14.0063477v-11.3598633Zm5.421875,6.9707031c0,6.8417969.0644531,12.7802734.1289062,14.0063477.0644531,1.6137695.1933594,4.1953125.7099609,4.9052734.8388672,1.2265625,3.3564453,2.5820312,10.9716797,2.5820312,6.0039062,0,11.5546875-2.1943359,15.3623047-6.0029297,3.3564453-3.2915039,5.1630859-9.487793,5.1630859-15.4257812,0-8.1972656-3.5488281-13.4902344-6.1953125-16.265625-6.0683594-6.3896484-13.4257812-7.293457-21.1064453-7.293457-1.2910156,0-3.6787109.1938477-4.1953125.4516602-.5810547.2583008-.7744141.5810547-.7744141,1.2910156-.0644531,2.1948242-.0644531,8.7783203-.0644531,13.7480469v8.003418Z"/>
      <path class="cls-2" d="m72.4160156,179.621582c0-10.0688477,0-11.8759766-.1289062-13.9414062-.1289062-2.1948242-.6464844-3.2275391-2.7753906-3.6791992-.4521484-.1289062-1.2910156-.1289062-1.8720703-.1938477-.4521484-.0644531-.8388672-.1289062-.8388672-.387207,0-.387207.3222656-.5161133,1.0322266-.5161133,1.484375,0,3.2275391,0,7.2939453.1933594.4511719,0,13.2958984,0,14.7802734-.0644531,1.4199219-.0644531,2.5820312-.1933594,2.9697266-.387207.3867188-.1933594.515625-.2583008.7089844-.2583008s.2587891.2583008.2587891.5810547c0,.4516602-.3876953,1.2265625-.5166016,3.0336914-.0644531.9682617-.1289062,2.1943359-.2578125,3.8725586-.0644531.6455078-.2578125,1.097168-.5166016,1.097168-.3876953,0-.5166016-.3227539-.5166016-.8388672,0-.8393555-.1289062-1.6137695-.3222656-2.1298828-.4521484-1.4848633-1.8076172-2.1303711-4.6474609-2.3881836-1.0966797-.1293945-8.1328125-.1938477-8.8427734-.1938477-.2578125,0-.3867188.1938477-.3867188.6455078v17.8144531c0,.4516602.0644531.6455078.3867188.6455078.8398438,0,8.7783203,0,10.2626953-.1293945,1.7431641-.1289062,2.5820312-.3227539,3.2275391-1.097168.3222656-.387207.515625-.6455078.7744141-.6455078.1933594,0,.3232422.1293945.3232422.5166016s-.3232422,1.484375-.5175781,3.6142578c-.1933594,2.0009766-.1933594,3.4853516-.2578125,4.3891602-.0644531.6455078-.1933594.9682617-.4511719.9682617-.3876953,0-.4521484-.5166016-.4521484-1.0327148,0-.5810547-.0644531-1.2265625-.2587891-1.8071289-.2578125-.9682617-1.0322266-1.8720703-3.3554688-2.1303711-1.7431641-.1933594-8.1328125-.3227539-9.2304688-.3227539-.3222656,0-.4511719.1938477-.4511719.4521484v5.6796875c0,2.1948242-.0644531,9.6816406,0,11.0371094.1289062,2.6464844.515625,4.0664062,2.1289062,4.7119141,1.0976562.4516602,2.8408203.5810547,5.3574219.5810547,1.9375,0,4.0664062-.0649414,5.8095703-.5810547,2.0654297-.6455078,2.7753906-2.0009766,3.2919922-4.7763672.1289062-.7099609.2578125-.9682617.5800781-.9682617.3876953,0,.3876953.5166016.3876953.9682617,0,.5166016-.5166016,4.9052734-.8388672,6.2607422-.4521484,1.6782227-.96875,1.6782227-3.4853516,1.6782227-4.7763672,0-6.90625-.1289062-9.4238281-.1933594-2.5810547-.0649414-5.5507812-.1938477-8.0673828-.1938477-1.5498047,0-3.0986328.2583008-4.7773438.1938477-.7089844,0-1.0322266-.1293945-1.0322266-.5166016,0-.1938477.3232422-.3227539.7099609-.387207.6455078-.0644531,1.0332031-.0644531,1.484375-.1938477,1.3554688-.3227539,2.1953125-1.2260742,2.3242188-6.0668945.0644531-2.5175781.1289062-5.809082.1289062-11.5537109v-11.3598633Z"/>
      <path class="cls-2" d="m107.6542969,208.8603516c-.9042969-.4516602-.96875-.7099609-.96875-2.4526367,0-3.2270508.2578125-5.809082.3232422-6.8417969.0644531-.7099609.1933594-1.0327148.5166016-1.0327148.3867188,0,.4511719.1938477.4511719.7099609,0,.5810547,0,1.484375.1933594,2.3881836.96875,4.7763672,5.2285156,6.5834961,9.5527344,6.5834961,6.1972656,0,9.2304688-4.4536133,9.2304688-8.5844727,0-4.4536133-1.8720703-7.0351562-7.4228516-11.6176758l-2.9052734-2.3881836c-6.8408203-5.6157227-8.390625-9.6171875-8.390625-14.0063477,0-6.90625,5.1640625-11.6181641,13.3613281-11.6181641,2.5175781,0,4.3886719.2583008,6.0019531.6455078,1.2265625.2583008,1.7431641.3227539,2.2597656.3227539.515625,0,.6455078.1289062.6455078.4516602s-.2587891,2.4526367-.2587891,6.8417969c0,1.0327148-.1289062,1.484375-.4511719,1.484375-.3867188,0-.4521484-.3222656-.5166016-.8388672-.0644531-.7744141-.4521484-2.5170898-.8388672-3.2270508s-2.1298828-3.4208984-8.0683594-3.4208984c-4.453125,0-7.9394531,2.7753906-7.9394531,7.4868164,0,3.6791992,1.6787109,6.0029297,7.875,10.84375l1.8066406,1.4199219c7.6171875,6.0029297,9.4238281,10.0043945,9.4238281,15.1679688,0,2.6464844-1.0322266,7.5517578-5.4863281,10.7143555-2.7753906,1.9365234-6.2597656,2.7109375-9.7460938,2.7109375-3.0332031,0-6.0019531-.4516602-8.6484375-1.7426758Z"/>
      <path class="cls-2" d="m148.5722656,179.621582c0-10.0688477,0-11.8759766-.1289062-13.9414062-.1289062-2.1948242-.7734375-3.2919922-2.1933594-3.6147461-.7109375-.1933594-1.5498047-.2583008-2.0019531-.2583008-.2578125,0-.515625-.1289062-.515625-.387207,0-.387207.3222656-.5161133,1.0322266-.5161133,2.1298828,0,6.1962891.1933594,6.5185547.1933594.3232422,0,4.3896484-.1933594,6.3261719-.1933594.7099609,0,1.0332031.1289062,1.0332031.5161133,0,.2583008-.2587891.387207-.5175781.387207-.4511719,0-.8378906.0649414-1.6132812.1938477-1.7421875.3227539-2.2587891,1.4199219-2.3876953,3.6791992-.1298828,2.0654297-.1298828,3.8725586-.1298828,13.9414062v11.3598633c0,6.1962891,0,11.2954102.3232422,14.0063477.1943359,1.871582.5810547,3.2915039,2.5166016,3.5498047.9042969.1293945,2.2597656.2583008,2.6464844.2583008.5820312,0,.7753906.1933594.7753906.387207,0,.3227539-.2578125.5166016-.96875.5166016-3.5498047,0-7.6806641-.1938477-8.0039062-.1938477-.3222656,0-4.3886719.1938477-6.3242188.1938477-.7109375,0-1.0332031-.1293945-1.0332031-.5166016,0-.1938477.1289062-.387207.7099609-.387207.3876953,0,1.0966797-.0644531,1.6787109-.1938477,1.2910156-.2578125,1.6777344-1.7426758,1.9355469-3.6142578.3222656-2.7109375.3222656-7.8100586.3222656-14.0063477v-11.3598633Z"/>
      <path class="cls-2" d="m213.0507812,204.2133789c0,2.9042969-.0644531,3.0332031-.8388672,3.4853516-4.1308594,2.1943359-9.9404297,2.9042969-13.6835938,2.9042969-4.9052734,0-14.0712891-.6455078-21.2353516-6.90625-3.9375-3.4208984-7.6806641-10.3271484-7.6806641-18.3950195,0-10.3271484,5.0341797-17.6210938,10.7783203-21.2353516,5.8095703-3.6142578,12.1992188-4.0664062,17.1699219-4.0664062,4.0664062,0,8.6484375.8393555,9.875,1.097168,1.3554688.3227539,3.6142578.5810547,5.2285156.6455078.6445312.0644531.7734375.3227539.7734375.5810547,0,.9038086-.4511719,2.7109375-.4511719,9.1655273,0,1.0327148-.1289062,1.3554688-.5810547,1.3554688-.3232422,0-.3876953-.3876953-.4521484-.9682617-.0644531-.9038086-.3867188-2.7109375-1.3554688-4.2602539-1.6132812-2.4526367-6.8417969-5.2280273-15.1679688-5.2280273-4.0664062,0-8.90625.387207-13.8125,4.2602539-3.7431641,2.96875-6.3896484,8.8422852-6.3896484,16.394043,0,9.1010742,4.5830078,15.6845703,6.8417969,17.8789062,5.0986328,4.9702148,10.9726562,6.90625,16.9111328,6.90625,2.3232422,0,5.6796875-.387207,7.3574219-1.3554688.8398438-.4516602,1.2910156-1.1616211,1.2910156-2.2587891v-10.9726562c0-5.2280273-.3222656-5.9379883-2.9042969-6.6484375-.5166016-.1289062-1.6132812-.1933594-2.1943359-.1933594-.2587891,0-.5166016-.1293945-.5166016-.387207,0-.387207.3222656-.5166016,1.0332031-.5166016,2.9042969,0,6.9707031.1938477,7.2929688.1938477s4.3886719-.1938477,6.3261719-.1938477c.7089844,0,1.0322266.1293945,1.0322266.5166016,0,.2578125-.2587891.387207-.5166016.387207-.4511719,0-.8388672.0644531-1.6132812.1933594-1.7431641.3227539-2.2597656,1.4204102-2.3886719,3.6791992-.1289062,2.0654297-.1289062,4.0019531-.1289062,6.7128906v7.2290039Z"/>
      <path class="cls-2" d="m230.4746094,190.6586914c0-23.300293.1289062-14.909668.0644531-27.4311523,0-2.5175781.1933594-3.2275391.7099609-3.2275391s1.6142578,1.4199219,2.2587891,2.0654297c.96875,1.097168,10.5859375,11.4892578,20.5253906,22.1386719,6.390625,6.8417969,13.4257812,14.7163086,15.4912109,16.8461914l-.7099609-32.7885742c-.0644531-4.1953125-.5166016-5.6152344-2.5175781-6.1318359-1.1621094-.2578125-2.1943359-.3227539-2.7753906-.3227539-.7099609,0-.9033203-.1933594-.9033203-.4516602,0-.387207.5166016-.4516602,1.2900391-.4516602,2.9052734,0,6.0039062.1933594,6.7128906.1933594.7109375,0,2.8398438-.1933594,5.4863281-.1933594.7109375,0,1.1621094.0644531,1.1621094.4516602,0,.2583008-.2578125.387207-.7099609.4516602-.5166016.0649414-.9033203.1293945-1.6787109.2583008-1.8066406.387207-2.2578125,1.3554688-2.2578125,5.809082l-.1298828,37.6943359c0,4.2597656-.1289062,4.5825195-.5810547,4.5825195-.515625,0-1.2910156-.7099609-4.7109375-4.1308594-.7109375-.6455078-10.0048828-10.1337891-16.8466797-17.4916992-7.4873047-8.0678711-14.7802734-16.2006836-16.8466797-18.5244141l.8398438,30.9169922c.1289062,5.2924805.7744141,6.9707031,2.5175781,7.4873047,1.2255859.3227539,2.6455078.387207,3.2265625.387207.3222656,0,.5166016.1289062.5166016.387207,0,.387207-.3876953.5166016-1.1621094.5166016-3.6787109,0-6.2607422-.1938477-6.8417969-.1938477s-3.2919922.1938477-6.1962891.1938477c-.6455078,0-1.0332031-.0649414-1.0332031-.5166016,0-.2583008.1943359-.387207.5175781-.387207.515625,0,1.6777344-.0644531,2.6464844-.387207,1.6132812-.4516602,1.9355469-2.3237305,1.9355469-8.1972656v-9.5527344Z"/>
    </g>
  </g>
</svg>