<?xml version="1.0" encoding="UTF-8"?>
<svg id="_レイヤー_2" data-name="レイヤー 2" xmlns="http://www.w3.org/2000/svg" viewBox="0 0 205.3325991 115.3974212">
  <defs>
    <style>
      .cls-1 {
        fill: #ff0;
        stroke-width: 0px;
      }
    </style>
  </defs>
  <g id="_レイヤー_1-2" data-name="レイヤー 1">
    <g>
      <path class="cls-1" d="m22.901935,93.1298431c-1.6025391,1.6064453-3.6123047,3.2197266-5.4863281,3.7734375-4.1220703,1.2158203-6.8652344-4.0976562-7.859375-6.7519531-.3339844-1.0341797-1.3242188-3.4638672-2.5820312-3.546875-.4423828.6425781-.5107422,1.171875-.6416016,1.7207031-1.7978516,6.0849609-3.0332031,12.0039062-4.4550781,17.9785156-.1162109.4882812-.2939453.9931641-.3955078,1.4199219-.1640625.4462891-.4863281.8242188-.9238281.953125-.3125.0917969-.5810547.0009766-.5566406-.3457031.0009766-.7363281.0029297-1.4746094.0800781-2.2910156.0283203-.1220703.0869141-.3662109.1503906-.3847656,1.1298828-.84375.9101562-1.6279297,1.0839844-2.359375,1.171875-5.1650391,2.5292969-10.3818359,4-15.578125.1601562-.6708984.2324219-.9755859-.0810547-.8828125-.1240234.0361328-.3886719.171875-.7304688.3857422-.6191406.4101562-1.1923828.8613281-1.8125,1.2714844-.3408203.2138672-.6201172.4091797-.8701172.4833984-.1875.0546875-.375.1103516-.4560547-.0361328-.0380859-.328125.3183594-.6035156.6103516-.8603516,1.078125-1.1103516,2.1572266-2.2226562,3.2675781-3.2304688,1.0488281-.9902344,1.5488281-1.8740234,1.9355469-3.0087891,1.8066406-5.6347656,6.3251953-17.0556641,10.4755859-22.53125.1689453-.2207031.3232422-.3798828.5107422-.4345703.1230469-.0371094.1875-.0556641.234375-.0126953.2060547.109375-.0390625.4072266-.1455078.609375-2.9091797,4.65625-4.953125,9.3408203-6.9345703,14.0058594-.1494141.3847656-.4238281.8056641-.2763672,1.1591797.5537109-.6171875.8232422-1.2646484,1.1416016-1.8671875,3.65625-6.578125,8.296875-12.6503906,14.28125-18.2705078,2.0976562-1.9785156,4.9873047-4.3613281,7.4238281-5.0800781,2.1230469-.6259766,3.1494141.4306641,2.3623047,2.7597656-1.0859375,3.0976562-4.2138672,6.9677734-6.8310547,9.6679688-3.1572266,3.2548828-6.6005859,6.2539062-9.8046875,9.4667969-3.5742188,3.5498047-7.1484375,7.0966797-10.6748047,10.6875-1.2167969,1.2099609-1.4169922,2.2900391-1.8164062,3.4833984-.0732422.3056641.1484375.3535156.3681641.4013672,1.3398438.2285156,1.9863281,1.171875,2.5566406,2.1933594l1.2333984,2.8671875c.7558594,1.7041016,3.3896484,6.2548828,6.2001953,5.4267578.9375-.2773438,1.9130859-.9619141,3.3173828-2.2255859,1.5439453-1.3623047,3.0214844-2.9326172,4.4980469-4.5009766,1.5546875-1.6494141,3.0458984-3.2792969,4.6962891-4.84375.6640625-.5917969,1.3271484-1.1845703,2.0146484-1.3876953.2490234-.0732422.4228516-.0683594.6572266-.0800781-1.9179688,1.4726562-3.578125,3.3232422-5.2714844,5.0693359-1.4775391,1.5693359-2.9550781,3.1386719-4.4941406,4.7265625Zm-16.96875-7.5214844c.0439453-.1816406.0732422-.3046875-.1767578-.2314453-.1875.0556641-.3701172.3359375-.5869141.5136719-.1386719.0986328-.3076172.3173828-.3027344.5439453l.4980469-.1474609c.390625-.1728516.5107422-.4345703.5683594-.6787109Zm27.9179688-35.7832031c-4.5595703,1.3457031-13.2226562,11.3828125-16.0205078,15.3261719-3.5615234,4.9619141-6.3994141,10.0498047-8.9052734,15.2099609-.1064453.2021484-.2265625.4638672-.1601562.6708984.5292969-.2695312.8808594-.7705078,1.265625-1.1669922,4.9599609-4.9775391,9.9199219-9.9550781,15.1201172-14.7197266,3.4863281-3.1826172,6.9179688-6.8583984,9.1191406-10.7382812.578125-.9648438,1.0458984-1.953125,1.2011719-2.8496094.1757812-1.46875-.3710938-2.1005859-1.6201172-1.7324219Z"/>
      <path class="cls-1" d="m44.7661928,81.2958587c.2314453-.9755859-.0927734-4.7353516-.5332031-5.5683594-.4658203.2509766-.6777344.6542969-1.0009766,1.0322266-1.3515625,1.5322266-5.0712891,5.6904297-6.8193359,6.2060547-.8125.2392578-1.3554688-.1669922-1.1845703-1.125.28125-1.6699219,1.234375-3.4804688,2.1269531-5.2753906.1210938-.2617188.3369141-.4384766.5712891-.4511719.25-.0742188.4091797-.0078125.3984375.2792969-.0537109.46875-.2939453.9941406-.4716797,1.4990234-.5556641,1.3544922-1.2207031,2.6845703-1.3525391,3.9697266,1.4355469-.4238281,7.4990234-6.859375,8.0830078-8.3359375.2109375-.4023438.6210938-1.1464844,1.0585938-1.2753906.125-.0371094.25-.0742188.3603516-.0498047.3310547.0732422.4599609.2617188.1855469.6826172-.9482422,1.2998047-.6806641,2.1279297-.4892578,3.0351562.3232422,1.3222656.3691406,2.8378906.4277344,4.2949219.5478516-.1054688.9619141-.6240234,1.3955078-.9785156,2.1015625-1.7529297,4.2177734-3.5683594,6.4492188-5.1337891.3544922-.2744141.7109375-.5498047,1.0859375-.6601562.2490234-.0732422.421875-.0683594.5996094.1630859-.2109375.4023438-.5244141.4941406-.8027344.6904297-2.7412109,1.9990234-5.3818359,4.3085938-8.0556641,6.5136719-.5244141.4951172-.7978516.9160156-.8046875,1.4277344-.6328125,7.0458984-3.2050781,14.4365234-7.2617188,22.2080078-1.9990234,3.7636719-5.9101562,9.4511719-10.2197266,10.7226562-.6240234.1845703-1.1572266.2294922-1.7373047.2304688-3.8193359-.0634766-5.1777344-2.8945312-3.5664062-7.2246094,3.03125-8.0917969,13.9189453-19.9199219,21.0234375-26.0966797.2939453-.2568359.4609375-.4755859.5341797-.7802734Zm-16.8144531,33.3007812c7.1835938-2.1191406,13.1220703-17.3046875,14.7294922-22.5976562.8984375-3.0410156,1.6875-6.109375,1.8994141-8.9492188l-.125.0371094c-.3125.0917969-.4658203.2509766-.6210938.4101562-6.8974609,6.2861328-16.9863281,17.1972656-19.6904297,25.1367188-.6074219,1.8242188-.6875,3.3779297-.0517578,4.6064453.6044922,1.1259766,1.9228516,1.9277344,3.859375,1.3564453Z"/>
      <path class="cls-1" d="m56.2075991,76.1630462c-1.25.3691406-1.2089844-.7773438-.9775391-1.7519531.3632812-1.5253906,1.0253906-3.0800781,1.8730469-4.6904297.1972656-.3417969.3945312-.6835938.8320312-.8134766.4707031-.0244141.3828125.3408203.2958984.7080078-.1494141.3837891-.2998047.7675781-.5107422,1.1699219-.4345703,1.0927734-.8691406,2.1826172-1.1777344,3.2382812-.1015625.4267578-.265625.8720703-.1171875,1.2255859.7451172-.4472656,1.1875-1.0869141,1.6640625-1.625,1.4433594-1.6728516,2.7910156-3.4306641,4.1396484-5.1884766.1826172-.28125.4287109-.5800781.6591797-.8183594.0908203-.140625.1533203-.1591797.2783203-.1953125l.25-.0742188c.1591797.0673828.2548828.1523438.1337891.4150391-.1201172.2617188-.3027344.5419922-.4384766.8652344-1.2919922,2.2519531-1.6445312,4.2265625-1.7011719,6.1699219.0429688.5546875.2333984,1.4619141,1.0439453,1.2226562,1.8125-.5351562,7.0957031-5.890625,8.6640625-7.6005859.3847656-.3964844.7832031-.8544922,1.2988281-1.0634766.0371094.3291016-.1796875.5078125-.3476562.7255859-1.7949219,2.1738281-6.8710938,7.6396484-9.3076172,8.3583984-1.6240234.4785156-2.5546875-.4941406-2.3017578-2.0429688.0927734-.8769531.1855469-1.7539062.1835938-2.7177734-.4150391.5185547-.828125,1.0380859-1.3046875,1.5761719-.5830078.7373047-1.2421875,1.5556641-1.984375,2.2285156-.4316406.3535156-.8359375.5869141-1.1474609.6787109Z"/>
      <path class="cls-1" d="m64.5679506,47.6230072c-.7148438.3242188-1.4648438.5458984-2.1914062,1.15625-.0908203.1396484-.2158203.1767578-.3408203.2138672-.3125.0917969-.5810547.0019531-.5703125-.2851562.0429688-.1826172.2597656-.359375.4130859-.5185547.6201172-.4101562,1.2734375-.7158203,1.9130859-.9599609,2.9277344-1.3173828,5.78125-2.3300781,8.6357422-3.3417969,2.0898438-.7304688,4.2431641-1.4785156,6.3339844-2.2089844,1.3408203-.5078125,1.3261719-.4472656,1.8808594-1.8017578.4628906-1.2138672,4.1171875-9.4902344,5.0546875-9.7666016.0625-.0185547.109375.0234375.171875.0058594.2832031.0292969.1630859.2910156.1054688.5351562-.3466797.7265625-.6328125,1.4335938-1.0410156,2.1787109-1.0556641,2.2382812-2.1123047,4.4775391-2.9951172,6.7216797-.3271484.890625-.3095703,1.0537109.2548828.8876953.1230469-.0371094.2480469-.0732422.4511719-.1894531,5.9863281-2.2197266,11.9453125-4.3173828,18.0351562-6.9638672.5771484-.2265625,1.1533203-.4541016,1.7158203-.6201172.3740234-.1103516.7490234-.2207031.8828125.1923828-1.3027344.8388672-2.6152344,1.2255859-3.9072266,1.7773438-5.7636719,2.4941406-11.3955078,4.4384766-17.1181641,6.5234375-.7001953.2636719-1.1816406.5751953-1.4951172,1.4042969-2.0859375,5.8300781-4.5595703,11.8310547-6.1113281,17.6171875-.5996094,2.2744141-1.0117188,4.4921875-1.2216797,6.5957031-.5234375,5.3691406,1.3525391,8.953125,4.0517578,12.0126953.1425781.1269531.3017578.1923828.2773438.5400391-.8125.2402344-1.1962891-.0996094-1.5322266-.3974609-3.6962891-3.5009766-5.1132812-8.5244141-3.7861328-15.3212891.8867188-4.4560547,2.4609375-9.1142578,4.2695312-13.7871094.8974609-2.3046875,1.7324219-4.5908203,2.6914062-6.9150391.1796875-.5058594.1748047-.7314453-.3242188-.5839844l-.125.0361328c-4.8339844,1.765625-9.5332031,3.2109375-14.3789062,5.2626953Z"/>
      <path class="cls-1" d="m84.2515444,62.2782806c-.1699219.2197266-.3710938.3359375-.4960938.3730469-.1875.0546875-.2978516.03125-.3935547-.0527344-.2246094-.2744141-.4453125-.3222656-.6953125-.2490234-.375.1103516-.8232422.5253906-1.2548828.8798828-2.0390625,1.7353516-3.9355469,3.5986328-5.3222656,5.765625-.3662109.5605469-.7324219,1.1220703-.8730469,1.9570312,2.9003906-1.9326172,4.6455078-3.4111328,6.9179688-6.1220703.2451172-.2978516.5244141-.4941406.8359375-.5869141.5625-.1650391.8632812.0292969.7822266.6201172-.203125.8535156-.5322266,1.7441406-.2216797,2.3896484,1.3662109-.8564453,3.8203125-3.1113281,4.8496094-4.265625,1.0761719-1.1103516,1.6640625-1.6240234,1.8515625-1.6796875.2490234-.0732422-.2080078.6289062-1.3916016,1.9414062-1.1982422,1.3730469-3.8740234,4.3164062-5.4355469,4.7773438-.8115234.2392578-1.3056641-.125-1.5771484-1.1777344-.4228516.0683594-.6494141.5302734-1.0058594.8066406-1.2646484,1.1660156-4.3574219,3.6660156-5.8564453,4.1083984-1.3115234.3867188-1.6503906-.1376953-.9863281-1.4658203,1.4365234-2.8623047,4.2412109-5.6171875,6.8847656-7.7011719.6357422-.4697266,1.1787109-.8007812,1.7412109-.9667969.5-.1464844.9550781-.1113281,1.3974609-.015625.2685547.0917969.5234375.2441406.2490234.6640625Z"/>
      <path class="cls-1" d="m89.4468569,67.7743744c-.0869141.3662109-.3037109.5429688-.5537109.6171875-.5.1464844-.7880859-.1074219-.671875-.5947266.4482422-3.5908203.5693359-7.0273438,1.6572266-10.8623047l.4492188-1.1533203c.1054688-.2001953.2119141-.4023438.4609375-.4755859.2353516-.0136719.3935547.0546875.3984375.2792969-.0107422.2861328-.0976562.6513672-.1699219.9570312-.40625,1.7070312-.703125,3.4375-.7480469,5.0957031,1.71875-2.8320312,3.9160156-4.5,6.5986328-5.5185547,1.3408203-.5078125,2.6943359-1.078125,4.0419922-2.0996094.2021484-.1162109.4042969-.2314453.5429688-.3291016.1875-.0546875.3457031.0107422.4277344.1572266.0175781.1640625-.0722656.3046875-.2900391.4824219-.6005859.5732422-1.2978516,1.0634766-1.9365234,1.3076172-.8417969.3632812-1.6689453.6630859-2.5097656,1.0234375-2.3828125.9873047-4.3457031,2.6425781-5.6796875,5.0771484-.9404297,1.7509766-1.6435547,3.4882812-1.8476562,5.0791016-.0878906.3662109-.0976562.6523438-.1699219.9570312Z"/>
      <path class="cls-1" d="m99.57381,64.5038665c-1.6865234.4970703-1.6074219-1.0566406-1.3652344-2.3173828.5029297-1.6230469,2.796875-6.3798828,4.9208984-7.0068359,1.3115234-.3867188,2.6123047.2490234,2.3359375,1.4072266-.71875,2.5361328-2.3037109,5.0449219-4.6660156,7.1582031-.4472656.4160156-.8505859.6484375-1.2255859.7587891Zm-.140625-2.3388672c-.0097656.2861328-.0820312.5908203-.078125.8164062-.0722656.3046875-.1738281.7314453.1865234.6816406.0625-.0195312.125-.0371094.1875-.0556641.25-.0732422.4951172-.3720703.7265625-.6113281,1.6933594-1.7460938,2.8486328-3.6738281,3.7216797-5.6318359.1347656-.3232422.2080078-.6279297.2177734-.9140625.0341797-.6347656-.0791016-.8837891-.7666016-.6816406-1.7490234.5166016-3.828125,5.0976562-4.1953125,6.3964844Z"/>
      <path class="cls-1" d="m130.0503725,29.6659759c6.3320312-6.3457031,13.6884766-11.6328125,20.9960938-13.7890625,1.6240234-.4785156,3.3164062-.7519531,4.5488281-.3212891,1.5498047.5625,1.6738281,2,.3632812,4.0869141-1.5986328,2.5693359-7.3017578,8.9560547-10.1123047,9.7851562-.3125.0917969-.5957031.0634766-.7861328-.1074219-.2753906-.3164062.0429688-.9208984.2851562-1.4443359.4101562-.7451172.8037109-1.4287109,1.2617188-2.1298828.1201172-.2617188.3798828-.6220703.6308594-.6962891.0625-.0175781.1103516.0234375.171875.0058594.3310547.0732422.0712891.4326172-.0488281.6943359-.5292969,1.0068359-1.09375,1.9101562-1.3740234,2.84375.1103516.0234375.2353516-.0136719.3603516-.0507812.1875-.0556641.4042969-.2324219.5576172-.3916016,2.7705078-2.1210938,5.2197266-4.5996094,7.2705078-7.3583984,2.7666016-3.8212891,1.0449219-5.1259766-1.4287109-4.7373047-.609375.1230469-1.2197266.2460938-1.8447266.4306641-8.3701172,2.4697266-22.6992188,13.3857422-25.7851562,22.6845703-1.0673828,3.2617188-.5673828,5.5517578,1.6064453,6.6679688,1.8085938.9394531,7.1533203,1.1777344,9.8398438.3847656.4990234-.1464844,1.0283203-.4169922,1.6494141-.8261719,3.6396484-2.6044922,16.8125-11.5917969,20.1855469-12.5869141.5625-.1660156,1.0488281-.2519531,1.2441406.1435547-7.0019531,3.3125-13.8066406,7.9833984-20.546875,12.6357422-.0292969.1220703.0175781.1650391-.0117188.2861328,3.765625-.203125,6.5029297.0097656,8.390625,2.5703125,1.9033203,2.4990234,1.3535156,5.7792969-1.8613281,10.015625-5.1748047,6.8544922-13.7285156,12.7773438-20.6621094,14.8232422-2.4980469.7373047-4.6972656.7060547-6.4873047-.0693359-2.2021484-.9941406-2.609375-4.1621094-.9814453-7.5898438,3.1962891-6.8378906,11.7509766-13.5,18.0800781-18.3701172-.0087891-.4501953-.3984375-.2792969-.6953125-.2480469-3.1181641.4091797-6.4599609.5449219-8.8652344-.3320312-3.1484375-1.1699219-3.78125-4.6103516-1.5449219-9.1240234,1.359375-2.7822266,3.2236328-5.4853516,5.59375-7.8857422Zm16.1943359,19.3134766c-1.4267578-2.3007812-4.5341797-2.9140625-7.9638672-2.4130859-2.0605469.6083984-9.2275391,6.8037109-11.3242188,8.7832031-3.1318359,2.9072266-6.4072266,6.4238281-8.0517578,9.9140625-1.5849609,3.2441406-1.3222656,6.2841797.7705078,7.2548828,1.7265625.7929688,3.5761719.5878906,6.0126953-.1308594,6.4873047-2.3671875,14.0791016-7.6669922,18.7919922-14.0458984,2.921875-3.9794922,3.4609375-6.9726562,1.7646484-9.3623047Z"/>
      <path class="cls-1" d="m163.7593569,38.824179c-.1689453.2197266-.3710938.3349609-.4960938.3720703-.1855469.0556641-.2978516.0322266-.3925781-.0527344-.2255859-.2734375-.4462891-.3222656-.6962891-.2480469-.375.1103516-.8212891.5253906-1.2548828.8798828-2.0400391,1.7353516-3.9355469,3.5976562-5.3222656,5.7646484-.3662109.5615234-.7304688,1.1220703-.8730469,1.9570312,2.9003906-1.9316406,4.6464844-3.4101562,6.9179688-6.1210938.2451172-.2988281.5244141-.4941406.8369141-.5869141.5615234-.1650391.8642578.0283203.78125.6201172-.203125.8535156-.5322266,1.7441406-.2207031,2.3886719,1.3652344-.8554688,3.8193359-3.1103516,4.8486328-4.2646484,1.078125-1.1103516,1.6650391-1.6240234,1.8525391-1.6796875.25-.0732422-.2089844.6289062-1.3925781,1.9414062-1.1982422,1.3730469-3.8730469,4.3164062-5.4345703,4.7763672-.8125.2402344-1.3056641-.1240234-1.578125-1.1777344-.4228516.0683594-.6484375.53125-1.0058594.8066406-1.2636719,1.1669922-4.3564453,3.6660156-5.8554688,4.1083984-1.3125.3876953-1.6513672-.1367188-.9863281-1.4658203,1.4355469-2.8613281,4.2402344-5.6162109,6.8857422-7.7011719.6337891-.46875,1.1767578-.7998047,1.7392578-.9658203.5-.1474609.9550781-.1113281,1.3974609-.015625.2685547.0917969.5234375.2431641.2490234.6640625Z"/>
      <path class="cls-1" d="m168.0757631,43.6161712c-.6972656-1.9492188.0566406-4.3808594,1.7958984-7.0488281.1816406-.28125.3984375-.4570312.6484375-.53125l.2490234-.0732422c.3466797.0107422.3994141.2792969.125.7001953-1.6289062,2.6904297-1.8964844,5.0371094-1.6796875,7.296875l-.125.0371094c-.6865234.203125-.8652344-.0283203-1.0136719-.3808594Zm4.3261719-10.1191406c-.6875.203125-1.0703125-.1367188-.8779297-.7041016.1650391-.4453125.4443359-.6416016.8173828-.7519531.5488281-.1044922.8505859.0898438.7685547.6796875-.1025391.4277344-.3955078.6845703-.7080078.7763672Z"/>
      <path class="cls-1" d="m166.6226381,17.5175384c-.7148438.3242188-1.4648438.5458984-2.1914062,1.15625-.0908203.1396484-.2158203.1767578-.3408203.2138672-.3125.0917969-.5810547.0019531-.5703125-.2851562.0429688-.1826172.2587891-.359375.4130859-.5185547.6191406-.4101562,1.2734375-.7158203,1.9130859-.9599609,2.9267578-1.3173828,5.78125-2.3300781,8.6357422-3.3417969,2.0898438-.7304688,4.2421875-1.4785156,6.3339844-2.2089844,1.3398438-.5078125,1.3251953-.4472656,1.8798828-1.8017578.4638672-1.2138672,4.1181641-9.4902344,5.0546875-9.7666016.0634766-.0185547.1103516.0234375.1728516.0058594.2832031.0292969.1630859.2910156.1054688.5351562-.3476562.7265625-.6328125,1.4335938-1.0410156,2.1787109-1.0566406,2.2382812-2.1123047,4.4775391-2.9951172,6.7216797-.3271484.890625-.3095703,1.0537109.2529297.8876953.125-.0371094.25-.0732422.4511719-.1894531,5.9882812-2.2197266,11.9472656-4.3173828,18.0371094-6.9638672.5761719-.2265625,1.1533203-.4541016,1.7148438-.6201172.375-.1103516.75-.2207031.8837891.1923828-1.3037109.8388672-2.6152344,1.2255859-3.9072266,1.7773438-5.7636719,2.4941406-11.3955078,4.4384766-17.1181641,6.5234375-.7021484.2636719-1.1816406.5751953-1.4951172,1.4042969-2.0859375,5.8300781-4.5595703,11.8310547-6.1113281,17.6171875-.5996094,2.2744141-1.0117188,4.4921875-1.2216797,6.5957031-.5234375,5.3691406,1.3525391,8.953125,4.0507812,12.0126953.1435547.1269531.3027344.1923828.2783203.5410156-.8125.2392578-1.1972656-.1005859-1.5322266-.3984375-3.6962891-3.5009766-5.1132812-8.5244141-3.7861328-15.3212891.8867188-4.4560547,2.4609375-9.1142578,4.2695312-13.7871094.8974609-2.3046875,1.7324219-4.5908203,2.6914062-6.9150391.1796875-.5058594.1748047-.7314453-.3242188-.5839844l-.125.0361328c-4.8349609,1.765625-9.5332031,3.2109375-14.3789062,5.2626953Z"/>
      <path class="cls-1" d="m179.3941225,40.9579681c-1.6865234.4970703-1.6074219-1.0576172-1.3652344-2.3183594.5019531-1.6230469,2.796875-6.3798828,4.9199219-7.0058594,1.3125-.3876953,2.6132812.2490234,2.3369141,1.4072266-.7197266,2.5351562-2.3037109,5.0439453-4.6660156,7.1582031-.4472656.4150391-.8505859.6474609-1.2255859.7587891Zm-.140625-2.3398438c-.0097656.2861328-.0820312.5908203-.078125.8164062-.0722656.3046875-.1738281.7314453.1865234.6816406.0625-.0185547.1240234-.0371094.1875-.0546875.25-.0742188.4951172-.3730469.7255859-.6113281,1.6943359-1.7460938,2.8496094-3.6748047,3.7226562-5.6328125.1347656-.3232422.2080078-.6279297.2177734-.9140625.0341797-.6337891-.0800781-.8828125-.7675781-.6806641-1.7480469.515625-3.8271484,5.0966797-4.1943359,6.3955078Z"/>
    </g>
  </g>
</svg>