<?xml version="1.0" encoding="UTF-8"?>
<svg id="_レイヤー_2" data-name="レイヤー 2" xmlns="http://www.w3.org/2000/svg" viewBox="0 0 142.1572266 21.6650391">
  <defs>
    <style>
      .cls-1 {
        fill: #fff;
        stroke-width: 0px;
      }
    </style>
  </defs>
  <g id="_レイヤー_1-2" data-name="レイヤー 1">
    <g>
      <path class="cls-1" d="m24.1904297,17.7817383c.1103516.9985352.3046875,2.5517578,1.4980469,2.9404297.8037109.2495117,1.4423828.2495117,1.7197266.2495117.1386719,0,.3046875.027832.3046875.1665039,0,.1665039-.0830078.2216797-.4160156.2216797-.6103516,0-3.7724609-.0830078-4.7988281-.1660156-.6386719-.0556641-.7773438-.1386719-.7773438-.277832,0-.1108398.0556641-.1386719.1943359-.1938477.1943359-.0834961.1669922-.4995117.1113281-.9990234l-1.3320312-14.4804688-6.8789062,14.5917969c-.5830078,1.2207031-.6660156,1.4702148-.9160156,1.4702148-.1943359,0-.3330078-.2773438-.859375-1.2763672-.7216797-1.3588867-3.1074219-6.1582031-3.2460938-6.4355469-.25-.4995117-3.4394531-7.3510742-3.7451172-8.1000977l-1.1367188,13.0654297c-.0283203.4438477-.0556641.8325195-.0556641,1.3041992,0,.6933594.3330078.9150391.7490234.9985352.4716797.1108398.8320312.1108398.9980469.1108398.1669922,0,.2773438.0556641.2773438.1386719,0,.1943359-.1386719.2495117-.4160156.2495117-1.0263672,0-2.4404297-.0830078-2.6630859-.0830078-.2490234,0-1.5810547.0830078-2.3300781.0830078-.2773438,0-.4716797-.0273438-.4716797-.2216797,0-.1108398.1386719-.1665039.2773438-.1665039.2226562,0,.4160156,0,.8330078-.0830078.9150391-.1665039.9707031-1.1655273,1.109375-2.3027344L4.2167969.5546875c.0273438-.3051758.1386719-.5546875.3056641-.5546875.1660156,0,.2773438.1108398.4160156.4160156l8.4882812,17.4487305L21.5820312.4438477c.1113281-.25.2226562-.4438477.4160156-.4438477.1943359,0,.2783203.2216797.3330078.7490234l1.859375,17.0327148Z"/>
      <path class="cls-1" d="m33.2646484,14.5913086c-.1386719,0-.2216797.0834961-.2773438.222168l-1.2207031,3.4672852c-.2773438.7768555-.4716797,1.5258789-.4716797,1.9697266,0,.4995117.3046875.7211914.9150391.7211914h.1943359c.25,0,.3330078.0834961.3330078.1943359,0,.1386719-.2216797.1938477-.4160156.1938477-.6103516,0-1.8867188-.0830078-2.1914062-.0830078-.2773438,0-1.4980469.0830078-2.6630859.0830078-.3056641,0-.4443359-.0551758-.4443359-.1938477,0-.1108398.1113281-.1943359.3330078-.1943359.1386719,0,.3886719,0,.5546875-.027832,1.1933594-.1108398,1.6650391-1.0263672,2.1367188-2.1914062l5.5478516-14.6191406c.3046875-.8046875.3886719-.9433594.5820312-.9433594.1396484,0,.25.1113281.5556641.8876953.3876953.9155273,4.1611328,10.597168,5.6308594,14.0644531.9150391,2.1914062,1.7197266,2.5522461,2.1083984,2.690918.3603516.1386719.7490234.1386719.9433594.1386719s.3330078.0556641.3330078.1943359-.1113281.1938477-.4160156.1938477c-.2783203,0-2.3583984,0-4.2167969-.0551758-.5273438-.027832-.6933594-.0556641-.6933594-.1943359,0-.0830078.0830078-.1665039.1943359-.1943359.1103516-.0551758.2773438-.1938477.1103516-.6098633l-2.1914062-5.5761719c-.0556641-.0830078-.1113281-.1386719-.2216797-.1386719h-5.0488281Zm4.7158203-.9707031c.1113281,0,.1113281-.0834961.0830078-.1665039l-2.1914062-6.1308594c-.1386719-.3881836-.1660156-.3881836-.3046875,0l-2.0810547,6.1308594c-.0556641.1108398,0,.1665039.0556641.1665039h4.4384766Z"/>
      <path class="cls-1" d="m51.4082031,11.6508789c1.2763672-1.137207,4.2998047-4.0224609,5.5488281-5.3818359,1.3310547-1.4702148,1.4423828-1.6088867,1.4423828-1.9140625,0-.1938477-.1113281-.3325195-.4443359-.4438477-.1943359-.0551758-.3046875-.1108398-.3046875-.2216797,0-.0834961.0556641-.1665039.2773438-.1665039.1660156,0,.9980469.0830078,1.8857422.0830078.8330078,0,2.3583984-.0830078,2.71875-.0830078.3886719,0,.4443359.0556641.4443359.1665039s-.0839844.1943359-.3056641.2216797c-.4433594.027832-1.0263672.1386719-1.359375.277832-.6650391.2216797-1.0263672.5268555-2.46875,1.8305664-2.0253906,1.8310547-4.4384766,4.1889648-5.6591797,5.2983398,1.4980469,1.5537109,5.9921875,5.9921875,7.1572266,7.0463867,1.9423828,1.7753906,2.8847656,2.2744141,3.9951172,2.5244141.3046875.0551758.1660156.0273438.6376953.0830078.25.027832.3886719.0834961.3886719.222168,0,.1108398-.1386719.1660156-.4443359.1660156h-1.8027344c-2.1640625,0-2.71875-.2495117-3.828125-1.0263672-1.2490234-.8876953-5.6875-5.4370117-7.8789062-8.0166016v2.1914062c0,2.1357422-.0273438,4.0776367.1113281,5.0761719.1113281.8046875.2216797,1.1098633.9433594,1.2763672.3603516.0830078.9433594.1108398,1.0537109.1108398.25.027832.3056641.0834961.3056641.1943359s-.1113281.1938477-.3886719.1938477c-1.4150391,0-3.0234375-.0830078-3.1621094-.0830078-.0839844,0-1.7207031.0830078-2.4970703.0830078-.25,0-.4433594-.0551758-.4433594-.1938477,0-.1108398.1103516-.1943359.3603516-.1943359.1386719,0,.4433594-.027832.6660156-.0830078.4716797-.1113281.5546875-.6660156.6376953-1.331543.1386719-.9990234.1386719-2.9682617.1386719-5.0488281v-4.1611328c0-3.6616211,0-4.3276367-.0556641-5.0766602s-.2216797-1.1650391-.8046875-1.2758789c-.2773438-.0556641-.4716797-.0556641-.6376953-.0834961-.1943359-.0273438-.3046875-.0830078-.3046875-.1938477,0-.1386719.1103516-.1943359.4160156-.1943359.859375,0,2.4404297.0830078,2.5244141.0830078.1103516,0,1.7197266-.0830078,2.4960938-.0830078.2773438,0,.4160156.0556641.4160156.1943359,0,.1108398-.0830078.1665039-.3046875.1938477-.1669922.027832-.3056641.027832-.4990234.0556641-.8046875.1108398-.8886719.5268555-.9433594,1.331543-.0556641.7490234-.0283203,1.387207-.0283203,5.0488281v1.3037109Z"/>
      <path class="cls-1" d="m68.2216797,10.347168c0-3.6342773,0-4.2998047-.0556641-5.0488281-.0556641-.7768555-.2490234-1.1650391-1.0537109-1.331543-.1669922-.027832-.4443359-.0556641-.6660156-.0556641-.1943359,0-.3603516-.0830078-.3603516-.1665039,0-.1660156.1386719-.2216797.4160156-.2216797.5546875,0,1.3037109.0556641,2.8574219.0830078.1386719,0,5.0761719,0,5.6308594-.0273438.5546875-.027832.8603516-.0556641,1.0820312-.1386719.1660156-.0556641.1943359-.0834961.3046875-.0834961.0556641,0,.1113281.0556641.1113281.1943359,0,.1665039-.1660156.5546875-.2216797,1.2480469-.0283203.4716797-.0556641.9155273-.0830078,1.4428711,0,.2495117-.0556641.4160156-.1943359.4160156s-.1943359-.1108398-.1943359-.3051758c-.0283203-.4160156-.1113281-.6933594-.1943359-.8876953-.1660156-.5546875-.4160156-.7490234-1.8027344-.8325195-.3613281-.0273438-3.1074219-.0551758-3.1630859-.0551758-.0830078,0-.1386719.0551758-.1386719.2216797v6.2973633c0,.1665039.0283203.2773438.1669922.2773438.3330078,0,3.1621094-.027832,3.7451172-.0830078.6376953-.027832,1.0537109-.1113281,1.2753906-.4165039.1113281-.1665039.1943359-.2216797.3056641-.2216797.0556641,0,.1103516.027832.1103516.1665039s-.1103516.6655273-.1943359,1.4702148c-.0830078.7768555-.0830078,1.331543-.1103516,1.6918945-.0283203.222168-.0830078.3051758-.1943359.3051758-.1386719,0-.1660156-.1665039-.1660156-.3603516,0-.1665039-.0283203-.4438477-.0839844-.6660156-.1103516-.3603516-.2773438-.7490234-1.3310547-.8320312-.6376953-.0556641-2.8847656-.1108398-3.3291016-.1108398-.1660156,0-.1943359.0830078-.1943359.1938477v2.0253906c0,.8598633-.0273438,3.3007812,0,3.7724609.0556641,1.0263672.1943359,1.5537109.7773438,1.8032227.4160156.1943359,1.0810547.2495117,2.0244141.2495117.5273438,0,1.4150391.027832,2.1083984-.1665039.8320312-.2495117,1.0263672-.8041992,1.2480469-1.8305664.0556641-.2773438.1396484-.3886719.25-.3886719.1669922,0,.1669922.25.1669922.4165039,0,.1938477-.2226562,1.9414062-.3056641,2.4130859-.1113281.5546875-.3046875.6103516-1.2207031.6103516-1.8310547,0-2.6074219-.0556641-3.578125-.0556641-.9707031-.0273438-2.2470703-.0830078-3.2734375-.0830078-.6376953,0-1.1650391.0830078-1.8310547.0830078-.25,0-.3886719-.0551758-.3886719-.1938477,0-.1108398.1113281-.1943359.25-.1943359.1660156,0,.3603516-.027832.5546875-.0830078.4990234-.1113281.8320312-.4716797.8876953-2.1918945.0283203-.9428711.0556641-2.0800781.0556641-4.1884766v-4.1611328Z"/>
      <path class="cls-1" d="m83.2587891,10.347168c0-3.6342773,0-4.2998047-.0556641-5.0488281-.0556641-.7768555-.1943359-1.2207031-1.0537109-1.3037109-.25-.027832-.4443359-.027832-.6933594-.0556641-.2226562-.027832-.3613281-.1108398-.3613281-.2216797,0-.1386719.1386719-.1943359.4160156-.1943359.9990234,0,1.9140625.0830078,2.8300781.0830078.4160156,0,5.4648438,0,6.046875-.0273438.5546875-.027832.9716797-.0834961,1.2490234-.1943359.1386719-.0556641.2216797-.0830078.2773438-.0830078.0830078,0,.1386719.0830078.0830078.2495117-.0556641.1938477-.1386719.5825195-.1660156.8598633-.1113281.7211914-.0839844,1.2207031-.1396484,1.9418945,0,.3051758-.0830078.4160156-.1933594.4160156-.1386719,0-.1943359-.1386719-.2226562-.3330078,0-.3051758-.1103516-1.0541992-.4433594-1.3867188-.3603516-.3330078-.8603516-.3608398-1.5537109-.3886719-1.1923828-.027832-2.2744141-.0551758-3.4951172-.0551758-.1943359,0-.25.0551758-.25.2773438v6.269043c0,.1391602.0283203.25.1943359.25,1.1376953,0,2.46875,0,3.3847656-.027832,1.1367188-.027832,1.4980469-.0830078,1.8583984-.5273438.1113281-.1386719.1660156-.2216797.2773438-.2216797.0830078,0,.1113281.1108398.1113281.2495117s-.1113281.6103516-.1943359,1.4428711c-.0830078.7490234-.1113281,1.2202148-.1113281,1.6088867,0,.2773438-.0556641.4160156-.1943359.4160156-.1660156,0-.1660156-.1665039-.1943359-.4160156-.0273438-.3886719-.0830078-1.331543-1.4423828-1.4980469-.5546875-.0834961-3.0507812-.0834961-3.4951172-.0834961-.1660156,0-.1943359.0556641-.1943359.25v1.9418945c0,1.8583984.0283203,3.5229492.0556641,4.6323242.0273438,1.387207.2216797,1.581543.9990234,1.6923828.3603516.0551758.6103516.0830078.859375.1108398.2226562.027832.3330078.0834961.3330078.1943359s-.0830078.1938477-.3603516.1938477c-1.4423828,0-2.96875-.0830078-3.0791016-.0830078h-.1943359c-.5273438.027832-1.6640625.0830078-2.2470703.0830078-.25,0-.3886719-.0551758-.3886719-.1938477,0-.0834961.0556641-.1665039.2773438-.1943359.2773438-.027832.4169922-.027832.5830078-.0556641.6376953-.0830078.7216797-.5268555.7763672-1.5253906.0839844-1.0263672.1113281-2.6630859.1113281-4.8823242v-4.1611328Z"/>
      <path class="cls-1" d="m98.7119141,13.6484375c0,3.3842773.6376953,4.8266602,1.6923828,5.7700195,1.1923828,1.0537109,2.5244141,1.2758789,3.6611328,1.2758789,1.4433594,0,2.7470703-.3881836,3.8007812-1.6088867,1.109375-1.2763672,1.359375-3.3842773,1.359375-5.7978516v-2.9404297c0-3.6342773,0-4.2719727-.0556641-5.0209961-.0556641-.8046875-.1386719-1.2207031-1.0263672-1.359375-.1943359-.027832-.5273438-.0556641-.7763672-.0556641-.1669922,0-.2773438-.0830078-.2773438-.1665039,0-.1660156.1386719-.2216797.3876953-.2216797,1.1933594,0,2.5800781.0830078,2.6914062.0830078.1386719,0,1.3310547-.0830078,2.1083984-.0830078.2773438,0,.3876953.0556641.3876953.1943359,0,.1108398-.1103516.1938477-.2773438.1938477-.1660156,0-.2216797,0-.4990234.027832-.7763672.0834961-.8876953.5825195-.9433594,1.387207-.0273438.7490234-.0273438,1.3867188-.0273438,5.0209961v2.46875c0,2.496582-.2773438,5.4926758-2.2470703,7.1850586-1.8037109,1.5253906-3.5791016,1.6640625-5.0771484,1.6640625-.7763672,0-3.3837891,0-5.1865234-1.6640625-1.1933594-1.1098633-2.0537109-2.7744141-2.0537109-6.2138672v-3.4399414c0-3.6616211,0-4.2998047-.0830078-5.0488281-.0273438-.7490234-.1660156-1.2207031-1.0263672-1.331543-.1660156-.027832-.4990234-.0556641-.7207031-.0556641-.1943359,0-.3056641-.0830078-.3056641-.1665039,0-.1660156.1113281-.2216797.4160156-.2216797,1.1933594,0,2.6914062.0830078,2.8847656.0830078.2226562,0,1.859375-.0830078,2.6083984-.0830078.3046875,0,.3876953.0556641.3876953.1943359s-.1933594.1938477-.3320312.1938477c-.1669922,0-.3886719.027832-.6103516.0556641-.6660156.0830078-.7773438.5546875-.8330078,1.331543-.0273438.7490234-.0273438,1.387207-.0273438,5.0488281v3.3012695Z"/>
      <path class="cls-1" d="m120.2685547,14.5634766c0,3.1904297.1113281,4.7993164.5830078,5.2431641.4433594.3881836.9980469.5546875,2.9121094.5546875,1.2207031,0,2.3310547,0,2.9414062-.7768555.2773438-.4160156.4707031-.9707031.5263672-1.3867188.0283203-.222168.0830078-.3330078.2226562-.3330078.1103516,0,.1660156.0830078.1660156.3608398,0,.2773438-.1660156,1.8583984-.3330078,2.496582-.1660156.5546875-.1386719.6933594-1.4697266.6933594-1.8867188,0-3.9677734-.1386719-6.7412109-.1386719-.9160156,0-1.4707031.0830078-2.4414062.0830078-.2773438,0-.4433594-.0551758-.4433594-.2216797,0-.0830078.0830078-.1665039.3046875-.1665039s.4443359,0,.6660156-.0556641c.4716797-.0830078.6376953-.6376953.7207031-1.3037109.1669922-1.0541992.1113281-2.9682617.1113281-5.1040039v-4.1611328c0-3.6616211,0-4.2719727-.0556641-5.0209961-.0556641-.7768555-.1660156-1.2763672-1.109375-1.387207-.1669922-.027832-.4716797-.027832-.6933594-.027832-.1943359,0-.3056641-.0830078-.3056641-.1938477,0-.1386719.1386719-.1943359.4160156-.1943359,1.1650391,0,2.8300781.0830078,2.8857422.0830078.3876953,0,2.0800781-.0830078,2.8564453-.0830078.2783203,0,.3613281.0830078.3613281.1943359,0,.1108398-.1386719.1938477-.3056641.1938477-.1943359,0-.4716797.027832-.7490234.0556641-.7763672.1108398-.9423828.5546875-.9980469,1.359375-.0556641.7490234-.0283203,1.359375-.0283203,5.0209961v4.2163086Z"/>
      <path class="cls-1" d="m134.8056641,14.5634766c0,3.1904297.1113281,4.7993164.5830078,5.2431641.4433594.3881836.9980469.5546875,2.9121094.5546875,1.2207031,0,2.3310547,0,2.9414062-.7768555.2773438-.4160156.4707031-.9707031.5263672-1.3867188.0283203-.222168.0830078-.3330078.2226562-.3330078.1103516,0,.1660156.0830078.1660156.3608398,0,.2773438-.1660156,1.8583984-.3330078,2.496582-.1660156.5546875-.1386719.6933594-1.4697266.6933594-1.8867188,0-3.9677734-.1386719-6.7412109-.1386719-.9160156,0-1.4707031.0830078-2.4414062.0830078-.2773438,0-.4433594-.0551758-.4433594-.2216797,0-.0830078.0830078-.1665039.3046875-.1665039s.4443359,0,.6660156-.0556641c.4716797-.0830078.6376953-.6376953.7207031-1.3037109.1669922-1.0541992.1113281-2.9682617.1113281-5.1040039v-4.1611328c0-3.6616211,0-4.2719727-.0556641-5.0209961-.0556641-.7768555-.1660156-1.2763672-1.109375-1.387207-.1669922-.027832-.4716797-.027832-.6933594-.027832-.1943359,0-.3056641-.0830078-.3056641-.1938477,0-.1386719.1386719-.1943359.4160156-.1943359,1.1650391,0,2.8300781.0830078,2.8857422.0830078.3876953,0,2.0800781-.0830078,2.8564453-.0830078.2783203,0,.3613281.0830078.3613281.1943359,0,.1108398-.1386719.1938477-.3056641.1938477-.1943359,0-.4716797.027832-.7490234.0556641-.7763672.1108398-.9423828.5546875-.9980469,1.359375-.0556641.7490234-.0283203,1.359375-.0283203,5.0209961v4.2163086Z"/>
    </g>
  </g>
</svg>